<svg xmlns="http://www.w3.org/2000/svg" xmlns:serif="http://www.serif.com/" fill-rule="evenodd" fill="#fb977d" stroke-linejoin="round" stroke-miterlimit="2" clip-rule="evenodd" viewBox="0 0 32 32"><rect width="32" height="32" fill="none" serif:id="biology plants seed"/><path d="M15.461,12.018c-2.634,1.164 -5.905,0.874 -7.892,-1.597c-1.193,-1.483 -2.061,-3.29 -3.949,-4.047c0,0 -0.422,-0.191 -0.567,-0.583c-0.318,-0.864 0.843,-1.455 2.011,-1.869c1.481,-0.526 3.031,-0.868 4.601,-0.877c0.04,0 0.08,0 0.119,0c1.983,0.023 3.957,0.705 5.314,2.205c0,0 0.564,0.893 -0.013,1.441c-0.447,0.425 -1.133,0.241 -1.612,-0.249c-1.556,-1.574 -4.198,-1.556 -6.158,-1.1c-0.337,0.078 -0.67,0.17 -1,0.272l-0.04,0.013c0.04,0.033 0.08,0.066 0.12,0.1c0.965,0.824 1.641,1.919 2.373,2.958c0.645,0.915 1.534,1.665 2.701,1.892c1.607,0.313 3.26,-0.162 4.584,-1.27l0.003,-0.002c0.645,-1.84 1.795,-3.475 3.456,-4.484c1.84,-1.118 4.078,-1.521 6.217,-1.519c0.813,0.004 1.627,0.054 2.426,0.192c0,0 1.285,0.647 0.686,1.545c-0.077,0.115 -0.177,0.213 -0.293,0.287c-0.246,0.158 -0.514,0.249 -0.731,0.399c-2.168,1.498 -2.126,4.821 -4.84,6.179c-0.89,0.445 -2.001,0.608 -2.917,0.304c-0.685,-0.228 -0.925,-1.325 -0.24,-1.782c0.619,-0.413 1.544,0.099 2.348,-0.358c1.119,-0.636 1.551,-1.986 2.116,-3.032c0.328,-0.602 0.678,-1.193 1.104,-1.73c-2.682,0.06 -5.586,1.011 -6.922,3.358c-1.117,1.962 -1.146,4.378 -1.284,6.705c-0.126,2.134 -0.177,4.272 -0.181,6.415l-0.003,0.29c-0.098,0.801 -0.481,0.847 -0.831,0.906c-0.515,0.087 -1.064,-0.295 -1.153,-0.82c-0.048,-0.285 -0.014,-0.371 -0.014,-0.538c0.002,-0.51 0.004,-1.021 0.009,-1.532c-3.006,0.353 -5.962,1.814 -8.094,3.872c-0.593,0.572 -0.451,1.717 0.403,1.944c5.198,1.334 11.574,1.463 17.455,-0.001c0.781,-0.212 1.047,-1.261 0.403,-1.935c-1.51,-1.584 -3.467,-2.836 -5.468,-3.453c0,0 -0.86,-0.49 -0.674,-1.208c0.161,-0.619 0.876,-0.854 1.626,-0.584c2.302,0.828 4.431,2.203 6.104,4.013c0,0 0.452,0.526 0.643,1.058c0.575,1.601 -0.407,3.577 -2.13,4.046c-6.066,1.51 -12.418,1.455 -18.436,0.008c-0.201,-0.052 -0.269,-0.077 -0.4,-0.13c-1.394,-0.559 -2.243,-2.225 -1.839,-3.701c0.295,-1.079 1.248,-1.865 2.197,-2.579c2.415,-1.815 5.346,-3.123 8.24,-3.374c0.048,-2.03 0.157,-4.054 0.422,-6.048Z"/></svg>