<svg xmlns="http://www.w3.org/2000/svg" xmlns:serif="http://www.serif.com/" fill-rule="evenodd" fill="#0085db" stroke-linejoin="round" stroke-miterlimit="2" clip-rule="evenodd" viewBox="0 0 32 32"><rect width="32" height="32" fill="none" serif:id="erase eraser"/><path d="M15.835,22.792l5.306,-5.307c0.578,-0.525 1.651,-0.183 1.709,0.638c0.02,0.278 -0.003,0.464 -0.291,0.78c-2.684,2.684 -5.359,5.376 -8.051,8.052c-1.881,1.845 -4.89,2.423 -7.312,1.388c-2.645,-1.13 -4.358,-4.12 -3.998,-6.977c0.183,-1.453 0.861,-2.833 1.9,-3.879l14.038,-14.038c0.338,-0.308 0.352,-0.33 0.848,-0.284c0.346,0.065 0.409,0.138 0.57,0.284l8.021,8.021c0.363,0.398 0.371,1.01 0,1.418l-2.966,2.965c-0.089,0.081 -0.189,0.141 -0.296,0.182c-0.205,0.119 -0.459,0.156 -0.744,0.056c-0.136,-0.048 -0.211,-0.079 -0.378,-0.238l-7.316,-7.316c-2.557,2.542 -5.117,5.079 -7.659,7.636l6.619,6.619Zm-8.031,-5.195c-0.444,0.449 -0.887,0.899 -1.329,1.35c-1.741,1.797 -1.67,5.02 0.218,6.726c1.742,1.573 4.68,1.569 6.428,-0.168l1.296,-1.295l-6.613,-6.613Zm17.096,-3.87l1.548,-1.548l-6.603,-6.603c-0.516,0.516 -1.032,1.031 -1.549,1.546l6.604,6.605Z"/></svg>