<svg xmlns="http://www.w3.org/2000/svg" xmlns:serif="http://www.serif.com/" fill-rule="evenodd" fill="#707a82" stroke-linejoin="round" stroke-miterlimit="2" clip-rule="evenodd" viewBox="0 0 32 32"><rect width="32" height="32" fill="none" serif:id="globe world geography"/><path d="M12.996,24.102c-1.64,-0.104 -3.255,-0.554 -4.691,-1.346c-0.513,-0.284 -0.84,-0.871 -0.598,-1.395c0.262,-0.565 0.995,-0.672 1.619,-0.33c3.438,1.856 8.006,1.259 10.831,-1.448c2.331,-2.234 3.352,-5.736 2.591,-8.872c-0.589,-2.429 -2.208,-4.583 -4.371,-5.841c0,0 -0.622,-0.545 -0.463,-1.128c0.099,-0.366 0.421,-0.66 0.795,-0.725c0.165,-0.029 0.207,-0.013 0.262,-0.011c0.452,0.062 0.854,0.387 1.261,0.673c3.499,2.458 5.389,7.014 4.591,11.286c-0.61,3.264 -2.74,6.207 -5.653,7.802c-1.287,0.705 -2.714,1.135 -4.171,1.292l0,3.98c-0.019,0.874 -1.359,1.384 -1.869,0.501c-0.087,-0.151 -0.13,-0.323 -0.134,-0.501l0,-3.937Zm1.047,-18.22c3.208,0.031 6.229,2.501 6.839,5.685c0.763,3.976 -2.472,8.308 -6.839,8.335c-3.336,0.022 -6.491,-2.642 -6.981,-5.987c-0.569,-3.88 2.59,-7.938 6.8,-8.031c0.06,-0.001 0.121,-0.002 0.181,-0.002Zm-0.078,2.003c-2.27,0.022 -4.412,1.748 -4.873,3.998c-0.459,2.241 0.836,4.725 2.958,5.623c2.337,0.989 5.346,-0.131 6.461,-2.444c1.422,-2.95 -0.776,-7.095 -4.416,-7.176c-0.043,0 -0.087,-0.001 -0.13,-0.001Z"/></svg>