<svg width="27" height="26" viewBox="0 0 27 26" fill="none" xmlns="http://www.w3.org/2000/svg">
<g clip-path="url(#clip0_149_3570)">
<path d="M2.39498 6.53738C0.154711 9.75711 0.433602 13.9466 2.14493 17.368C2.18555 17.4501 2.22821 17.5307 2.27026 17.6113L2.35029 17.7655L2.40026 17.8543L2.48943 18.0139C2.54265 18.1076 2.59709 18.2008 2.65274 18.294L2.74598 18.4476C2.80773 18.5473 2.8709 18.6459 2.93549 18.7442L3.01634 18.8689C3.10551 19.0019 3.19671 19.1348 3.29096 19.2652L3.29888 19.2753L3.3452 19.3379C3.42665 19.4502 3.51054 19.5611 3.59545 19.6708L3.6897 19.7907C3.76546 19.8859 3.84245 19.9806 3.92085 20.0748L4.00921 20.1805C4.11463 20.3049 4.22203 20.4276 4.33137 20.5485L4.33807 20.5552L4.35046 20.569C4.45793 20.6857 4.56708 20.8007 4.6779 20.9142L4.78291 21.02C4.86884 21.1065 4.95618 21.1916 5.04434 21.2763L5.15138 21.3779C5.2692 21.489 5.38823 21.5979 5.5097 21.7043L5.51538 21.7088L5.57774 21.762C5.68479 21.8546 5.79366 21.9466 5.90335 22.0368L6.03823 22.1443C6.1278 22.2162 6.2184 22.2869 6.3096 22.3563L6.45463 22.4666C6.55538 22.5408 6.65674 22.6137 6.75912 22.685L6.87002 22.7636L6.90049 22.7853C6.99759 22.8522 7.09691 22.9166 7.19624 22.981L7.32421 23.0663C7.47655 23.1625 7.63093 23.2578 7.78713 23.3498L7.9151 23.4219C8.02987 23.4882 8.14545 23.5532 8.26245 23.6167C8.32582 23.6509 8.39082 23.6832 8.4546 23.7159C8.53727 23.7591 8.61934 23.803 8.70343 23.845L8.76091 23.8729L8.86268 23.922C8.99288 23.9842 9.1241 24.0453 9.25674 24.1042L9.34002 24.1416C9.49207 24.2081 9.64532 24.2718 9.7997 24.3327L9.91162 24.3768C10.0546 24.4319 10.1996 24.4863 10.3453 24.5375L10.3997 24.5564C10.5596 24.6122 10.7209 24.664 10.8834 24.7146L11.0002 24.7496C11.1655 24.7993 11.329 24.8588 11.4994 24.8903C22.3339 26.8661 25.4811 18.3796 25.4811 18.3796C22.8379 21.8231 18.1461 22.7315 13.7007 21.7202C13.5323 21.6822 13.369 21.6296 13.2047 21.581L13.081 21.5434C12.9209 21.4944 12.7616 21.4426 12.6032 21.388L12.5376 21.3643C12.3964 21.3144 12.256 21.2623 12.1163 21.2081L11.9981 21.1616C11.8454 21.1012 11.6934 21.0383 11.5433 20.9725L11.4525 20.9322C11.324 20.8742 11.196 20.8146 11.0688 20.7537L10.9579 20.7005C10.8582 20.6519 10.7595 20.6003 10.6611 20.5495C10.5953 20.5148 10.5283 20.4821 10.4631 20.446C10.3434 20.3815 10.2248 20.315 10.1074 20.2465L9.98738 20.1795C9.83146 20.0874 9.67707 19.9928 9.52426 19.8957L9.39934 19.8124C9.28825 19.7412 9.17835 19.6681 9.06966 19.5932L8.96363 19.5187C8.85898 19.4447 8.75511 19.3696 8.65204 19.2934L8.51412 19.189C8.41942 19.117 8.3257 19.0438 8.23299 18.9692L8.10766 18.8687C7.9896 18.7719 7.87286 18.6735 7.75748 18.5735L7.71909 18.5412C7.59477 18.4315 7.47207 18.32 7.35102 18.2067L7.24723 18.107C7.15765 18.0217 7.06949 17.9357 6.98276 17.8476L6.87916 17.7442C6.76909 17.6316 6.66087 17.5171 6.55457 17.4009L6.53852 17.3838C6.4265 17.261 6.31673 17.1361 6.20926 17.0093L6.12313 16.9069C6.04284 16.8103 5.96382 16.7127 5.88609 16.614L5.79935 16.5059C5.70642 16.3858 5.6152 16.2643 5.52574 16.1415C3.05777 12.7749 2.17093 8.13191 4.14348 4.31884M9.34937 3.82444C7.72904 6.15591 7.8172 9.27712 9.08104 11.7429C9.29255 12.1574 9.53198 12.557 9.79766 12.9391C10.0404 13.287 10.3095 13.701 10.6317 13.9805C10.7495 14.1095 10.8707 14.2354 10.9953 14.3579L11.0912 14.4523C11.2121 14.5703 11.3359 14.6853 11.4625 14.7972L11.4775 14.8102L11.4812 14.8139C11.6227 14.9372 11.7673 15.0568 11.9148 15.1728L12.0134 15.2496C12.1617 15.3639 12.3129 15.4744 12.4669 15.5809L12.4801 15.5909C12.5484 15.638 12.6179 15.6819 12.6871 15.7274L12.7852 15.7922C12.8957 15.863 13.0076 15.9321 13.1214 15.9983L13.1691 16.026C13.2672 16.0824 13.3666 16.1381 13.4663 16.1921L13.5721 16.2472C13.641 16.2831 13.7099 16.3199 13.7799 16.3548L13.8114 16.369C13.9542 16.4393 14.0982 16.5072 14.2453 16.5711L14.3412 16.6105C14.4588 16.6605 14.5776 16.7093 14.6966 16.7548L14.849 16.8106C14.9572 16.8508 15.0659 16.8874 15.1754 16.9242L15.3231 16.9715C15.4789 17.0198 15.6328 17.081 15.7951 17.108C24.1604 18.4939 26.0917 12.053 26.0917 12.053C24.351 14.5602 20.9795 15.7566 17.3819 14.8226C17.2229 14.7808 17.0649 14.7352 16.9081 14.6857L16.7657 14.6396C16.6545 14.6037 16.5441 14.5656 16.4344 14.5255L16.2849 14.4698C16.1652 14.4239 16.0463 14.3759 15.9282 14.326L15.8321 14.2854C15.685 14.2214 15.5395 14.1537 15.3958 14.0825C15.3221 14.0465 15.2495 14.0085 15.1768 13.9711L15.0505 13.9061C14.9573 13.8556 14.865 13.8035 14.7736 13.7497L14.7074 13.7122C14.5942 13.6462 14.4824 13.5779 14.372 13.5074L14.2709 13.44C14.198 13.3929 14.1256 13.345 14.0537 13.2964C13.9004 13.1898 13.7496 13.0795 13.6016 12.9657L13.4998 12.8854C11.9252 11.6423 10.6768 9.94297 10.0835 8.01633C9.46149 6.01839 9.59556 3.77548 10.6731 1.95508M15.1984 1.79766C14.2433 3.20328 14.1494 4.94894 14.8122 6.50122C15.5112 8.14917 16.9432 9.44166 18.6147 10.0549C18.6836 10.0803 18.7526 10.103 18.8223 10.1268L18.9139 10.1558C19.0124 10.1867 19.1101 10.2227 19.2119 10.242C23.831 11.1345 25.0838 7.8717 25.4172 7.39131C24.3199 8.97142 22.4755 9.35066 20.2125 8.80141C20.0337 8.75814 19.8373 8.69355 19.6651 8.63241C19.4438 8.55379 19.2268 8.46368 19.0149 8.36245C18.6128 8.16889 18.231 7.93591 17.8749 7.66695C15.85 6.13031 14.592 3.19942 15.9134 0.8125" fill="#0868AC"/>
</g>
<defs>
<clipPath id="clip0_149_3570">
<rect width="26" height="26" fill="white" transform="translate(0.439453)"/>
</clipPath>
</defs>
</svg>
