<svg width="26" height="26" viewBox="0 0 26 26" fill="none" xmlns="http://www.w3.org/2000/svg">
<path d="M15.2541 16.0065C15.5061 16.5175 15.8973 16.947 16.3825 17.2456C16.8677 17.5443 17.4273 17.7 17.9971 17.6949C19.1492 17.6949 19.8853 17.1188 19.8853 16.3234C19.8853 15.3703 19.1289 15.0323 17.8614 14.4774L17.1659 14.1792C15.1598 13.3244 13.8265 12.2535 13.8265 9.98992C13.8265 7.90423 15.4158 6.31742 17.8988 6.31742C18.7046 6.25894 19.5099 6.43932 20.2138 6.83601C20.9177 7.2327 21.4891 7.82808 21.8564 8.54773L19.6911 9.93792C19.5494 9.58131 19.3024 9.27629 18.9831 9.06338C18.6639 8.85048 18.2873 8.73978 17.9036 8.74598C17.7364 8.72915 17.5675 8.74736 17.4076 8.79945C17.2478 8.85154 17.1006 8.93636 16.9754 9.0485C16.8502 9.16065 16.7497 9.29766 16.6804 9.45079C16.611 9.60393 16.5744 9.76983 16.5728 9.93792C16.5728 10.7724 17.0895 11.1095 18.279 11.6263L18.9745 11.9237C21.3373 12.9369 22.6706 13.9695 22.6706 16.2917C22.6706 18.795 20.7043 20.1665 18.0629 20.1665C17.034 20.2319 16.0081 19.9983 15.1091 19.4937C14.2101 18.9891 13.4762 18.2351 12.9961 17.3227L15.2541 16.0065ZM5.43257 16.2502C5.8697 17.0254 6.26701 17.6802 7.22007 17.6802C8.13332 17.6802 8.7102 17.3227 8.7102 15.9334V6.47992H11.4906V15.9724C11.4906 18.851 9.80219 20.1616 7.33869 20.1616C6.4685 20.2087 5.60443 19.9913 4.86016 19.5379C4.11589 19.0846 3.5263 18.4166 3.16895 17.6217L5.43257 16.2502Z" fill="#FBC02D"/>
</svg>
