<svg width="41" height="32" viewBox="0 0 41 32" fill="none" xmlns="http://www.w3.org/2000/svg">
<g clip-path="url(#clip0_37_94)">
<path fill-rule="evenodd" clip-rule="evenodd" d="M8.80817 0.0678711C6.52579 0.0678711 4.83698 2.0655 4.91257 4.23194C4.98512 6.31329 4.89088 9.00889 4.21223 11.2072C3.53156 13.4119 2.38037 14.8085 0.500031 14.9879V17.0123C2.38037 17.1916 3.53156 18.5882 4.21223 20.793C4.89088 22.9913 4.98512 25.6869 4.91257 27.7682C4.83698 29.9343 6.52579 31.9323 8.80851 31.9323H32.1949C34.4773 31.9323 36.1658 29.9347 36.0902 27.7682C36.0177 25.6869 36.1119 22.9913 36.7905 20.793C37.4716 18.5882 38.6197 17.1916 40.5 17.0123V14.9879C38.6197 14.8085 37.4716 13.4119 36.7905 11.2072C36.1119 9.00923 36.0177 6.31329 36.0902 4.23194C36.1658 2.06584 34.4773 0.0678711 32.1949 0.0678711H8.80783H8.80817ZM27.6187 19.6824C27.6187 22.6655 25.3936 24.4747 21.701 24.4747H15.4153C15.2355 24.4747 15.063 24.4032 14.9359 24.2761C14.8087 24.1489 14.7373 23.9765 14.7373 23.7967V8.20346C14.7373 8.02366 14.8087 7.85121 14.9359 7.72407C15.063 7.59693 15.2355 7.5255 15.4153 7.5255H21.6651C24.7441 7.5255 26.7648 9.19329 26.7648 11.754C26.7648 13.5513 25.4055 15.1604 23.6736 15.4421V15.536C26.0312 15.7947 27.6187 17.4272 27.6187 19.6824ZM21.0156 9.67465H17.4316V14.737H20.4502C22.7838 14.737 24.0705 13.7974 24.0705 12.1177C24.0705 10.5438 22.9641 9.67465 21.0156 9.67465ZM17.4316 16.7458V22.3248H21.1475C23.577 22.3248 24.8641 21.3499 24.8641 19.5177C24.8641 17.6852 23.541 16.7455 20.9912 16.7455L17.4316 16.7458Z" fill="url(#paint0_linear_37_94)"/>
</g>
<defs>
<linearGradient id="paint0_linear_37_94" x1="41" y1="16" x2="0.999998" y2="16" gradientUnits="userSpaceOnUse">
<stop stop-color="#702CF9"/>
<stop offset="1" stop-color="#702CF9"/>
</linearGradient>
<clipPath id="clip0_37_94">
<rect width="40" height="32" fill="white" transform="translate(0.500031)"/>
</clipPath>
</defs>
</svg>
