<svg width="12" height="26" viewBox="0 0 12 26" fill="none" xmlns="http://www.w3.org/2000/svg">
<g clip-path="url(#clip0_149_3564)">
<path d="M9.06216 25.2076L9.31146 21.0536L9.99982 19.8785C9.99982 19.8785 8.43311 20.5194 5.81019 20.5194C3.18722 20.5194 1.64426 19.8904 1.64426 19.8904L2.41572 21.1722L2.68863 25.2076C2.68863 25.6402 4.11536 25.9909 5.87542 25.9909C7.63538 25.9909 9.06216 25.6402 9.06216 25.2076ZM8.27578 5.80888L8.79904 3.7406L11.6968 0.691521L10.933 0.0410156L7.8652 3.28904L7.25764 5.7601C6.80039 5.74478 6.3429 5.73716 5.88539 5.73727C2.6544 5.73727 0.0351562 6.10549 0.0351562 6.55962C0.0351562 7.01379 2.6544 7.38197 5.88539 7.38197C9.11632 7.38197 11.7355 7.01379 11.7355 6.55962C11.7355 6.2252 10.315 5.93737 8.27578 5.80888Z" fill="#D34A47"/>
<path d="M7.97158 6.96619C7.97158 6.96619 7.85826 6.9916 7.5249 6.99302C7.19145 6.9944 6.95469 6.99086 6.86038 6.90496C6.83502 6.8819 6.82115 6.8361 6.82129 6.8051C6.82157 6.74607 6.86346 6.71129 6.91684 6.68952L6.96732 6.76871C6.94536 6.77629 6.93282 6.78525 6.93278 6.79481C6.93259 6.83964 7.27372 6.87033 7.53464 6.86702C7.7956 6.8638 8.11091 6.8423 8.11118 6.79811C8.11118 6.78475 8.08734 6.77216 8.04586 6.76224L8.09612 6.68359C8.16374 6.70459 8.22276 6.74515 8.22263 6.81534C8.22198 6.93468 8.07012 6.95283 7.97158 6.96619Z" fill="white"/>
<path d="M11.6912 0.698068C11.764 0.613913 11.6535 0.398655 11.4442 0.217344C11.2349 0.0361246 11.0061 -0.0426104 10.9331 0.0415451C10.8602 0.125701 10.9709 0.340959 11.1802 0.522178C11.3894 0.703443 11.6183 0.782269 11.6912 0.698068ZM8.92292 15.0615C8.85425 14.4008 10.3682 13.4438 9.97965 13.4132C9.14324 13.461 8.72696 14.3934 8.30614 15.3699C8.15193 15.7278 7.62426 17.2539 7.27817 17.066C6.93218 16.8782 7.72674 15.6233 7.94944 14.878C7.69247 15.0664 6.75009 15.7986 6.50722 15.1129C6.11676 15.4445 5.28242 15.6242 5.37654 14.7531C5.16882 15.121 4.70261 15.6347 4.14301 15.4213C3.40812 15.141 4.56884 12.8001 4.85746 12.9182C5.14613 13.0362 4.79921 13.5695 4.70835 13.7766C4.50853 14.2323 4.2777 14.8052 4.43191 14.9225C4.69609 15.1234 5.41499 14.1624 5.43098 14.1413C5.56543 13.9636 5.9485 12.8015 6.25724 12.9349C6.56597 13.0684 5.48716 14.6028 5.89053 14.9073C5.97188 14.9688 6.30473 14.8694 6.50722 14.6503C6.63823 14.5086 6.59317 14.1947 7.02989 13.1533C7.4666 12.1118 7.85582 10.8149 8.15533 10.9137C8.45483 11.0124 8.20797 11.6781 8.10053 11.9263C7.59633 13.0909 6.72445 15.0151 7.13563 14.8694C7.54681 14.7238 7.76092 14.7152 8.16355 14.2441C8.56618 13.7729 8.54762 12.9968 8.81598 13.0133C9.08444 13.0298 9.03937 13.2787 8.97428 13.4682C9.23842 13.1659 10.2263 12.5293 10.4648 13.1598C10.7473 13.9062 9.05141 14.9844 9.47425 14.9294C9.88653 14.8758 10.5544 14.4528 10.8396 14.0681L11.6246 7.01111C11.6246 7.01111 10.8347 7.66478 5.80954 7.66478C0.784328 7.66478 0.0761719 7.0247 0.0761719 7.0247L0.744455 13.4661C1.09918 12.4579 1.94151 10.4187 3.26926 10.4872C3.87323 10.5183 4.6795 11.6813 3.98885 11.7207C3.69651 11.7373 3.66684 11.1402 3.32066 11.0525C3.07086 10.9892 2.72307 11.1923 2.49831 11.4123C2.05006 11.851 1.08599 13.5818 1.21337 14.4448C1.37567 15.5449 2.73148 14.0625 2.96089 13.6224C3.12244 13.3123 3.23159 12.3938 3.58493 12.4902C3.93832 12.5865 3.55411 13.5345 3.29797 14.3726C3.01022 15.3137 2.85895 16.3064 2.49831 16.1922C2.13761 16.0781 2.72514 14.8632 2.70387 14.6503C2.36486 14.9631 1.74031 15.755 0.941292 15.363L1.35633 19.3631C1.35633 19.3631 2.4594 20.2346 5.7823 20.2346C9.1052 20.2346 10.2491 19.3767 10.2491 19.3767L10.7645 14.7437C10.3428 15.1543 9.00837 15.8834 8.92292 15.0615Z" fill="#D34A47"/>
</g>
<defs>
<clipPath id="clip0_149_3564">
<rect width="11.76" height="26" fill="white"/>
</clipPath>
</defs>
</svg>
