<svg width="20" height="26" viewBox="0 0 20 26" fill="none" xmlns="http://www.w3.org/2000/svg">
<g clip-path="url(#clip0_149_2604)">
<path d="M19.0767 5.09668L17.4028 23.8484L9.87868 25.9343L2.37526 23.8513L0.703125 5.09668H19.0767Z" fill="#E44D26"/>
<path d="M9.88989 24.3399L15.9698 22.6543L17.4001 6.63013H9.88989V24.3399Z" fill="#F16529"/>
<path d="M6.63586 11.2306H9.88982V8.93042H4.12207L4.1771 9.54751L4.74247 15.8862H9.88982V13.586H6.84609L6.63586 11.2306ZM7.15428 17.0363H4.84524L5.16747 20.6479L9.87923 21.9558L9.88982 21.953V19.5598L9.87974 19.5625L7.31805 18.8708L7.15428 17.0363Z" fill="#EBEBEB"/>
<path d="M2.4126 0H3.58152V1.15488H4.65083V0H5.81982V3.49725H4.6509V2.32617H3.58159V3.49725H2.41267L2.4126 0ZM7.35692 1.15977H6.32801V0H9.55561V1.15977H8.52606V3.49725H7.35714V1.15977H7.35692ZM10.0678 0H11.2867L12.0364 1.22884L12.7854 0H14.0048V3.49725H12.8406V1.76382L12.0364 3.00729H12.0162L11.2115 1.76382V3.49725H10.0678V0ZM14.5865 0H15.7558V2.3413H17.3996V3.49725H14.5864V0H14.5865Z" fill="black"/>
<path d="M9.88191 15.8862H12.7143L12.4473 18.8693L9.88184 19.5618V21.9548L14.5973 20.6479L14.6319 20.2593L15.1725 14.2037L15.2286 13.586H9.88191V15.8862ZM9.88191 11.225V11.2306H15.4379L15.484 10.7136L15.5889 9.54751L15.6438 8.93042H9.88191V11.225Z" fill="white"/>
</g>
<defs>
<clipPath id="clip0_149_2604">
<rect width="18.44" height="26" fill="white" transform="translate(0.669922)"/>
</clipPath>
</defs>
</svg>
