<svg width="35" height="26" viewBox="0 0 35 26" fill="none" xmlns="http://www.w3.org/2000/svg">
<g clip-path="url(#clip0_149_2610)">
<path d="M29.8313 14.9655C28.6253 14.9717 27.577 15.2622 26.6994 15.6916C26.3772 15.0538 26.0552 14.4856 25.9984 14.0687C25.9352 13.5826 25.8595 13.2858 25.9352 12.7048C26.011 12.1239 26.352 11.2966 26.3457 11.2335C26.3394 11.1704 26.2698 10.8736 25.5753 10.8674C24.8807 10.861 24.2808 10.9999 24.2113 11.183C24.1419 11.3661 24.0093 11.7829 23.9209 12.2122C23.8009 12.8438 22.5318 15.0979 21.8057 16.2787C21.5719 15.8179 21.3699 15.4137 21.3256 15.0917C21.2625 14.6055 21.1867 14.3087 21.2625 13.7278C21.3383 13.1468 21.6793 12.3197 21.673 12.2565C21.6666 12.1934 21.5971 11.8965 20.9026 11.8903C20.2079 11.8839 19.608 12.0229 19.5387 12.2059C19.4692 12.3892 19.3934 12.8184 19.2482 13.2353C19.1029 13.6521 17.417 17.4156 16.975 18.3879C16.7963 18.7814 16.609 19.1709 16.413 19.5561C16.413 19.5561 16.4066 19.5751 16.3877 19.6066C16.3261 19.7274 16.263 19.8474 16.1983 19.9665V19.9728C16.1035 20.1434 16.0025 20.3012 15.952 20.3012C15.9141 20.3012 15.8446 19.8466 15.9646 19.2277C16.2172 17.9207 16.8171 15.8874 16.8108 15.8179C16.8108 15.78 16.9244 15.4264 16.4193 15.2432C15.9267 15.0601 15.75 15.3632 15.7057 15.3632C15.6615 15.3632 15.6299 15.4706 15.6299 15.4706C15.6299 15.4706 16.1794 13.1847 14.5817 13.1847C13.5841 13.1847 12.2075 14.2771 11.5255 15.2622C10.7503 15.684 9.97569 16.1071 9.20177 16.5314C8.82937 16.7398 8.44411 16.9482 8.08417 17.1439C8.05885 17.1187 8.03366 17.087 8.00834 17.0619C6.07608 14.997 2.50216 13.5383 2.65369 10.7663C2.71057 9.75599 3.05778 7.10385 9.51756 3.88351C14.8343 1.26293 19.0651 1.98903 19.7976 3.59927C20.8457 5.89783 17.5307 10.1664 12.037 10.7852C9.9406 11.0189 8.84183 10.2106 8.56409 9.90752C8.27362 9.59173 8.22934 9.57277 8.12195 9.63601C7.94523 9.7308 8.05885 10.0149 8.12195 10.179C8.28621 10.6083 8.96181 11.3661 10.1047 11.7388C11.1151 12.067 13.5714 12.2502 16.5455 11.1009C19.8733 9.81273 22.4749 6.23245 21.7109 3.2331C20.9467 0.189479 15.8951 -0.8145 11.1151 0.884031C8.27362 1.89451 5.19208 3.48566 2.97571 5.55685C0.342536 8.01941 -0.0742762 10.1601 0.0962134 11.0568C0.708838 14.2392 5.09742 16.3104 6.85283 17.8448C6.7644 17.8953 6.6822 17.9396 6.61287 17.9775C5.7351 18.4132 2.38841 20.1622 1.55492 22.0124C0.607817 24.1088 1.70659 25.6118 2.43269 25.8137C4.68697 26.4389 7.00436 25.315 8.2483 23.4584C9.49223 21.602 9.3407 19.1898 8.76613 18.0848C8.75977 18.0722 8.75354 18.0595 8.74081 18.0469C8.96817 17.9143 9.20177 17.7754 9.42913 17.6428C9.84701 17.3958 10.2702 17.1578 10.6984 16.9291C10.4836 17.5164 10.3257 18.2174 10.25 19.2277C10.1552 20.4149 10.6414 21.9555 11.2792 22.5617C11.5634 22.8271 11.898 22.8333 12.1128 22.8333C12.8579 22.8333 13.1926 22.2145 13.5652 21.482C14.0198 20.5854 14.4302 19.5435 14.4302 19.5435C14.4302 19.5435 13.9187 22.3598 15.308 22.3598C15.8131 22.3598 16.3245 21.703 16.5519 21.3684V21.3746C16.5519 21.3746 16.5645 21.3556 16.5898 21.3115C16.6403 21.2294 16.6719 21.1788 16.6719 21.1788V21.1663C16.8739 20.8126 17.3287 20.0107 18.0043 18.6783C18.8757 16.9608 19.7155 14.8139 19.7155 14.8139C19.7155 14.8139 19.7913 15.338 20.0501 16.2094C20.2018 16.7209 20.5173 17.2829 20.77 17.8259C20.568 18.1101 20.4416 18.2679 20.4416 18.2679L20.448 18.2742C20.2837 18.4889 20.107 18.7225 19.9112 18.95C19.2229 19.7707 18.4021 20.7117 18.2884 20.9831C18.1557 21.3051 18.1873 21.5389 18.44 21.7283C18.6231 21.8673 18.9514 21.8861 19.2861 21.8673C19.905 21.823 20.3406 21.6714 20.5552 21.5768C20.89 21.4568 21.2815 21.2736 21.6476 21.0021C22.3234 20.5032 22.7337 19.7897 22.6959 18.8489C22.6769 18.3311 22.5065 17.8133 22.298 17.327C22.3613 17.2387 22.418 17.1503 22.4813 17.0619C23.5483 15.5021 24.3756 13.7909 24.3756 13.7909C24.3756 13.7909 24.4514 14.3149 24.7102 15.1865C24.8366 15.6285 25.0955 16.1084 25.3227 16.5756C24.3187 17.3902 23.6999 18.3373 23.4789 18.9562C23.0812 20.1055 23.3905 20.6232 23.9778 20.7432C24.2429 20.8 24.6218 20.6737 24.8997 20.5537C25.2532 20.4401 25.6701 20.2444 26.0679 19.9538C26.7436 19.4551 27.3939 18.7604 27.356 17.8196C27.337 17.3902 27.2234 16.9671 27.0655 16.5566C27.918 16.2032 29.0167 16.0074 30.4184 16.1715C33.4243 16.5251 34.0178 18.4004 33.9041 19.1899C33.7905 19.9791 33.159 20.4085 32.9507 20.5411C32.7422 20.6738 32.6729 20.718 32.6918 20.8126C32.717 20.9516 32.818 20.9453 32.9949 20.92C33.2412 20.8759 34.5736 20.2822 34.6303 18.8299C34.7251 16.9734 32.957 14.9465 29.8313 14.9655ZM6.64442 22.7828C5.64667 23.8688 4.25757 24.2793 3.65767 23.9321C3.01363 23.5594 3.26618 21.9555 4.49116 20.8064C5.23622 20.1055 6.19606 19.4549 6.83387 19.0572C6.97904 18.9688 7.19381 18.8426 7.45272 18.6847C7.49687 18.6594 7.52219 18.6468 7.52219 18.6468L7.67372 18.552C8.12195 20.1938 7.69268 21.6399 6.64442 22.7828ZM13.9061 17.8448C13.5588 18.6911 12.8327 20.8569 12.3907 20.7369C12.0118 20.6359 11.7781 18.9941 12.3149 17.3713C12.5864 16.5566 13.1609 15.5842 13.4957 15.2054C14.0387 14.5992 14.6386 14.397 14.7838 14.6434C14.967 14.9655 14.1208 17.3144 13.9061 17.8448ZM19.8986 20.7116C19.7533 20.7874 19.6145 20.8379 19.5513 20.8C19.5071 20.7747 19.6145 20.6737 19.6145 20.6737C19.6145 20.6737 20.3659 19.8655 20.6626 19.4992C20.8332 19.2846 21.0352 19.032 21.2499 18.7478V18.8299C21.2499 19.7961 20.3153 20.4465 19.8985 20.7116H19.8986ZM24.5208 19.6571C24.4134 19.5813 24.4324 19.3287 24.7923 18.5394C24.9312 18.23 25.2595 17.7123 25.8216 17.2134C25.8847 17.4154 25.929 17.6112 25.9226 17.7943C25.9162 19.0131 25.045 19.4677 24.5208 19.6571Z" fill="#CD6799"/>
</g>
<defs>
<clipPath id="clip0_149_2610">
<rect width="34.67" height="26" fill="white"/>
</clipPath>
</defs>
</svg>
