<svg version="1.2" xmlns="http://www.w3.org/2000/svg" viewBox="0 0 3006 2400" width="3006" height="2400">
	<title>payment-svg</title>
	<style>
		.s0 { fill: #c8e9f1 } 
		.s1 { fill: #e5ebff } 
		.s2 { opacity: .4;fill: #72d6e5 } 
		.s3 { opacity: .3;fill: #ffffff } 
		.s4 { fill: #72d6e5 } 
		.s5 { fill: #ffffff } 
		.s6 { opacity: .2;fill: #fefefe } 
		.s7 { fill: #9ea9e5 } 
		.s8 { fill: #008196 } 
		.s9 { fill: #009fc4 } 
		.s10 { fill: #0a6d77 } 
		.s11 { fill: #f5785c } 
		.s12 { fill: #004f66 } 
		.s13 { fill: #01323d } 
		.s14 { fill: #000000 } 
		.s15 { fill: #840f20 } 
		.s16 { fill: #231f20 } 
		.s17 { fill: #333435 } 
		.s18 { fill: #fc9f7e } 
		.s19 { fill: #ffb699 } 
		.s20 { fill: #ffcab0 } 
		.s21 { fill: #ff9e83 } 
		.s22 { fill: #e97474 } 
		.s23 { fill: #81cb74 } 
		.s24 { fill: #eaa837 } 
		.s25 { fill: #095996 } 
		.s26 { fill: #044768 } 
		.s27 { fill: #444447 } 
		.s28 { fill: #ffa710 } 
		.s29 { fill: #ff6a0d } 
		.s30 { fill: #00d6bc } 
		.s31 { fill: #008c7e } 
		.s32 { fill: #00b1a0 } 
		.s33 { opacity: .5;fill: #ffb699 } 
		.s34 { fill: #0bcbe2 } 
		.s35 { fill: #15def7 } 
		.s36 { opacity: .7;fill: #ffffff } 
		.s37 { fill: #c47c32 } 
	</style>
	<path id="Layer" class="s0" d="m946.9 161.6c0 17.6-11.7 32.4-27.8 37.1-3.4 1-7.1 1.5-10.8 1.5-21.4 0-38.6-17.2-38.6-38.6 0-7 1.9-13.7 5.2-19.4 6.7-11.5 19.1-19.2 33.4-19.2 21.3 0 38.6 17.3 38.6 38.6zm2025 765.7c0 17.6-11.8 32.4-27.8 37.1-3.5 1-7.1 1.6-10.8 1.6-21.4 0-38.7-17.3-38.7-38.7 0-7 1.9-13.7 5.3-19.4 6.6-11.5 19.1-19.2 33.4-19.2 21.3 0 38.6 17.3 38.6 38.6zm-1797.4-765.7c0 39.9-32.3 72.2-72.2 72.2-14.3 0-27.6-4.1-38.8-11.2-20.1-12.9-33.4-35.4-33.4-61 0-25.6 13.3-48.1 33.4-60.9 11.2-7.1 24.5-11.3 38.8-11.3 39.9 0 72.2 32.3 72.2 72.2zm1831 1008.3c0 39.9-32.4 72.2-72.2 72.2-14.3 0-27.6-4.1-38.8-11.2-20.1-12.9-33.4-35.4-33.4-61 0-25.6 13.3-48.1 33.4-60.9 11.2-7.1 24.5-11.3 38.8-11.3 39.8 0 72.2 32.3 72.2 72.2z"/>
	<path id="Layer" class="s1" d="m2028.4 2252.5q0.9 1.6 1.7 3.1c-13.6 1.2-28.3 1.3-1.7-3.1z"/>
	<path id="Layer" class="s0" d="m3005.5 1680.4c-0.3 236-154.2 436-366.9 505.6-52.4 17.1-108.3 26.3-166.4 26.2-24.3 0-48 3-70.8 7.9-65.2 14.2-124.4 44.5-177 67.4-80.8 35.3-146.2 53.2-194.3-31.9 13.1-1 25-3.1-1.7-3.1-118.1-0.2-49.6 44.6-154.3 5.9-85.7-31.7-201.4 63.5-273.9 10.3-69.4 27.4-303.6-61.1-381.2-55-56.8 222.1-411.1 12.6-659.3-3q-13.9-0.9-27.3-0.9c-294.1-0.4-532.2-239.2-531.9-533.3 0.3-187.2 97.1-351.7 243.3-446.5-14.8-59.7-22.6-122.2-22.5-186.4 0.2-186.2 66.7-356.9 177.2-489.6 110.9-133.3 266.1-228.4 443-262.8 47.9-9.3 97.5-14.1 148.1-14.1 54.6 0.1 107.8 5.9 159.2 16.8 47.8-49 100.8-93 158-131.2 154.6-103 340.4-163 540.2-162.7 537.6 0.7 972.9 437 972.2 974.6-0.1 93.9-13.5 184.6-38.4 270.5 136.1 96.6 224.9 255.6 224.7 435.3z"/>
	<path id="Layer" fill-rule="evenodd" class="s2" d="m2666.4 1577.7c-13.5 14-47.5 57.7-35.8 99.3 8.4 29.9 20.4 82.2 9.2 110.6-5.1 12.9-14.1 29.3-32 46.8-0.2 8.9-1.2 17.7-4.3 25.8 3.8 1.1 7.5 2.6 10.9 4.6 14.4 8.4 24.2 24 24.2 41.9v297.6c0 47.3-27.7 88.2-67.7 107.4h23.5v19.7h-149.9v-19.7h23.4c-26.4-12.7-47.4-34.8-58.6-62-3.9-9.4-6.6-19.2-7.9-29.6q-1.1-7.8-1.1-15.8v-297.6c0-26.5 21.3-48 47.7-48.3q-0.6-3.1-1.1-6.2c-2.5-15.6-3.1-32.8-13.5-44.8-6.3-7.2-15.5-11.4-22.3-18.3-10.9-10.9-14.4-27.4-13.7-42.8 0.8-15.4 5.1-30.4 7.7-45.6 7.2-42.4 0.3-87.1-19.4-125.3q-0.5-1-1.1-2.1l-115.1 513.3-45.1 200.9-2.4 11c-1.1 17.9-15.9 31.9-33.8 31.9h-1216.6c-19 9-65.1 28.6-104.4 28.8-23.6 0.1-40.1-5.6-55-11.8-19.3 6.4-41.5 11.7-61.9 11.8-9 0-16.9-0.8-24.1-2.1l-42.5 0.2c-2.4 0-4.4-3.4-4.4-7.5l-0.1-9.3c-11.2-4.6-22.7-8.5-37-9q-2.6-0.1-5.2-0.2l0.1 18.1c0 4.2-2 7.6-4.4 7.6l-65.9 0.3c-2.4 0-4.4-3.4-4.5-7.5l-0.1-30.8q-0.4-0.2-0.8-0.5c-6.3-3.6-10-8.4-10.1-14.7-0.1-19.9 0.7-43 7.4-56.2 0.6-1.3 2.2-1.6 3.3-0.8q0.6 0.4 1.2 0.8l-3.5-36.9-33.8-353.7-8-84h-37.1l19-367.1v-0.3l5.9-113.2 2.3-44.5c-60.4-34.6-89.7-107.2-68.2-175l41.6-125.4-2.9-1c-5.7-1.8-8.9-7.9-7.1-13.6l35.5-111.4c4.7-14.6 13.6-26.8 24.9-35.5l0.1-1.5 1.2-23.7c1-19.8 9.6-37.4 22.7-50.2q5.6 6.5 12.1 12.1c0.4 0.4 0.8 0.7 1.2 1.1-4.3-4.1-8.3-8.5-11.9-13.2q12.9-4.7 26.4-8v-9.8c-15.1-14.9-25.8-34.3-30.2-55.7q-5.8-2.3-12.2-5.4-8.9-4.3-17.2-9.7c-26.8-17.2-48.7-42.3-61.3-71.5-2.9-6.6-5.2-13.6-7.1-20.6q-0.6 0.2-1.1 0.5-1.1 0.5-2.1 0.9c-19.6 9-37.7 16.6-53.9 22.7 110.9-133.3 266.1-228.4 443-262.8-16.2 13.6-35.1 28.3-56.2 43.7q-2.3 1.7-4.6 3.4-0.8 0.5-1.6 1.1 1.2 1.7 2.5 3.4c3.3 4.5 6.5 9.5 9.4 14.7 27.2 47.6 37.8 119.4-12.7 153.4l-10 113.9c-3.1 35.5-22.9 65.6-51 83q1.8 1.3 3.5 2.7 1.6-1.9 3.1-3.9c33.6 12.3 63.8 31.2 89.2 55.1 7.7 5.4 14.4 12.2 19.7 20.7 37.8 44.5 60.9 101.9 61.8 164.4l0.5 34.2c3.3 17.5 6.5 35.1 10.6 52.5-1.6-6.8 18.4-24.9 35-39v-122.1c0-34.3 27.8-62 62.1-62h103.1q2.3-5.5 4.6-11.1 0.7-1.6 1.4-3.2l-5.4-4.2c-3.2-2.4-4.4-6.5-3.4-10.1 0.3-1.2 0.8-2.4 1.6-3.4l21-27.5 26.2-34.4 2.5-3.2 46.4-60.8c3.2-4.2 9.3-5 13.5-1.8l45.7 34.9 16.8 12.8c4.2 3.2 5 9.3 1.8 13.5l-19.5 25.5-4 5.3c3.9 5.3 7.2 12 9.6 20.3 1.4 5 1.4 8.2 1.4 13.4-0.2 12.5-2.9 23.7-7.3 34h275.7c35.6 0 64.4 28.8 64.4 64.3v103.5c9.4 1.4 18.7 3.1 26.3 5.4 7.7-2 16-2.6 24.5-1.5l17.3 2.3 3.7-2.5c5.7-4 10.7-8.8 14.9-14.3l57.1-74.4c14.1-40.7 35-78.4 61.6-111.4 27.6-34.2 61.2-63.5 99.6-86.2-2.9-5.5-2.3-12.3 1.9-17.3l1.3-1.6 0.6-4.2 2.7 0.4 21.4-25.4 6.2 7-0.3-4.7c-2-0.7-4-1.5-5.9-2.3-46.4-20.1-76.4-68.8-70.5-121.7l5.5-50.6c-21-34.5-29.5-76.4-24-116.4-0.8-2.9-1.4-5.9-1.8-9.1q-0.5-3.6-0.5-7.3c-0.6-22.9 9.3-46.5 26.1-61.9 24.5-22.5 61.7-28.7 93.6-19q4.9 1.5 9.6 3.4c10.6 4.3 20.8 9.7 31 14.9 26.3 13.2 53.4 24.8 81.1 34.6 46.6 16.5 75.9 61.8 72.9 109.7q-0.1 1.6-0.2 3.2 0 0.1 0 0.1-0.1 0.6-0.1 1.3-0.7 6.8-2.3 13.6-0.1 0.5-0.3 1c-2.7 11.4-7.5 21.9-14 31.4-6 8.7-13.3 16.5-21.6 23.4-0.9 0.8-5.5 4.7-11.1 9 2.2-0.3 4.4-0.3 6.7-0.1q0.4 0 0.8 0.1 0.5 0.1 1 0.2 0.5 0.1 1 0.2 0.5 0.1 1 0.2 0.7 0.2 1.4 0.4 0.4 0.1 0.8 0.2 0.3 0.1 0.6 0.3 0.5 0.1 0.9 0.3 0.2 0 0.3 0.1 1 0.4 2 0.9 2.8 1.5 5.2 3.4 0 0 0 0 0.5 0.4 1.1 0.9 0.4 0.4 0.8 0.8 1.1 1.1 2.1 2.3 0.1 0.2 0.2 0.3 0.2 0.2 0.3 0.3c4.4 5.7 6.7 13 5.8 20.7-1.1 10.1-7.3 18.4-15.8 22.6-4.7 2.3-10.1 3.4-15.8 2.8-3.7-0.5-7.2-1.6-10.3-3.2-4.4 23.2-15.4 43.7-30.8 59.8l0.8 13.3 0.4-0.1 6.6 44q0.1 0 0.2 0 1.4-0.5 2.8-1.1c24.9 3.7 43.8 24.3 45.3 49.5l11.8 197.5 25.2 13c8.2-4 17-7.4 26.4-10.1l66.6 65 60.1-2c0 0-2.8 7.8-6.1 20.4l44.3 12.1c0 0-35.3 46.2-45 98.6h24.8v214.2c0 23.8-19.3 43-43 43h-47.7c-23.8 0-43-19.2-43-43v-214.2h7.1c-6.4-14.9-11.3-31.2-13.5-48.3-15.4 13.8-29.4 29.9-38.9 48.3h1.8v122.4l8 134.9h167.5c2.3-5.8 5.2-11.3 9.3-16 11.2-12.7 29.7-16.7 46.6-15.5 9 0.6 17.9 2.4 26.4 5.3 3-10.9 8.2-21 16.1-29.3 25-26.1 68.6-24.3 99-5.1 10.4 6.6 19.6 14.7 27.9 23.8 5.4-11.5 12.3-22.3 20.8-32 11.7-13.3 28.7-25 46.8-21.7 17 3.2 28.6 18.4 37.1 33 22.8 39.4 48.8 79 55.1 123.2 3.2 23.2-1.9 88.6-45.7 134zm-1725.6-412q-6.2 3.4-12.6 6.3c28.6 26.3 37.6 66.2 25.9 101.1 13.7 3.6 24.8 11.9 30.2 29.5 8.7 28.2-12.7 53.9-32.7 72.5q-0.1 0.2-0.3 0.3-1.4 1.3-2.8 2.6h792l0.1-0.4h-724.7c-8.2 0-14.9-6.6-14.9-14.9v-5.2c0-8.2 6.7-14.9 14.9-14.9h138v-116.4h-151.1c-33.8 0-61.2-27-62-60.5zm780.6 187.9v1.9h17.2v-1.9c0-5.1 3.5-9.4 8.2-10.6-41.3-48.2-63.2-112-57.4-178.3q0.1-0.8 0.2-1.6 1-10.7 2.9-21.4l2.3-12.5-130.8 91.2c-20.4 14.2-45.8 15.5-66.8 5.8h-230.1v116.4h356.5c6.1 0 11 4.9 11 11v1.9h17.1v-1.9c0-6.1 5-11 11-11h4.3c6.1 0 11 4.9 11 11v1.9h17.2v-1.9c0-6.1 4.9-11 11-11h4.2c6.1 0 11 4.9 11 11z"/>
	<path id="Layer" class="s2" d="m1614.2 401.6c-5.8-45.3-33.1-82.7-70.6-103.3-13.2-8.3-28.1-14.4-44.2-17.8l-1.3 2.2q-0.1-0.1-0.3-0.1-2.5-0.4-5-0.7-0.8-0.1-1.5-0.1-0.2-0.1-0.5-0.1-0.7-0.1-1.4-0.1-3.5-0.4-7-0.5-1.3-0.1-2.7-0.1-0.9 0-1.8 0-0.6-0.1-1.3-0.1-1.1 0-2.1 0-0.6 0.1-1.1 0.1-1.5 0-3 0.1-0.9 0-1.7 0-5.3 0.3-10.6 1-1 0.1-2 0.3-1.2 0.1-2.4 0.3-1.2 0.2-2.5 0.4-3.4 0.6-6.8 1.4-0.8 0.2-1.6 0.4-0.8 0.2-1.6 0.4-2 0.5-4 1-0.8 0.3-1.6 0.5-1.5 0.4-2.9 0.9-0.7 0.2-1.3 0.4-0.8 0.3-1.6 0.6-0.6 0.2-1.1 0.3-0.6 0.2-1.2 0.5-3.1 1.1-6.1 2.3-0.5 0.3-1 0.5-0.8 0.3-1.5 0.7-6.9 3-13.3 6.7-0.7 0.3-1.3 0.7-0.8 0.5-1.6 1-0.5 0.3-1 0.6-3 1.8-5.9 3.8-0.6 0.5-1.3 0.9-0.7 0.5-1.3 1-0.7 0.5-1.3 1-0.6 0.4-1.2 0.9-0.3 0.2-0.7 0.4-0.6 0.5-1.2 1-0.5 0.4-1 0.8-0.5 0.4-1.1 0.9-1.2 1-2.5 2.1-0.6 0.5-1.2 1-0.6 0.6-1.2 1.1-0.6 0.5-1.2 1.1-0.6 0.5-1.2 1.1-0.8 0.7-1.5 1.4-0.4 0.4-0.8 0.9-0.6 0.5-1.2 1.1-0.6 0.6-1.1 1.2-2.3 2.3-4.4 4.7-4.3 4.9-8.1 10.1-0.5 0.6-1 1.3-0.9 1.3-1.8 2.6-0.9 1.4-1.8 2.7-0.4 0.7-0.8 1.4-0.3 0.3-0.5 0.6-0.2 0.4-0.4 0.8-0.4 0.6-0.7 1.1-0.2 0.4-0.5 0.8-0.6 1.1-1.3 2.2-0.4 0.7-0.7 1.5-4.3 7.7-7.6 16.1-0.3 0.7-0.6 1.5-0.7 1.8-1.3 3.6-0.2 0.5-0.3 1-3.2 9.2-5 19-0.1 0.6-0.2 1.2-0.3 1.3-0.4 2.7-0.2 0.8-0.3 1.6-0.2 1.3-0.3 2.6-0.1 0.9-0.2 1.7-0.4 3.4-0.6 6.8-0.1 0.8-0.1 1.5 0 0.8-0.1 1.7 0 0.9 0 1.9 0 0.7 0 1.4-0.1 1.1 0 2.1 0 0.7 0 1.3 0 0.9 0 1.7 0 0.9 0.1 1.7 0 0.9 0 1.7 0.1 1.7 0.2 3.4 0.1 1 0.2 2.1 0.1 1.5 0.3 3.1 0.1 0.9 0.2 1.9 0.9 6.5 2.3 12.7c4.7 21.2 14.3 40.3 27.3 56.4l-1.3 2.2q0.3 0.3 0.6 0.6 0.4 0.5 0.9 1.1 0.2 0.3 0.5 0.6 0.9 1 1.8 1.9 0.5 0.6 1.1 1.2 6 6.5 12.9 12.2 0.7 0.6 1.3 1.1 1.5 1.2 3.1 2.4 0.3 0.3 0.8 0.6 7.8 5.8 16.5 10.6 0.5 0.3 1.1 0.6 1.1 0.6 2.4 1.2 0.7 0.4 1.5 0.8 1.2 0.5 2.3 1.1 0.8 0.3 1.5 0.7 3.1 1.4 6.3 2.7 0.7 0.2 1.5 0.5 0.7 0.3 1.5 0.6 0.9 0.3 1.8 0.6 0.7 0.3 1.4 0.5 1 0.3 1.9 0.6 0.7 0.3 1.3 0.5 0.8 0.2 1.6 0.4 0.8 0.3 1.7 0.5 0.8 0.3 1.6 0.5 1.6 0.4 3.2 0.8h0.1q1 0.3 2 0.5 1.5 0.4 3.1 0.7 0.9 0.2 1.8 0.3 6.4 1.3 12.9 1.9v-0.1c11.6 1.4 23.6 1.5 35.8 0 38.2-4.9 70.8-24.5 92.8-52.4 21.6-27.4 32.8-62.8 28.8-99.9q-0.2-1.2-0.3-2.4zm421.2 0c-5.7-45.3-33-82.7-70.5-103.3-13.3-8.3-28.1-14.4-44.3-17.8l-1.2 2.2q-0.2-0.1-0.3-0.1-2.6-0.4-5.1-0.7-0.7-0.1-1.5-0.1-0.2-0.1-0.4-0.1-0.7-0.1-1.5-0.1-3.4-0.4-6.9-0.5-1.4-0.1-2.7-0.1-0.9 0-1.8 0-0.7-0.1-1.3-0.1-1.1 0-2.2 0-0.5 0.1-1 0.1-1.6 0-3.1 0.1-0.8 0-1.7 0-5.2 0.3-10.5 1-1 0.1-2.1 0.3-1.1 0.1-2.3 0.3-1.2 0.2-2.5 0.4-3.4 0.6-6.8 1.4-0.8 0.2-1.6 0.4-0.8 0.2-1.7 0.4-2 0.5-3.9 1-0.8 0.3-1.6 0.5-1.5 0.4-3 0.9-0.6 0.2-1.3 0.4-0.8 0.3-1.6 0.6-0.5 0.2-1 0.3-0.6 0.2-1.2 0.5-3.1 1.1-6.1 2.3-0.5 0.3-1.1 0.5-0.7 0.3-1.5 0.7-6.9 3-13.3 6.7-0.6 0.3-1.2 0.7-0.8 0.5-1.6 1-0.5 0.3-1 0.6-3 1.8-5.9 3.8-0.7 0.5-1.3 0.9-0.7 0.5-1.4 1-0.6 0.5-1.3 1-0.6 0.4-1.2 0.9-0.3 0.2-0.6 0.4-0.7 0.5-1.3 1-0.5 0.4-1 0.8-0.5 0.4-1 0.9-1.3 1-2.5 2.1-0.6 0.5-1.2 1-0.6 0.6-1.3 1.1-0.6 0.5-1.2 1.1-0.6 0.5-1.1 1.1-0.8 0.7-1.5 1.4-0.5 0.4-0.9 0.9-0.6 0.5-1.1 1.1-0.6 0.6-1.2 1.2-2.2 2.3-4.3 4.7-4.3 4.9-8.1 10.1-0.5 0.6-1 1.3-0.9 1.3-1.8 2.6-1 1.4-1.8 2.7-0.5 0.7-0.9 1.4-0.2 0.3-0.4 0.6-0.2 0.4-0.4 0.8-0.4 0.6-0.8 1.1-0.2 0.4-0.4 0.8-0.7 1.1-1.3 2.2-0.4 0.7-0.8 1.5-4.3 7.7-7.6 16.1-0.3 0.7-0.5 1.5-0.7 1.8-1.4 3.6-0.1 0.5-0.3 1-3.1 9.2-4.9 19-0.1 0.6-0.3 1.2-0.2 1.3-0.4 2.7-0.1 0.8-0.2 1.6-0.2 1.3-0.4 2.6-0.1 0.9-0.2 1.7-0.3 3.4-0.6 6.8 0 0.8 0 1.5-0.1 0.8-0.1 1.7 0 0.9-0.1 1.9 0 0.7 0 1.4 0 1.1 0 2.1 0 0.7 0 1.3 0 0.9 0.1 1.7 0 0.9 0 1.7 0 0.9 0.1 1.7 0.1 1.7 0.2 3.4 0.1 1 0.2 2.1 0.1 1.5 0.3 3.1 0.1 0.9 0.2 1.9 0.8 6.5 2.2 12.7c4.8 21.2 14.3 40.3 27.4 56.4l-1.3 2.2q0.3 0.3 0.5 0.6 0.5 0.5 0.9 1.1 0.3 0.3 0.6 0.6 0.9 1 1.7 1.9 0.6 0.6 1.1 1.2 6.1 6.5 13 12.2 0.6 0.6 1.3 1.1 1.5 1.2 3 2.4 0.4 0.3 0.8 0.6 7.8 5.8 16.5 10.6 0.6 0.3 1.1 0.6 1.2 0.6 2.4 1.2 0.8 0.4 1.5 0.8 1.2 0.5 2.4 1.1 0.8 0.3 1.5 0.7 3.1 1.4 6.3 2.7 0.7 0.2 1.4 0.5 0.8 0.3 1.6 0.6 0.9 0.3 1.8 0.6 0.7 0.3 1.4 0.5 0.9 0.3 1.9 0.6 0.6 0.3 1.3 0.5 0.8 0.2 1.6 0.4 0.8 0.3 1.6 0.5 0.8 0.3 1.7 0.5 1.6 0.4 3.2 0.8h0.1q1 0.3 1.9 0.5 1.6 0.4 3.1 0.7 0.9 0.2 1.9 0.3 6.4 1.3 12.8 1.9l0.1-0.1c11.6 1.4 23.6 1.5 35.8 0 38.2-4.9 70.8-24.5 92.7-52.4 21.6-27.4 32.9-62.8 28.8-99.9q-0.1-1.2-0.3-2.4zm421.6 2.4q-0.1-1.2-0.3-2.4c-5.7-45.3-33.1-82.7-70.5-103.3-13.3-8.3-28.2-14.4-44.3-17.8l-1.3 2.2q-0.1-0.1-0.3-0.1-2.5-0.4-5-0.7-0.8-0.1-1.5-0.1-0.2-0.1-0.4-0.1-0.8-0.1-1.5-0.1-3.5-0.4-7-0.5-1.3-0.1-2.7-0.1-0.9 0-1.8 0-0.6-0.1-1.3-0.1-1 0-2.1 0-0.6 0.1-1.1 0.1-1.5 0-3 0.1-0.9 0-1.7 0-5.3 0.3-10.5 1-1.1 0.1-2.1 0.3-1.2 0.1-2.3 0.3-1.3 0.2-2.5 0.4-3.5 0.6-6.8 1.4-0.9 0.2-1.7 0.4-0.8 0.2-1.6 0.4-2 0.5-4 1-0.8 0.3-1.6 0.5-1.5 0.4-2.9 0.9-0.7 0.2-1.3 0.4-0.8 0.3-1.6 0.6-0.5 0.2-1.1 0.3-0.6 0.2-1.2 0.5-3 1.1-6.1 2.3-0.5 0.3-1 0.5-0.8 0.3-1.5 0.7-6.9 3-13.3 6.7-0.7 0.3-1.3 0.7-0.8 0.5-1.6 1-0.5 0.3-1 0.6-3 1.8-5.8 3.8-0.7 0.5-1.4 0.9-0.6 0.5-1.3 1-0.7 0.5-1.3 1-0.6 0.4-1.2 0.9-0.3 0.2-0.6 0.4-0.7 0.5-1.3 1-0.5 0.4-1 0.8-0.5 0.4-1.1 0.9-1.2 1-2.5 2.1-0.6 0.5-1.2 1-0.6 0.6-1.2 1.1-0.6 0.5-1.2 1.1-0.6 0.5-1.2 1.1-0.7 0.7-1.5 1.4-0.4 0.4-0.8 0.9-0.6 0.5-1.2 1.1-0.5 0.6-1.1 1.2-2.3 2.3-4.4 4.7-4.3 4.9-8.1 10.1-0.5 0.6-0.9 1.3-1 1.3-1.9 2.6-0.9 1.4-1.8 2.7-0.4 0.7-0.8 1.4-0.2 0.3-0.4 0.6-0.3 0.4-0.5 0.8-0.3 0.6-0.7 1.1-0.2 0.4-0.4 0.8-0.7 1.1-1.3 2.2-0.4 0.7-0.8 1.5-4.3 7.7-7.6 16.1-0.3 0.7-0.6 1.5-0.7 1.8-1.3 3.6-0.2 0.5-0.3 1-3.2 9.2-5 19-0.1 0.6-0.2 1.2-0.2 1.3-0.4 2.7-0.2 0.8-0.3 1.6-0.2 1.3-0.3 2.6-0.1 0.9-0.2 1.7-0.4 3.4-0.6 6.8 0 0.8-0.1 1.5 0 0.8 0 1.7-0.1 0.9-0.1 1.9 0 0.7 0 1.4 0 1.1 0 2.1 0 0.7 0 1.3 0 0.9 0 1.7 0 0.9 0.1 1.7 0 0.9 0 1.7 0.1 1.7 0.2 3.4h0.1q0 1 0.1 2.1 0.2 1.5 0.3 3.1 0.1 0.9 0.3 1.9 0.8 6.5 2.2 12.7c4.7 21.2 14.3 40.3 27.3 56.4l-1.3 2.2q0.3 0.3 0.6 0.6 0.4 0.5 0.9 1.1 0.3 0.3 0.5 0.6 0.9 1 1.8 1.9 0.5 0.6 1.1 1.2 6.1 6.5 13 12.2 0.6 0.6 1.2 1.1 1.5 1.2 3.1 2.4 0.4 0.3 0.8 0.6 7.8 5.8 16.5 10.6 0.5 0.3 1.1 0.6 1.2 0.6 2.4 1.2 0.7 0.4 1.5 0.8 1.2 0.5 2.4 1.1 0.7 0.3 1.5 0.7 3.1 1.4 6.3 2.7 0.7 0.2 1.4 0.5 0.7 0.3 1.5 0.6 0.9 0.3 1.8 0.6 0.7 0.3 1.4 0.5 1 0.3 1.9 0.6 0.7 0.3 1.3 0.5 0.8 0.2 1.6 0.4 0.9 0.3 1.7 0.5 0.8 0.3 1.6 0.5 1.6 0.4 3.3 0.8 1 0.3 2 0.5 1.5 0.4 3.1 0.7 0.9 0.2 1.8 0.3 6.5 1.3 12.9 1.9l0.1-0.1c11.6 1.4 23.6 1.5 35.7 0 38.2-4.9 70.8-24.5 92.8-52.4 21.6-27.4 32.8-62.8 28.8-99.9z"/>
	<path id="Layer" class="s3" d="m1764.7 1128.3c0 284.7-95.2 547.2-255.5 757.4-85.7-31.6-165.8-75.1-238.3-128.3-69.3 27.4-143.6 45-221.2 51-55.2 215.9-242.2 378.9-470.1 398.3q-23 2-46.5 1.9c-294.1-0.3-532.3-239.1-531.9-533.2 0.1-96.5 25.9-187 70.9-265.1q1.8-2.9 3.5-5.9c41.9-70.4 99.5-130.4 168.1-175q0.4-0.3 0.8-0.5c-14.8-59.7-22.6-122.2-22.6-186.5 0.2-140.5 38.1-272.1 104.2-385.3q2.1-3.6 4.2-7.1c18.4-30.8 39-60.2 61.4-88.1 115.7-143.4 282-244.3 471.7-275.6 41.3-6.8 83.7-10.3 126.9-10.3 54.6 0.1 107.8 5.9 159.2 16.8 47.8-49.1 100.7-93.1 157.9-131.2q0.3 0.2 0.5 0.4c41.6 34.2 81 71.1 117.9 110.4q6.8 7.2 13.5 14.5 0.4 0.5 0.8 0.9c20.2 22.3 39.6 45.2 58.2 68.9q6.2 7.9 12.2 15.8 4.7 6.1 9.2 12.3 21.5 29 41.4 59.3c128.7 196.6 203.6 431.7 203.6 684.2z"/>
	<g id="Layer">
		<path id="Layer" class="s4" d="m1408.2 273.5q5.3-0.7 10.5-0.9 0.9-0.1 1.7-0.1 1.6-0.1 3.1-0.1 0.5 0 1 0 1.1 0 2.2 0 0.6 0 1.3 0 0.9 0 1.8 0 1.3 0.1 2.7 0.1 3.5 0.2 6.9 0.5 0.8 0.1 1.5 0.1 0.2 0.1 0.5 0.1 0.7 0.1 1.4 0.2 2.6 0.3 5.1 0.7 1.6 0.2 3.3 0.5 1.2 0.2 2.5 0.5 0.8 0.2 1.6 0.3 0.9 0.2 1.9 0.4 0.9 0.2 1.8 0.5 0.9 0.2 1.8 0.4 1 0.2 1.9 0.5c52.8 14.2 94.3 58.7 101.6 115.8q0.1 1.2 0.2 2.5c4.1 37-7.2 72.4-28.7 99.8-22 27.9-54.6 47.6-92.8 52.4-46.9 5.9-91.3-11.8-120.9-43.9-15.9-17.3-27.5-38.7-32.9-62.8q-1.5-6.3-2.3-12.8-0.1-0.9-0.2-1.9-0.2-1.5-0.3-3.1-0.1-1-0.2-2v-0.1q-0.1-1.7-0.2-3.3 0-0.9-0.1-1.7 0-0.9 0-1.7-0.1-0.9-0.1-1.7 0-0.7 0-1.4 0-1 0-2 0-0.7 0.1-1.5 0-0.9 0-1.9 0-0.8 0.1-1.7 0-0.7 0.1-1.5 0.2-3.4 0.5-6.8 0.1-0.8 0.2-1.6 0.2-1.3 0.4-2.6 0.1-0.9 0.2-1.7 0.2-1.3 0.5-2.7 0.1-0.6 0.2-1.2 1.8-9.7 4.9-19 0.2-0.5 0.4-0.9 0.6-1.9 1.3-3.7 0.3-0.7 0.6-1.5 3.2-8.3 7.5-16.1 0.4-0.7 0.8-1.4 0.7-1.2 1.3-2.3 0.2-0.3 0.5-0.7 0.3-0.6 0.7-1.2 0.2-0.4 0.4-0.7 0.2-0.3 0.4-0.7 0.5-0.7 0.9-1.3 0.9-1.4 1.8-2.7 0.9-1.4 1.8-2.7 0.5-0.6 1-1.3 3.8-5.2 8.1-10.1 2.1-2.4 4.4-4.7 0.5-0.6 1.1-1.2 0.6-0.5 1.1-1.1 0.5-0.4 0.9-0.8 0.7-0.8 1.5-1.5 0.6-0.5 1.2-1.1 0.6-0.5 1.2-1.1 0.6-0.5 1.2-1 0.6-0.6 1.2-1.1 1.2-1.1 2.5-2.1 0.5-0.4 1.1-0.9 0.4-0.3 0.9-0.7 0.7-0.5 1.3-1 0.3-0.3 0.6-0.5 0.6-0.5 1.2-0.9 0.7-0.5 1.4-1 0.6-0.4 1.3-0.9 0.6-0.5 1.3-1 2.9-1.9 5.9-3.8 0.5-0.3 1-0.6 0.8-0.5 1.6-0.9 0.6-0.4 1.2-0.8 6.5-3.7 13.3-6.7 0.8-0.3 1.5-0.7 0.6-0.2 1.1-0.4 3-1.3 6.1-2.4 0.6-0.2 1.2-0.4 0.5-0.2 1-0.4 0.8-0.3 1.6-0.5 0.7-0.2 1.3-0.5 1.5-0.4 3-0.9 0.8-0.2 1.6-0.4 2-0.6 4-1.1 0.8-0.2 1.6-0.4 0.8-0.2 1.6-0.4 3.4-0.7 6.8-1.3 1.3-0.3 2.5-0.5 1.2-0.2 2.4-0.3 1-0.2 2-0.3z"/>
		<path id="Layer" class="s0" d="m1408.2 273.5q5.3-0.7 10.5-0.9 0.9-0.1 1.7-0.1 1.6-0.1 3.1-0.1 0.5 0 1 0 1.1 0 2.2 0 0.6 0 1.3 0 0.9 0 1.8 0 1.3 0.1 2.7 0.1 3.5 0.2 6.9 0.5 0.8 0.1 1.5 0.1 0.2 0.1 0.5 0.1 0.7 0.1 1.4 0.2 2.6 0.3 5.1 0.7 1.6 0.2 3.3 0.5 1.2 0.2 2.5 0.5 0.8 0.2 1.6 0.3 0.9 0.2 1.9 0.4 0.9 0.2 1.8 0.5 0.9 0.2 1.8 0.4 1 0.2 1.9 0.5c18.7 20.3 31.5 46.3 35.2 75.6 1.2 9.5 1.4 18.9 0.7 28.1-3 37.6-21.4 71.8-49.7 95.3-19.9 16.5-44.6 27.8-72.3 31.3-18.8 2.4-37.2 1-54.5-3.7-15.9-17.3-27.5-38.7-32.9-62.8q-1.5-6.3-2.3-12.8-0.1-0.9-0.2-1.9-0.2-1.5-0.3-3.1-0.1-1-0.2-2v-0.1q-0.1-1.7-0.2-3.3 0-0.9-0.1-1.7 0-0.9 0-1.7-0.1-0.9-0.1-1.7 0-0.7 0-1.4 0-1 0-2 0-0.8 0.1-1.5 0-0.9 0-1.9 0-0.8 0.1-1.7 0-0.7 0.1-1.5 0.2-3.4 0.5-6.8 0.1-0.8 0.2-1.6 0.2-1.3 0.4-2.6 0.1-0.9 0.2-1.7 0.2-1.3 0.5-2.7 0.1-0.6 0.2-1.2 1.8-9.7 4.9-19 0.2-0.5 0.4-0.9 0.6-1.9 1.3-3.7 0.3-0.7 0.6-1.5 3.2-8.3 7.5-16.1 0.4-0.7 0.8-1.4 0.7-1.2 1.3-2.3 0.2-0.3 0.5-0.7 0.3-0.6 0.7-1.2 0.2-0.4 0.4-0.7 0.2-0.3 0.4-0.7 0.5-0.7 0.9-1.3 0.9-1.4 1.8-2.7 0.9-1.4 1.8-2.7 0.5-0.6 1-1.3 3.8-5.2 8.1-10.1 2.1-2.4 4.4-4.7 0.5-0.6 1.1-1.2 0.6-0.5 1.1-1.1 0.5-0.4 0.9-0.8 0.7-0.8 1.5-1.5 0.6-0.5 1.2-1.1 0.6-0.5 1.2-1.1 0.6-0.5 1.2-1 0.6-0.6 1.2-1.1 1.2-1.1 2.5-2.1 0.5-0.4 1.1-0.9 0.4-0.3 0.9-0.7 0.7-0.5 1.3-1 0.3-0.3 0.6-0.5 0.6-0.5 1.2-0.9 0.7-0.5 1.3-1 0.7-0.4 1.4-0.9 0.6-0.5 1.3-1 2.9-1.9 5.9-3.8 0.5-0.3 1-0.6 0.8-0.5 1.6-0.9 0.6-0.4 1.2-0.8 6.5-3.7 13.3-6.7 0.8-0.3 1.5-0.7 0.6-0.2 1.1-0.4 3-1.3 6.1-2.4 0.6-0.2 1.2-0.4 0.5-0.2 1-0.4 0.8-0.3 1.6-0.5 0.7-0.2 1.3-0.5 1.5-0.4 3-0.9 0.8-0.2 1.6-0.4 2-0.6 4-1.1 0.8-0.2 1.6-0.4 0.8-0.2 1.6-0.4 3.4-0.7 6.8-1.3 1.3-0.3 2.5-0.5 1.2-0.2 2.4-0.3 1-0.2 2-0.3z"/>
		<path id="Layer" class="s5" d="m1408.2 273.5q5.3-0.7 10.5-0.9 0.9-0.1 1.7-0.1 1.6-0.1 3.1-0.1 0.5 0 1 0 1.1 0 2.2 0 0.6 0 1.3 0 0.9 0 1.8 0 1.3 0.1 2.7 0.1c6.9 12.4 11.6 26.2 13.5 41.1 2.4 19 0 37.5-6.4 54.3-14.6 38.9-50 68.7-94.5 74.4-15.6 2-31 0.8-45.3-3.1-5.1-5.5-9.6-11.6-13.6-18v-0.1q-0.1-1.7-0.2-3.3 0-0.9-0.1-1.7 0-0.9 0-1.7-0.1-0.9-0.1-1.7 0-0.7 0-1.4 0-1 0-2 0-0.8 0.1-1.5 0-0.9 0-1.9 0-0.8 0.1-1.7 0-0.7 0.1-1.5 0.2-3.4 0.5-6.8 0.1-0.8 0.2-1.6 0.2-1.3 0.4-2.6 0.1-0.9 0.2-1.7 0.2-1.3 0.5-2.7 0.1-0.6 0.2-1.2 1.8-9.7 4.9-19 0.2-0.5 0.4-0.9 0.6-1.9 1.3-3.7 0.3-0.7 0.6-1.5 3.2-8.3 7.5-16.1 0.4-0.7 0.8-1.4 0.7-1.2 1.3-2.3 0.2-0.3 0.5-0.7 0.3-0.6 0.7-1.2 0.2-0.4 0.4-0.7 0.2-0.3 0.4-0.7 0.5-0.7 0.9-1.3 0.9-1.4 1.8-2.7 0.9-1.4 1.8-2.7 0.5-0.6 1-1.3 3.8-5.2 8.1-10.1 2.1-2.4 4.4-4.7 0.5-0.6 1.1-1.2 0.6-0.5 1.1-1.1 0.5-0.4 0.9-0.8 0.7-0.8 1.5-1.5 0.6-0.5 1.2-1.1 0.6-0.5 1.2-1.1 0.6-0.5 1.2-1 0.6-0.6 1.2-1.1 1.2-1.1 2.5-2.1 0.5-0.4 1.1-0.9 0.4-0.3 0.9-0.7 0.7-0.5 1.3-1 0.3-0.3 0.6-0.5 0.6-0.5 1.2-0.9 0.7-0.5 1.4-1 0.6-0.4 1.3-0.9 0.6-0.5 1.3-1 2.9-1.9 5.9-3.8 0.5-0.3 1-0.6 0.8-0.5 1.6-1 0.6-0.3 1.2-0.7 6.5-3.7 13.3-6.7 0.8-0.3 1.5-0.7 0.6-0.2 1.1-0.4 3-1.3 6.1-2.4 0.6-0.2 1.2-0.4 0.5-0.2 1-0.4 0.8-0.3 1.6-0.5 0.7-0.2 1.3-0.5 1.5-0.4 3-0.9 0.8-0.2 1.6-0.4 2-0.6 4-1.1 0.8-0.2 1.6-0.4 0.8-0.2 1.6-0.4 3.4-0.7 6.8-1.3 1.3-0.3 2.5-0.5 1.2-0.2 2.4-0.3 1-0.2 2-0.3z"/>
		<path id="Layer" class="s6" d="m1315.2 499.5l69.3-117.4 30.6-52 34.4-58.2c36.4 7.7 66.6 29.4 85.9 58.4l-45.2 76.6-83.1 140.9q-6.4-0.6-12.8-1.8-0.9-0.2-1.9-0.4-1.5-0.3-3-0.7-1-0.2-2-0.4h-0.1q-1.6-0.4-3.2-0.9-0.8-0.2-1.7-0.4-0.8-0.3-1.6-0.5-0.8-0.3-1.6-0.5-0.7-0.2-1.3-0.4-1-0.3-1.9-0.7-0.7-0.2-1.4-0.4-0.9-0.3-1.8-0.7-0.8-0.3-1.6-0.6-0.7-0.2-1.4-0.5-3.2-1.3-6.3-2.7-0.7-0.3-1.5-0.7-1.2-0.5-2.3-1.1-0.8-0.4-1.6-0.8-1.2-0.6-2.4-1.2-0.5-0.3-1.1-0.6-8.7-4.7-16.5-10.6-0.4-0.3-0.8-0.6-1.5-1.2-3-2.4-0.7-0.5-1.3-1-6.9-5.7-13-12.2-0.5-0.6-1.1-1.2-0.8-1-1.7-2-0.3-0.3-0.6-0.6-0.4-0.5-0.9-1.1-0.2-0.3-0.5-0.6z"/>
		<path id="Layer" class="s4" d="m1434.3 383.7c3.3 0.1 6.2 2.7 6.7 6.1 0 0.6 6.8 51 8.6 63.6 0.5 3.9-2.1 7.5-6 8-3.8 0.6-7.3-2.1-7.9-6-1.4-9.8-5.8-42.4-7.7-56.8l-64.8 7.8c-3.9 0.4-7.4-2.4-7.8-6.3-0.5-3.8 2.3-7.4 6.1-7.8l71.7-8.5q0.6-0.1 1.1-0.1z"/>
		<g id="Layer">
			<path id="Layer" class="s7" d="m1829.5 273.5q5.3-0.7 10.5-0.9 0.8-0.1 1.7-0.1 1.5-0.1 3-0.1 0.6 0 1.1 0 1.1 0 2.1 0 0.7 0 1.4 0 0.8 0 1.7 0 1.4 0.1 2.8 0.1 3.5 0.2 6.9 0.5 0.7 0.1 1.5 0.1 0.2 0.1 0.4 0.1 0.8 0.1 1.5 0.2 2.5 0.3 5 0.7 1.7 0.2 3.4 0.5 1.2 0.2 2.4 0.5 0.9 0.2 1.7 0.3 0.9 0.2 1.8 0.4 0.9 0.2 1.9 0.5 0.9 0.2 1.8 0.4 0.9 0.2 1.8 0.5c52.9 14.2 94.4 58.7 101.6 115.8q0.2 1.2 0.3 2.5c4 37-7.2 72.4-28.8 99.8-21.9 27.9-54.6 47.6-92.8 52.4-46.9 5.9-91.2-11.8-120.8-43.9-16-17.3-27.6-38.7-33-62.8q-1.4-6.3-2.2-12.8-0.1-0.9-0.2-1.9-0.2-1.5-0.4-3.1-0.1-1-0.1-2v-0.1q-0.2-1.7-0.2-3.3-0.1-0.9-0.1-1.7-0.1-0.9-0.1-1.7 0-0.9 0-1.7 0-0.7 0-1.4 0-1 0-2 0-0.7 0-1.5 0-0.9 0.1-1.9 0-0.8 0-1.7 0.1-0.7 0.1-1.5 0.2-3.4 0.6-6.8 0.1-0.8 0.2-1.6 0.1-1.3 0.3-2.6 0.1-0.9 0.3-1.7 0.2-1.3 0.4-2.7 0.1-0.6 0.2-1.2 1.8-9.7 5-19 0.1-0.5 0.3-0.9 0.6-1.9 1.3-3.7 0.3-0.7 0.6-1.5 3.3-8.3 7.6-16.1 0.4-0.7 0.8-1.4 0.6-1.2 1.3-2.3 0.2-0.3 0.4-0.7 0.4-0.6 0.7-1.2 0.2-0.4 0.5-0.7 0.2-0.3 0.4-0.7 0.4-0.7 0.9-1.3 0.8-1.4 1.7-2.7 0.9-1.4 1.9-2.7 0.4-0.6 0.9-1.3 3.8-5.2 8.1-10.1 2.2-2.4 4.4-4.7 0.6-0.6 1.1-1.2 0.6-0.5 1.2-1.1 0.4-0.4 0.8-0.8 0.8-0.8 1.5-1.5 0.6-0.5 1.2-1.1 0.6-0.5 1.2-1.1 0.6-0.5 1.2-1 0.6-0.6 1.3-1.1 1.2-1.1 2.5-2.1 0.5-0.4 1-0.9 0.5-0.3 1-0.7 0.6-0.5 1.3-1 0.3-0.3 0.6-0.5 0.6-0.5 1.2-0.9 0.6-0.5 1.3-1 0.7-0.4 1.3-0.9 0.7-0.5 1.4-1 2.9-1.9 5.8-3.8 0.5-0.3 1.1-0.6 0.7-0.5 1.5-0.9 0.7-0.4 1.3-0.8 6.4-3.7 13.3-6.7 0.7-0.3 1.5-0.7 0.5-0.2 1.1-0.4 3-1.3 6.1-2.4 0.6-0.2 1.1-0.4 0.6-0.2 1.1-0.4 0.8-0.3 1.6-0.5 0.6-0.2 1.3-0.5 1.5-0.4 2.9-0.9 0.8-0.2 1.6-0.4 2-0.6 4-1.1 0.8-0.2 1.6-0.4 0.8-0.2 1.7-0.4 3.3-0.7 6.8-1.3 1.2-0.3 2.5-0.5 1.1-0.2 2.3-0.3 1-0.2 2.1-0.3z"/>
			<path id="Layer" class="s0" d="m1829.5 273.5q5.3-0.7 10.5-0.9 0.8-0.1 1.7-0.1 1.5-0.1 3-0.1 0.6 0 1.1 0 1.1 0 2.1 0 0.7 0 1.4 0 0.8 0 1.7 0 1.4 0.1 2.8 0.1 3.5 0.2 6.9 0.5 0.7 0.1 1.5 0.1 0.2 0.1 0.4 0.1 0.8 0.1 1.5 0.2 2.5 0.3 5 0.7 1.7 0.2 3.4 0.5 1.2 0.2 2.4 0.5 0.9 0.2 1.7 0.3 0.9 0.2 1.8 0.4 0.9 0.2 1.9 0.5 0.9 0.2 1.8 0.4 0.9 0.2 1.8 0.5c18.7 20.3 31.5 46.3 35.2 75.6 1.2 9.5 1.4 18.9 0.7 28.1-2.9 37.6-21.4 71.8-49.6 95.3-19.9 16.5-44.7 27.8-72.3 31.3-18.9 2.4-37.3 1-54.5-3.7-16-17.3-27.6-38.7-33-62.8q-1.4-6.3-2.2-12.8-0.1-0.9-0.2-1.9-0.2-1.5-0.4-3.1-0.1-1-0.1-2v-0.1q-0.2-1.7-0.2-3.3-0.1-0.9-0.1-1.7-0.1-0.9-0.1-1.7 0-0.9 0-1.7 0-0.7 0-1.4 0-1 0-2 0-0.8 0-1.5 0-0.9 0.1-1.9 0-0.8 0-1.7 0.1-0.7 0.1-1.5 0.2-3.4 0.6-6.8 0.1-0.8 0.2-1.6 0.1-1.3 0.3-2.6 0.2-0.9 0.3-1.7 0.2-1.3 0.4-2.7 0.1-0.6 0.2-1.2 1.8-9.7 5-19 0.1-0.5 0.3-0.9 0.6-1.9 1.3-3.7 0.3-0.7 0.6-1.5 3.3-8.3 7.6-16.1 0.4-0.7 0.8-1.4 0.6-1.2 1.3-2.3 0.2-0.3 0.4-0.7 0.4-0.6 0.7-1.2 0.2-0.4 0.5-0.7 0.2-0.3 0.4-0.7 0.4-0.7 0.9-1.3 0.8-1.4 1.7-2.7 0.9-1.4 1.9-2.7 0.4-0.6 0.9-1.3 3.8-5.2 8.1-10.1 2.2-2.4 4.4-4.7 0.6-0.6 1.1-1.2 0.6-0.5 1.2-1.1 0.4-0.4 0.8-0.8 0.8-0.8 1.5-1.5 0.6-0.5 1.2-1.1 0.6-0.5 1.2-1.1 0.6-0.5 1.2-1 0.6-0.6 1.3-1.1 1.2-1.1 2.5-2.1 0.5-0.4 1-0.9 0.5-0.3 1-0.7 0.6-0.5 1.3-1 0.3-0.3 0.6-0.5 0.6-0.5 1.2-0.9 0.6-0.5 1.3-1 0.7-0.4 1.3-0.9 0.7-0.5 1.4-1 2.9-1.9 5.8-3.8 0.5-0.3 1.1-0.6 0.7-0.5 1.5-0.9 0.7-0.4 1.3-0.8 6.4-3.7 13.3-6.7 0.7-0.3 1.5-0.7 0.5-0.2 1.1-0.4 3-1.3 6.1-2.4 0.6-0.2 1.2-0.4 0.5-0.2 1-0.4 0.8-0.3 1.6-0.5 0.6-0.2 1.3-0.5 1.5-0.4 2.9-0.9 0.8-0.2 1.6-0.4 2-0.6 4-1.1 0.8-0.2 1.6-0.4 0.9-0.2 1.7-0.4 3.3-0.7 6.8-1.3 1.2-0.3 2.5-0.5 1.1-0.2 2.3-0.3 1-0.2 2.1-0.3z"/>
			<path id="Layer" class="s5" d="m1829.5 273.5q5.3-0.7 10.5-0.9 0.8-0.1 1.7-0.1 1.5-0.1 3-0.1 0.6 0 1.1 0 1.1 0 2.1 0 0.7 0 1.4 0 0.8 0 1.7 0 1.4 0.1 2.8 0.1c6.9 12.4 11.5 26.2 13.4 41.1 2.4 19 0 37.5-6.3 54.3-14.6 38.9-50.1 68.7-94.5 74.4-15.7 2-31 0.8-45.3-3.1-5.1-5.5-9.7-11.6-13.6-18v-0.1q-0.2-1.7-0.2-3.3-0.1-0.9-0.1-1.7 0-0.9-0.1-1.7 0-0.9 0-1.7 0-0.7 0-1.4 0-1 0-2 0-0.8 0-1.5 0-0.9 0.1-1.9 0-0.8 0-1.7 0.1-0.7 0.1-1.5 0.2-3.4 0.6-6.8 0.1-0.8 0.2-1.6 0.1-1.3 0.3-2.6 0.2-0.9 0.3-1.7 0.2-1.3 0.4-2.7 0.1-0.6 0.2-1.2 1.8-9.7 5-19 0.1-0.5 0.3-0.9 0.6-1.9 1.3-3.7 0.3-0.7 0.6-1.5 3.3-8.3 7.6-16.1 0.4-0.7 0.8-1.4 0.6-1.2 1.3-2.3 0.2-0.3 0.4-0.7 0.4-0.6 0.7-1.2 0.2-0.4 0.5-0.7 0.2-0.3 0.4-0.7 0.4-0.7 0.9-1.3 0.8-1.4 1.7-2.7 0.9-1.4 1.9-2.7 0.4-0.6 0.9-1.3 3.8-5.2 8.1-10.1 2.2-2.4 4.4-4.7 0.6-0.6 1.2-1.2 0.5-0.5 1.1-1.1 0.4-0.4 0.9-0.8 0.7-0.8 1.4-1.5 0.6-0.5 1.2-1.1 0.6-0.5 1.2-1.1 0.6-0.5 1.2-1 0.6-0.6 1.3-1.1 1.2-1.1 2.5-2.1 0.5-0.4 1-0.9 0.5-0.3 1-0.7 0.6-0.5 1.3-1 0.3-0.3 0.6-0.5 0.6-0.5 1.2-0.9 0.6-0.5 1.3-1 0.7-0.4 1.3-0.9 0.7-0.5 1.4-1 2.9-1.9 5.8-3.8 0.5-0.3 1.1-0.6 0.7-0.5 1.5-1 0.7-0.3 1.3-0.7 6.4-3.7 13.3-6.7 0.7-0.3 1.5-0.7 0.5-0.2 1.1-0.4 3-1.3 6.1-2.4 0.6-0.2 1.2-0.4 0.5-0.2 1-0.4 0.8-0.3 1.6-0.5 0.6-0.2 1.3-0.5 1.5-0.4 2.9-0.9 0.8-0.2 1.7-0.4 1.9-0.6 3.9-1.1 0.8-0.2 1.6-0.4 0.9-0.2 1.7-0.4 3.3-0.7 6.8-1.3 1.2-0.3 2.5-0.5 1.1-0.2 2.3-0.3 1-0.2 2.1-0.3z"/>
			<path id="Layer" class="s6" d="m1736.5 499.5l69.2-117.4 30.7-52 34.3-58.2c36.5 7.7 66.6 29.4 86 58.4l-45.2 76.6-83.1 140.9q-6.4-0.6-12.9-1.8-0.9-0.2-1.8-0.4-1.5-0.3-3.1-0.7-1-0.2-2-0.4-1.7-0.4-3.3-0.9-0.8-0.2-1.6-0.4-0.8-0.3-1.6-0.5-0.9-0.3-1.7-0.5-0.6-0.2-1.2-0.4-1-0.3-2-0.7-0.7-0.2-1.4-0.4-0.9-0.3-1.7-0.7-0.8-0.3-1.6-0.6-0.7-0.2-1.4-0.5-3.2-1.3-6.3-2.7-0.8-0.3-1.5-0.7-1.2-0.5-2.4-1.1-0.8-0.4-1.5-0.8-1.2-0.6-2.4-1.2-0.6-0.3-1.1-0.6-8.7-4.7-16.5-10.6-0.4-0.3-0.8-0.6-1.6-1.2-3.1-2.4-0.6-0.5-1.2-1-6.9-5.7-13-12.2-0.6-0.6-1.1-1.2-0.9-1-1.7-2-0.3-0.3-0.6-0.6-0.5-0.5-0.9-1.1-0.3-0.3-0.5-0.6z"/>
			<path id="Layer" class="s7" d="m1857 427.7c-2.2 2.6-5.8 3.4-8.6 1.8-0.4-0.2-41.3-23.4-51.5-29.1-3.2-1.7-4.1-5.8-2.2-9.2 2-3.3 6.1-4.6 9.3-2.8 8 4.4 34.4 19.4 46 26l34.5-55.4c2-3.3 6.2-4.4 9.3-2.6 3.1 1.8 3.9 6 1.9 9.2l-38.1 61.2q-0.3 0.5-0.6 0.9z"/>
		</g>
		<g id="Layer">
			<path id="Layer" class="s4" d="m2250.7 273.5q5.3-0.7 10.6-0.9 0.8-0.1 1.7-0.1 1.5-0.1 3-0.1 0.5 0 1.1 0 1 0 2.1 0 0.7 0 1.3 0 0.9 0 1.8 0 1.4 0.1 2.7 0.1 3.5 0.2 7 0.5 0.7 0.1 1.4 0.1 0.2 0.1 0.5 0.1 0.7 0.1 1.4 0.2 2.6 0.3 5.1 0.7 1.7 0.2 3.3 0.5 1.3 0.2 2.5 0.5 0.8 0.2 1.6 0.3 1 0.2 1.9 0.4 0.9 0.2 1.8 0.5 0.9 0.2 1.8 0.4 1 0.2 1.9 0.5c52.8 14.2 94.3 58.7 101.6 115.8q0.1 1.2 0.3 2.5c4 37-7.2 72.4-28.8 99.8-22 27.9-54.6 47.6-92.8 52.4-46.9 5.9-91.3-11.8-120.8-43.9-16-17.3-27.6-38.7-33-62.8q-1.4-6.3-2.3-12.8-0.1-0.9-0.2-1.9-0.2-1.5-0.3-3.1-0.1-1-0.2-2v-0.1q-0.1-1.7-0.2-3.3 0-0.9-0.1-1.7 0-0.9 0-1.7 0-0.9 0-1.7-0.1-0.7-0.1-1.4 0-1 0-2 0.1-0.7 0.1-1.5 0-0.9 0-1.9 0.1-0.8 0.1-1.7 0-0.7 0.1-1.5 0.2-3.4 0.6-6.8 0-0.8 0.1-1.6 0.2-1.3 0.4-2.6 0.1-0.9 0.2-1.7 0.2-1.3 0.5-2.7 0.1-0.6 0.2-1.2 1.8-9.7 4.9-19 0.2-0.5 0.4-0.9 0.6-1.9 1.3-3.7 0.3-0.7 0.6-1.5 3.2-8.3 7.5-16.1 0.4-0.7 0.8-1.4 0.7-1.2 1.3-2.3 0.2-0.3 0.5-0.7 0.3-0.6 0.7-1.2 0.2-0.4 0.4-0.7 0.2-0.3 0.4-0.7 0.5-0.7 0.9-1.3 0.9-1.4 1.8-2.7 0.9-1.4 1.8-2.7 0.5-0.6 1-1.3 3.8-5.2 8.1-10.1 2.1-2.4 4.4-4.7 0.5-0.6 1.1-1.2 0.6-0.5 1.2-1.1 0.4-0.4 0.8-0.8 0.7-0.8 1.5-1.5 0.6-0.5 1.2-1.1 0.6-0.5 1.2-1.1 0.6-0.5 1.2-1 0.6-0.6 1.2-1.1 1.2-1.1 2.5-2.1 0.5-0.4 1.1-0.9 0.5-0.3 0.9-0.7 0.7-0.5 1.3-1 0.3-0.3 0.6-0.5 0.6-0.5 1.3-0.9 0.6-0.5 1.3-1 0.6-0.4 1.3-0.9 0.7-0.5 1.3-1 2.9-1.9 5.9-3.8 0.5-0.3 1-0.6 0.8-0.5 1.6-0.9 0.6-0.4 1.2-0.8 6.5-3.7 13.3-6.7 0.8-0.3 1.6-0.7 0.5-0.2 1-0.4 3-1.3 6.1-2.4 0.6-0.2 1.2-0.4 0.5-0.2 1.1-0.4 0.7-0.3 1.5-0.5 0.7-0.2 1.4-0.5 1.4-0.4 2.9-0.9 0.8-0.2 1.6-0.4 2-0.6 4-1.1 0.8-0.2 1.6-0.4 0.8-0.2 1.6-0.4 3.4-0.7 6.8-1.3 1.3-0.3 2.5-0.5 1.2-0.2 2.4-0.3 1-0.2 2-0.3z"/>
			<path id="Layer" class="s0" d="m2250.7 273.5q5.3-0.7 10.6-0.9 0.8-0.1 1.7-0.1 1.5-0.1 3-0.1 0.5 0 1.1 0 1 0 2.1 0 0.7 0 1.3 0 0.9 0 1.8 0 1.4 0.1 2.7 0.1 3.5 0.2 7 0.5 0.7 0.1 1.4 0.1 0.2 0.1 0.5 0.1 0.7 0.1 1.4 0.2 2.6 0.3 5.1 0.7 1.7 0.2 3.3 0.5 1.3 0.2 2.5 0.5 0.8 0.2 1.6 0.3 1 0.2 1.9 0.4 0.9 0.2 1.8 0.5 0.9 0.2 1.8 0.4 1 0.2 1.9 0.5c18.7 20.3 31.5 46.3 35.2 75.6 1.2 9.5 1.4 18.9 0.7 28.1-3 37.6-21.4 71.8-49.7 95.3-19.9 16.5-44.6 27.8-72.3 31.3-18.8 2.4-37.2 1-54.4-3.7-16-17.3-27.6-38.7-33-62.8q-1.4-6.3-2.3-12.8-0.1-0.9-0.2-1.9-0.2-1.5-0.3-3.1-0.1-1-0.2-2v-0.1q-0.1-1.7-0.2-3.3 0-0.9-0.1-1.7 0-0.9 0-1.7 0-0.9 0-1.7-0.1-0.7-0.1-1.4 0-1 0-2 0.1-0.8 0.1-1.5 0-0.9 0-1.9 0.1-0.8 0.1-1.7 0-0.7 0.1-1.5 0.2-3.4 0.6-6.8 0-0.8 0.1-1.6 0.2-1.3 0.4-2.6 0.1-0.9 0.2-1.7 0.2-1.3 0.5-2.7 0.1-0.6 0.2-1.2 1.8-9.7 4.9-19 0.2-0.5 0.4-0.9 0.6-1.9 1.3-3.7 0.3-0.7 0.6-1.5 3.2-8.3 7.5-16.1 0.4-0.7 0.8-1.4 0.7-1.2 1.3-2.3 0.2-0.3 0.5-0.7 0.3-0.6 0.7-1.2 0.2-0.4 0.4-0.7 0.2-0.3 0.4-0.7 0.5-0.7 0.9-1.3 0.9-1.4 1.8-2.7 0.9-1.4 1.8-2.7 0.5-0.6 1-1.3 3.8-5.2 8.1-10.1 2.1-2.4 4.4-4.7 0.5-0.6 1.1-1.2 0.6-0.5 1.2-1.1 0.4-0.4 0.8-0.8 0.7-0.8 1.5-1.5 0.6-0.5 1.2-1.1 0.6-0.5 1.2-1.1 0.6-0.5 1.2-1 0.6-0.6 1.2-1.1 1.2-1.1 2.5-2.1 0.5-0.4 1.1-0.9 0.5-0.3 0.9-0.7 0.7-0.5 1.3-1 0.3-0.3 0.6-0.5 0.6-0.5 1.3-0.9 0.6-0.5 1.3-1 0.6-0.4 1.3-0.9 0.7-0.5 1.3-1 2.9-1.9 5.9-3.8 0.5-0.3 1-0.6 0.8-0.5 1.6-0.9 0.6-0.4 1.2-0.8 6.5-3.7 13.3-6.7 0.8-0.3 1.6-0.7 0.5-0.2 1-0.4 3-1.3 6.1-2.4 0.6-0.2 1.2-0.4 0.5-0.2 1.1-0.4 0.7-0.3 1.5-0.5 0.7-0.2 1.4-0.5 1.4-0.4 2.9-0.9 0.8-0.2 1.6-0.4 2-0.6 4-1.1 0.8-0.2 1.6-0.4 0.8-0.2 1.6-0.4 3.4-0.7 6.8-1.3 1.3-0.3 2.5-0.5 1.2-0.2 2.4-0.3 1-0.2 2-0.3z"/>
			<path id="Layer" class="s5" d="m2250.7 273.5q5.3-0.7 10.6-0.9 0.8-0.1 1.7-0.1 1.5-0.1 3-0.1 0.5 0 1.1 0 1 0 2.1 0 0.7 0 1.3 0 0.9 0 1.8 0 1.4 0.1 2.7 0.1c6.9 12.4 11.6 26.2 13.5 41.1 2.4 19 0 37.5-6.3 54.3-14.7 38.9-50.1 68.7-94.6 74.4-15.6 2-31 0.8-45.3-3.1-5.1-5.5-9.6-11.6-13.6-18v-0.1q-0.1-1.7-0.2-3.3 0-0.9-0.1-1.7 0-0.9 0-1.7 0-0.9 0-1.7-0.1-0.7-0.1-1.4 0-1 0-2 0.1-0.8 0.1-1.5 0-0.9 0-1.9 0.1-0.8 0.1-1.7 0-0.7 0.1-1.5 0.2-3.4 0.6-6.8 0.1-0.8 0.1-1.6 0.2-1.3 0.4-2.6 0.1-0.9 0.2-1.7 0.2-1.3 0.5-2.7 0.1-0.6 0.2-1.2 1.8-9.7 4.9-19 0.2-0.5 0.4-0.9 0.6-1.9 1.3-3.7 0.3-0.7 0.6-1.5 3.2-8.3 7.5-16.1 0.4-0.7 0.8-1.4 0.7-1.2 1.3-2.3 0.3-0.3 0.5-0.7 0.3-0.6 0.7-1.2 0.2-0.4 0.4-0.7 0.2-0.3 0.4-0.7 0.5-0.7 0.9-1.3 0.9-1.4 1.8-2.7 0.9-1.4 1.8-2.7 0.5-0.6 1-1.3 3.8-5.2 8.1-10.1 2.1-2.4 4.4-4.7 0.5-0.6 1.1-1.2 0.6-0.5 1.2-1.1 0.4-0.4 0.8-0.8 0.7-0.8 1.5-1.5 0.6-0.5 1.2-1.1 0.6-0.5 1.2-1.1 0.6-0.5 1.2-1 0.6-0.6 1.2-1.1 1.2-1.1 2.5-2.1 0.5-0.4 1.1-0.9 0.5-0.3 0.9-0.7 0.7-0.5 1.3-1 0.3-0.3 0.7-0.5 0.5-0.5 1.2-0.9 0.6-0.5 1.3-1 0.6-0.4 1.3-0.9 0.7-0.5 1.3-1 2.9-1.9 5.9-3.8 0.5-0.3 1-0.6 0.8-0.5 1.6-1 0.6-0.3 1.2-0.7 6.5-3.7 13.3-6.7 0.8-0.3 1.6-0.7 0.5-0.2 1-0.4 3-1.3 6.1-2.4 0.6-0.2 1.2-0.4 0.5-0.2 1.1-0.4 0.7-0.3 1.5-0.5 0.7-0.2 1.4-0.5 1.4-0.4 2.9-0.9 0.8-0.2 1.6-0.4 2-0.6 4-1.1 0.8-0.2 1.6-0.4 0.8-0.2 1.6-0.4 3.4-0.7 6.8-1.3 1.3-0.3 2.5-0.5 1.2-0.2 2.4-0.3 1-0.2 2-0.3z"/>
			<path id="Layer" class="s6" d="m2157.7 499.5l69.3-117.4 30.6-52 34.4-58.2c36.5 7.7 66.6 29.4 86 58.4l-45.2 76.6-83.2 140.9q-6.4-0.6-12.8-1.8-0.9-0.2-1.8-0.4-1.6-0.3-3.1-0.7-1-0.2-2-0.4h-0.1q-1.6-0.4-3.2-0.9-0.8-0.2-1.7-0.4-0.8-0.3-1.6-0.5-0.8-0.3-1.6-0.5-0.7-0.2-1.3-0.4-1-0.3-1.9-0.7-0.7-0.2-1.4-0.4-0.9-0.3-1.8-0.7-0.8-0.3-1.6-0.6-0.7-0.2-1.4-0.5-3.2-1.3-6.3-2.7-0.7-0.3-1.5-0.7-1.2-0.5-2.3-1.1-0.8-0.4-1.6-0.8-1.2-0.6-2.3-1.2-0.6-0.3-1.1-0.6-8.7-4.7-16.6-10.6-0.4-0.3-0.8-0.6-1.5-1.2-3-2.4-0.7-0.5-1.3-1-6.9-5.7-12.9-12.2-0.6-0.6-1.1-1.2-0.9-1-1.8-2-0.3-0.3-0.6-0.6-0.4-0.5-0.8-1.1-0.3-0.3-0.6-0.6z"/>
			<path id="Layer" class="s4" d="m2287.4 407.6c0.4 3.4-1.6 6.6-4.9 7.6-0.5 0.2-49.3 14.9-61.4 18.7-3.8 1.2-7.7-0.9-8.9-4.6-1.1-3.7 0.9-7.6 4.7-8.8 9.4-2.9 40.9-12.5 54.8-16.7l-18-62.7c-1.1-3.8 1.1-7.6 4.9-8.7 3.7-1.1 7.6 1.1 8.7 4.8l19.9 69.4q0.2 0.5 0.2 1z"/>
		</g>
	</g>
	<g id="Layer">
		<path id="Layer" class="s8" d="m2790.7 2272.8c0 22.4-61 43.4-168.1 61.7-229 39.1-668.6 65.5-1173.3 65.5q-31.8 0-63.2-0.1-48.5-0.3-96.1-0.8c-39.4-0.4-78.3-1-116.6-1.8-169.3-3.4-327-9.7-466.3-18.5-64.8-4.1-125.7-8.7-181.9-13.8q-28.8-2.6-55.9-5.4-10-1-19.9-2-2.4-0.3-4.8-0.5-1-0.1-1.9-0.2-2.3-0.3-4.6-0.5-9.2-1-18.2-2.1-3.6-0.4-7.1-0.8-4.6-0.5-9.1-1-3.3-0.4-6.5-0.8-2.8-0.3-5.5-0.7-3.9-0.4-7.8-0.9-0.2 0-0.3 0-13.5-1.7-26.5-3.5-1.3-0.1-2.7-0.3-1.3-0.2-2.7-0.4-2.7-0.3-5.3-0.7-5.2-0.7-10.2-1.4-4.1-0.6-8.2-1.2-2-0.3-4-0.5-1.8-0.3-3.6-0.6-4.4-0.6-8.6-1.3-0.7-0.1-1.4-0.2-2.3-0.3-4.6-0.7-5.9-0.9-11.7-1.8-1.6-0.3-3.1-0.5-1.2-0.2-2.4-0.4-3-0.5-5.9-1l-1.1-0.1q-0.8-0.2-1.7-0.3-2.8-0.5-5.5-1-2.8-0.5-5.5-0.9-2.2-0.4-4.5-0.8-1.7-0.3-3.5-0.7-1.3-0.2-2.6-0.4-1.3-0.3-2.6-0.5-6.5-1.2-12.8-2.4-2.2-0.4-4.3-0.9-2.8-0.5-5.5-1.1-3.6-0.7-7.1-1.4-2.6-0.6-5.1-1.1-1.2-0.3-2.3-0.5-1.9-0.4-3.8-0.9-6.9-1.5-13.5-3.1-1.1-0.2-2.1-0.5-1.1-0.3-2.2-0.5-1.6-0.4-3.2-0.8-1.3-0.3-2.6-0.7-0.8-0.2-1.5-0.4-2.2-0.5-4.4-1.1-1.9-0.5-3.8-1-6.6-1.9-12.7-3.7c-18.7-5.7-33.4-11.5-43.6-17.5q-7-4.1-11.1-8.2-0.6-0.5-1.1-1.1-0.6-0.7-1.2-1.4-0.3-0.3-0.5-0.7 0 0 0 0-0.4-0.4-0.6-0.8-0.5-0.7-0.9-1.3-0.3-0.7-0.6-1.4-0.1-0.1-0.2-0.3-0.1-0.2-0.2-0.4-0.1-0.3-0.2-0.6 0 0 0-0.1-0.1-0.2-0.2-0.5-0.1-0.4-0.2-0.9-0.1-0.2-0.1-0.4 0-0.1 0-0.1 0-0.1-0.1-0.2 0-0.1 0-0.1-0.1-0.5-0.1-1 0-0.5 0-1 0-0.4 0-0.8 0-0.4 0.1-0.7 0-0.2 0-0.4 0 0 0-0.1 0 0 0-0.1 0.1-0.2 0.1-0.4 0.1-0.3 0.2-0.6 0-0.3 0.1-0.5 0-0.1 0.1-0.3 0.1-0.3 0.2-0.6 0 0 0-0.1 0.1-0.3 0.2-0.6c0.2-0.5 0.5-1 0.7-1.5q0.2-0.4 0.5-0.8 0.2-0.5 0.5-0.9 0.8-1.3 1.9-2.6 0.3-0.4 0.7-0.8 0.4-0.5 0.8-0.9 0.3-0.4 0.7-0.7 0.4-0.5 0.9-0.9v-0.1q1-0.9 2.1-1.9 0.9-0.7 1.9-1.6 0.5-0.3 0.9-0.6 0.9-0.7 1.8-1.4 2.4-1.6 5.1-3.3 0.7-0.5 1.4-0.9 0.7-0.5 1.5-0.9 0.8-0.5 1.6-0.9 0.2-0.1 0.4-0.3 0.2-0.1 0.4-0.2 0.4-0.2 0.8-0.4 1.6-0.9 3.3-1.8 0.8-0.5 1.7-0.9 1.3-0.7 2.7-1.4 1.4-0.7 2.9-1.4 0.7-0.3 1.5-0.7 1.4-0.6 3-1.3 0.7-0.3 1.5-0.7 1.9-0.8 3.8-1.7 0.8-0.3 1.6-0.6 1.2-0.5 2.4-1 1.1-0.4 2.1-0.9 0.5-0.1 0.9-0.3 0.5-0.2 1-0.4 0.3-0.2 0.7-0.3 0.4-0.2 0.8-0.3 0.9-0.4 1.9-0.8 2.5-0.9 5.1-1.9 2.6-0.9 5.3-1.9 1.3-0.5 2.6-0.9 0.5-0.2 1-0.4 0.5-0.1 1-0.3 1.2-0.4 2.4-0.9 1.3-0.4 2.5-0.8 1.3-0.4 2.6-0.8 1.2-0.5 2.5-0.9 1.5-0.5 2.9-0.9 3-1 6-1.9 3.1-1 6.2-1.9 3.2-1 6.4-1.9 1.6-0.5 3.2-1 0.8-0.2 1.5-0.4 0.7-0.2 1.5-0.4 1.6-0.5 3.2-0.9 0.7-0.2 1.4-0.4 0.7-0.2 1.4-0.4 1.7-0.5 3.4-0.9 1.4-0.4 2.7-0.8 0.9-0.2 1.9-0.5 0.9-0.2 1.8-0.5 1.3-0.3 2.6-0.7 1.2-0.3 2.5-0.6 0.5-0.2 1-0.3 4.6-1.2 9.4-2.4 1.7-0.5 3.3-0.9 7-1.7 14.2-3.4 4.2-1.1 8.5-2.1 1.4-0.3 2.8-0.6 1.7-0.4 3.4-0.8 0 0 0 0 3.3-0.8 6.7-1.5 1.7-0.4 3.5-0.8 0.8-0.2 1.8-0.4 0.4-0.1 0.9-0.2 0.4-0.1 0.9-0.2 1.1-0.3 2.3-0.5 1.2-0.3 2.3-0.6 5-1 10.1-2.1 0.3-0.1 0.6-0.2 3.6-0.7 7.4-1.5 2.2-0.5 4.4-0.9 10-2.1 20.4-4.2 0.3 0 0.6-0.1 0.8-0.1 1.5-0.3 1-0.2 2.1-0.4 6.3-1.2 12.7-2.4 1-0.2 2.1-0.4 1.1-0.2 2.2-0.4 2.1-0.4 4.3-0.8 2.2-0.4 4.4-0.8 13.7-2.6 28.1-5.1 2.4-0.4 4.9-0.8 2.4-0.5 4.8-0.9 3.7-0.6 7.5-1.2 2.3-0.4 4.7-0.8 2.3-0.4 4.7-0.8 2.4-0.4 4.8-0.8 4-0.7 8.1-1.3 2.6-0.5 5.3-0.9 2.7-0.4 5.4-0.8 1.3-0.2 2.7-0.5 1.4-0.2 2.7-0.4 2.5-0.4 4.9-0.8 2.5-0.3 5-0.7 5-0.8 10-1.6 2.5-0.4 5.1-0.7 2.5-0.4 5.1-0.8 1.9-0.3 3.8-0.5 1.9-0.3 3.8-0.6 3.9-0.6 7.8-1.2 6-0.8 12-1.7 2.1-0.3 4.2-0.6 2-0.2 4-0.5h0.1q5-0.7 10-1.4 6.2-0.9 12.5-1.7 3.1-0.4 6.2-0.9 6.3-0.8 12.6-1.6 3.2-0.4 6.4-0.9 4.8-0.6 9.6-1.2 4.8-0.6 9.7-1.2 6.5-0.8 13-1.6 1.6-0.2 3.2-0.4 1.5-0.2 3.1-0.4 3.1-0.4 6.3-0.7 3.1-0.4 6.3-0.8 3.2-0.4 6.4-0.7 1.6-0.2 3.2-0.4 1.6-0.2 3.2-0.4 4.4-0.5 8.8-1 4.4-0.5 8.8-1 21.4-2.4 43.5-4.7 4.6-0.5 9.1-1 2.2-0.2 4.3-0.4 1.1-0.1 2.2-0.3 1-0.1 2.1-0.2 1.7-0.1 3.4-0.3 1.7-0.2 3.4-0.4 6.7-0.6 13.6-1.3 3.1-0.3 6.2-0.6 0.1 0 0.3-0.1 0.2 0 0.3 0 1.1-0.1 2.2-0.2 1.2-0.1 2.3-0.2 2.2-0.2 4.4-0.4 16.2-1.6 32.8-3.1 5.3-0.5 10.7-0.9 6.6-0.6 13.3-1.2 6.8-0.6 13.5-1.2 3.1-0.2 6.1-0.5 3.1-0.2 6.2-0.5 10.8-0.9 21.7-1.8 3.6-0.3 7.3-0.6 1.8-0.1 3.6-0.2 1.9-0.2 3.7-0.3 8.8-0.7 17.6-1.3 1.7-0.2 3.3-0.3 1.7-0.1 3.4-0.2 1.7-0.2 3.4-0.3 1.7-0.1 3.3-0.2 10.6-0.8 21.3-1.6 3.6-0.2 7.1-0.5l10.9-0.7q2.1-0.1 4.3-0.3 2.1-0.1 4.2-0.2 3.5-0.3 6.9-0.5 3.5-0.2 7-0.4 6.8-0.5 13.8-0.9 0 0 0 0 6.9-0.5 13.9-0.9 10.6-0.6 21.2-1.2 7.1-0.4 14.2-0.8 1.8-0.1 3.7-0.2 1.9-0.1 3.7-0.2 3.7-0.2 7.5-0.4 9.9-0.5 19.9-1.1 0.4 0 0.9 0 14.4-0.7 28.9-1.4 6.7-0.3 13.5-0.6c2.7-0.1 5.5-0.3 8.3-0.4q5.4-0.2 10.9-0.4 5.5-0.3 11-0.5 3.2-0.1 6.4-0.3 3.2-0.1 6.5-0.2 8.3-0.4 16.6-0.7 1.9 0 3.7-0.1 1.9-0.1 3.7-0.1 1.1-0.1 2.1-0.1 6.4-0.2 12.8-0.5 11.2-0.3 22.5-0.7 3.7-0.1 7.4-0.2 9.5-0.3 19.1-0.6 6.9-0.1 13.8-0.3 1.2-0.1 2.4-0.1 1.2 0 2.5-0.1 1 0 2 0 5.1-0.1 10.1-0.3 3.3 0 6.6-0.1 3.3-0.1 6.6-0.2 11.7-0.2 23.4-0.4 15.3-0.3 30.7-0.6 0.8 0 1.6 0 6.9-0.1 13.9-0.2 7.7-0.1 15.5-0.2 5-0.1 10-0.1 1.2 0 2.4 0 6.2-0.1 12.5-0.1 6.2-0.1 12.4-0.1 5.9-0.1 11.7-0.1 6.3 0 12.6 0 9.7-0.1 19.5-0.1 3.2 0 6.5 0 10.2 0 20.4 0 8.3 0.1 16.4 0.1 1.3 0 2.6 0 8.3 0.1 16.5 0.1 8.6 0.1 17.1 0.2 1.1 0 2.2 0 8.9 0.1 17.7 0.2 9.2 0.1 18.4 0.2 9.2 0.1 18.3 0.3 9.2 0.2 18.3 0.3 7.8 0.2 15.6 0.3 7.8 0.2 15.5 0.4 5.2 0.1 10.3 0.2 5.2 0.2 10.3 0.3 3.7 0.1 7.4 0.2 0.8 0 1.6 0 0.7 0 1.3 0 2.5 0.1 5 0.2l6.3 0.2q4.6 0.1 9.2 0.2 2.2 0.1 4.5 0.2 2.4 0 4.8 0.1 0.6 0 1.3 0 0.1 0.1 0.3 0 0.6 0.1 1.2 0.1 3.5 0.1 6.9 0.2 0.7 0 1.4 0.1 1 0 2 0 4.7 0.2 9.3 0.3 2.2 0.1 4.4 0.2 1.6 0 3.1 0.1 0.7 0 1.4 0 2.3 0.1 4.7 0.2 2.7 0.1 5.4 0.2 2 0.1 4.1 0.1 0.4 0.1 0.9 0.1 2.1 0 4.2 0.1 0.5 0.1 1.1 0.1 2.6 0.1 5.2 0.2 0.1 0 0.1 0 0.1 0 0.1 0 0.1 0 0.2 0 2.8 0.1 5.6 0.2 4.3 0.2 8.6 0.3 2.4 0.1 4.8 0.2 2.6 0.1 5.2 0.2 2.2 0.1 4.4 0.2 2.8 0.2 5.5 0.3 5.8 0.2 11.5 0.5 4.2 0.1 8.3 0.3 2.3 0.1 4.6 0.2 0.2 0.1 0.4 0.1 2.1 0.1 4.3 0.2 4.3 0.1 8.6 0.4 0.1 0 0.3 0 5.6 0.3 11.3 0.5 1.4 0.1 2.8 0.2 1.4 0 2.7 0.1 0.7 0 1.4 0.1 4 0.2 8 0.4 2.3 0.1 4.6 0.2 0.4 0 0.9 0 6.7 0.4 13.4 0.8 2.5 0.1 5 0.2 4.2 0.3 8.3 0.5 0.7 0 1.4 0.1 0.1 0 0.3 0 3 0.1 5.9 0.3 2.9 0.2 5.7 0.3 3 0.2 5.9 0.4 2.1 0.1 4.2 0.2 1.5 0.1 3.1 0.2 1.8 0.1 3.6 0.2 4.6 0.3 9.1 0.6 9.3 0.5 18.4 1.1 0.3 0 0.5 0 0.2 0.1 0.4 0.1 4.2 0.2 8.4 0.5 0.6 0.1 1.3 0.1 4.5 0.3 9 0.6 4.7 0.3 9.4 0.6 3 0.2 6.1 0.4 0.8 0.1 1.7 0.1 0.7 0.1 1.5 0.1 4.6 0.4 9.2 0.7 1.3 0.1 2.6 0.2 1.8 0.1 3.6 0.2 1.5 0.1 3.1 0.3 0.7 0 1.4 0 0.7 0.1 1.4 0.1 1.4 0.2 2.8 0.2 0.8 0.1 1.6 0.2 1 0 2 0.1 1.9 0.1 3.9 0.3 1.2 0.1 2.4 0.2 3 0.2 6 0.4 3 0.2 5.9 0.5 0.4 0 0.8 0 0.1 0 0.2 0 1.3 0.1 2.5 0.2 2.8 0.2 5.6 0.4 3.6 0.3 7.2 0.6 3.7 0.3 7.4 0.6 1.1 0.1 2.1 0.2 0.6 0 1.1 0 0.1 0.1 0.2 0.1 1.8 0.1 3.6 0.2 3.7 0.3 7.4 0.6 3.5 0.3 6.9 0.6 4.5 0.4 8.9 0.7 4.5 0.4 8.9 0.8 8.4 0.7 16.8 1.5 5.7 0.5 11.4 1 5.8 0.5 11.4 1 5.7 0.5 11.3 1 4.8 0.5 9.6 0.9 8.5 0.8 16.9 1.6 3.5 0.4 7 0.7 0.9 0.1 1.7 0.2 10.2 1 20.3 2 4.1 0.4 8.1 0.9 4.1 0.4 8.2 0.8 1.8 0.2 3.7 0.4 0.6 0.1 1.1 0.1 1.3 0.2 2.6 0.3 1.8 0.2 3.5 0.4 2.6 0.3 5.2 0.5 1.8 0.2 3.6 0.4 2.2 0.3 4.4 0.5 4 0.4 8 0.9 3.9 0.4 7.9 0.9 3.9 0.4 7.9 0.9 2.3 0.2 4.6 0.5 2.3 0.3 4.6 0.5 4.6 0.5 9.1 1.1 18 2.1 35.6 4.3 0 0 0 0 1.7 0.2 3.4 0.4 2.1 0.3 4.1 0.5 3.7 0.5 7.4 0.9 1.9 0.3 3.8 0.5 0.9 0.1 1.8 0.3 3.8 0.5 7.6 0.9 1.7 0.3 3.4 0.5 2.8 0.4 5.5 0.7 3.6 0.5 7.3 1 14.5 1.9 28.6 3.9c4.7 0.7 9.4 1.3 14 2q3.5 0.5 6.9 1 3.5 0.5 6.9 1 6.9 1 13.6 2 1.2 0.2 2.3 0.4 2.1 0.3 4.2 0.6 3.5 0.5 6.9 1.1 3.4 0.5 6.6 1 3.4 0.5 6.6 1 0.4 0.1 0.8 0.2 3.7 0.6 7.3 1.1 2.3 0.4 4.5 0.8 0.2 0 0.4 0 3.2 0.6 6.4 1.1 12.3 2 24.2 4 1.7 0.3 3.4 0.6 1.8 0.4 3.7 0.7 0.9 0.1 1.8 0.3 2 0.3 4 0.7 0.5 0.1 1.1 0.2 0.5 0.1 1.1 0.2 3.1 0.5 6.2 1.1 5.2 0.9 10.4 1.9 1.7 0.3 3.4 0.6 1.9 0.3 3.9 0.7 9.1 1.7 18 3.4 1.4 0.3 2.9 0.6 2.8 0.5 5.6 1.1 7.6 1.5 15.1 3 3.7 0.8 7.3 1.5 5 1.1 9.9 2.1 4.1 0.9 8.1 1.7 1.7 0.4 3.5 0.8 6.9 1.5 13.7 3.1c19.7 4.5 38 9 54.7 13.5q17.8 4.9 33.1 9.7c57.7 18.2 89.4 36.2 89.4 52.3z"/>
		<path id="Layer" class="s9" d="m2613.5 2197.3c-27.7 27.3-93 55.9-201 82.8q-17.8 4.5-37.2 8.8c-193.5 43.6-504.6 81.6-956.4 100.2q-8.9 0.3-17.8 0.7-6.6 0.3-13.3 0.5c-33 1.3-65.5 6-97.8 8.8-39.4-0.4-78.3-1-116.6-1.8-169.3-3.4-327-9.7-466.3-18.5-64.8-4.1-125.7-8.7-181.9-13.8q-28.8-2.6-55.9-5.4-10-1-19.9-2-2.4-0.3-4.8-0.5-1-0.1-1.9-0.2-2.3-0.3-4.6-0.5-9.2-1-18.2-2.1-3.6-0.4-7.1-0.8-4.6-0.5-9.1-1-3.3-0.4-6.5-0.8-2.8-0.3-5.5-0.7-3.9-0.4-7.8-0.9-0.2 0-0.3 0-14.9-1.9-29.2-3.8-13.5-1.8-26.4-3.7-2-0.3-4-0.5-6.2-0.9-12.2-1.9-0.7-0.1-1.4-0.2-2.3-0.3-4.6-0.7-5.9-0.9-11.7-1.8-2.8-0.4-5.5-0.9-3-0.5-5.9-1-1.4-0.2-2.8-0.4-2.8-0.5-5.5-1-2.8-0.5-5.5-0.9-2.2-0.4-4.5-0.8-1.7-0.3-3.5-0.7-1.3-0.2-2.6-0.4-1.3-0.3-2.6-0.5-6.5-1.2-12.8-2.4-2.2-0.4-4.3-0.9-2.8-0.5-5.5-1.1-3.6-0.7-7.1-1.4-2.6-0.6-5.1-1.1-3.1-0.7-6.1-1.4-6.9-1.5-13.5-3.1-1.1-0.2-2.1-0.5-4.9-1.2-9.5-2.4-2.2-0.5-4.4-1.1-1.9-0.5-3.8-1-6.6-1.9-12.7-3.7 17.4-6.3 37-12.7 0 0 0-0.1c17.2-5.6 35.5-11.4 55-17.2q17.3-5.2 35.8-10.4h0.1q0 0 0 0 6.2-1.8 12.6-3.6 23.8-6.6 49.4-13.2c177.7-46.2 418.9-93.7 694.5-130.5 64.3-8.6 130.4-16.6 197.9-23.8h0.1q0-0.1 0.1-0.1 1 0 2 0 5.1-0.1 10.1-0.3 3.3 0 6.6-0.1 1.4-0.1 2.8-0.1 1.9 0 3.8-0.1 11.7-0.2 23.4-0.4 15.3-0.3 30.7-0.6 0.8 0 1.6 0 6.9-0.1 13.9-0.2 7.7-0.1 15.5-0.2 5 0 10-0.1 1.2 0 2.4 0 6.2-0.1 12.5-0.1 6.2-0.1 12.4-0.1 5.9-0.1 11.7-0.1 6.3 0 12.6 0 9.7-0.1 19.5-0.1 3.2 0 6.5 0 10.2 0 20.4 0.1 8.3 0 16.4 0 1.3 0 2.6 0 8.3 0.1 16.5 0.1 8.6 0.1 17.1 0.2 1.1 0 2.2 0 18.1 0.2 36.1 0.4 26.3 0.4 52.2 0.9 18.1 0.4 36.1 0.9 3.7 0.1 7.4 0.2 0.8 0 1.6 0 3.2 0.1 6.3 0.2l6.3 0.2q4.6 0.1 9.2 0.2 2.2 0.1 4.5 0.2 3 0.1 6.1 0.1 0.1 0.1 0.3 0.1 0.6 0 1.2 0 4.1 0.1 8.3 0.3 1 0 2 0 4.7 0.2 9.3 0.3l4.5 0.2q1.5 0 3 0.1 0.7 0 1.4 0 2.3 0.1 4.7 0.2 2.7 0.1 5.4 0.2 2 0.1 4.1 0.1 0.4 0.1 0.9 0.1 2.1 0 4.2 0.1 0.4 0 0.8 0.1 0.9 0 1.7 0 2 0.1 3.9 0.2 0.1 0 0.1 0 2.9 0.1 5.8 0.2 4.3 0.2 8.6 0.3 5 0.2 10 0.4 2.2 0.1 4.4 0.2 2.8 0.2 5.5 0.3 5.8 0.2 11.5 0.5 4.2 0.1 8.3 0.3 2.3 0.1 4.6 0.2 0.2 0.1 0.4 0.1 2.1 0.1 4.3 0.2 4.3 0.2 8.6 0.4 0.1 0 0.3 0 5.6 0.2 11.3 0.5 1.4 0.1 2.8 0.2 3.5 0.1 6.9 0.3 2.6 0.1 5.2 0.3 2.3 0.1 4.6 0.2 7.1 0.4 14.3 0.8 2.5 0.1 5 0.2 4.2 0.3 8.3 0.5 0.7 0 1.4 0.1 0.2 0 0.3 0 3 0.2 5.9 0.3 2.9 0.2 5.7 0.3 3 0.2 5.9 0.4 2.1 0.1 4.2 0.2 1.6 0.1 3.1 0.2 1.8 0.1 3.6 0.2 4.6 0.3 9.1 0.6 9.3 0.5 18.5 1.1 0.2 0 0.4 0 4.4 0.3 8.8 0.6 0.6 0.1 1.3 0.1 4.5 0.3 9 0.6 4.7 0.3 9.4 0.6 3 0.2 6.1 0.4 0.8 0.1 1.7 0.1 0.7 0.1 1.5 0.1 5.9 0.5 11.8 0.9 1.8 0.1 3.6 0.2 1.5 0.1 3.1 0.3 0.7 0 1.4 0.1 2.9 0.2 5.8 0.4 1 0 2 0.1 1.9 0.2 3.9 0.3 2.4 0.2 4.8 0.3 1.8 0.2 3.6 0.3 3 0.2 5.9 0.5 0.4 0 0.8 0 0.1 0 0.2 0 1.3 0.1 2.5 0.2 10.2 0.8 20.2 1.6 1.1 0.1 2.1 0.2 0.6 0 1.2 0.1 1.8 0.1 3.7 0.3 3.7 0.3 7.4 0.6 3.5 0.2 6.9 0.5 4.5 0.4 8.9 0.8 4.5 0.3 8.9 0.7 8.4 0.7 16.8 1.5 5.7 0.5 11.4 1 5.8 0.5 11.4 1 5.7 0.5 11.3 1 4.8 0.5 9.6 0.9 8.5 0.8 16.9 1.7 3.5 0.3 7 0.6 11.1 1.1 22 2.2 4.1 0.5 8.1 0.9 4.1 0.4 8.2 0.8 1.8 0.2 3.7 0.4 0.6 0.1 1.1 0.1 5.7 0.6 11.3 1.2 1.8 0.2 3.6 0.4 6.2 0.7 12.4 1.4 3.9 0.4 7.9 0.9 3.9 0.4 7.9 0.9 2.3 0.2 4.6 0.5 2.3 0.3 4.6 0.5 4.6 0.6 9.1 1.1 18 2.1 35.6 4.3 1.7 0.2 3.4 0.4 2.1 0.3 4.1 0.5 5.6 0.7 11.2 1.4 0.9 0.1 1.8 0.3 3.8 0.5 7.6 0.9 1.7 0.3 3.4 0.5 6.4 0.8 12.8 1.7 14.5 1.9 28.6 3.9c4.7 0.7 9.4 1.3 14 2q7 1 13.8 2 6.9 1 13.6 2 6.8 1.1 13.4 2.1 3.4 0.5 6.7 1 3.3 0.5 6.5 1.1 0.4 0 0.8 0.1 6 0.9 11.8 1.9 0.2 0 0.4 0 3.2 0.6 6.4 1.1 12.3 2 24.2 4 3.6 0.7 7.1 1.3 0.9 0.1 1.8 0.3 2.6 0.4 5.1 0.9 0.5 0.1 1.1 0.2 3.1 0.5 6.2 1.1 5.2 0.9 10.4 1.9 3.6 0.6 7.3 1.3 9.1 1.7 18 3.4 12 2.3 23.6 4.7 3.7 0.8 7.3 1.5 5 1.1 9.9 2.1 4.1 0.9 8.1 1.7 1.7 0.4 3.5 0.8 6.9 1.5 13.7 3.1z"/>
		<path id="Layer" class="s4" d="m2215 2187.7c0 70.3-600.6 127.2-1341.4 127.2-243.2 0-471.2-6.1-667.8-16.8q-36.5-2-71.6-4.2c-7.6-0.5-14.8-3.5-20.1-8.8q-0.6-0.5-1.1-1.1-0.6-0.7-1.2-1.4-0.3-0.3-0.5-0.7 0 0 0 0-0.4-0.4-0.6-0.8-0.5-0.7-0.9-1.3-0.3-0.7-0.6-1.4-0.2-0.3-0.3-0.7-0.2-0.3-0.3-0.6 0 0 0-0.1-0.1-0.2-0.2-0.5-0.1-0.4-0.2-0.9-0.1-0.2-0.1-0.4 0-0.1 0-0.1-0.1-0.2-0.1-0.3-0.1-1-0.1-2 0-0.4 0-0.8 0-0.4 0.1-0.7 0-0.2 0-0.4 0-0.1 0-0.2 0.1-0.2 0.1-0.4 0.1-0.3 0.2-0.6 0-0.3 0.1-0.5 0-0.1 0.1-0.3 0.1-0.3 0.2-0.6 0 0 0-0.1 0.1-0.3 0.2-0.6 0.3-0.7 0.7-1.5 0.2-0.4 0.5-0.8 0.2-0.5 0.5-0.9 0.8-1.3 1.9-2.6 0.3-0.4 0.7-0.8 0.4-0.5 0.8-0.9c0.2-0.3 0.4-0.5 0.7-0.7q0.4-0.5 0.9-0.9 1-1 2.1-1.9 0.9-0.9 1.9-1.7 0.5-0.3 0.9-0.6 0.9-0.7 1.8-1.4 2.4-1.6 5.1-3.3 0.7-0.5 1.4-0.9 0.8-0.5 1.5-0.9 0.8-0.5 1.6-0.9 0.4-0.3 0.8-0.5 0.4-0.2 0.8-0.4 1.6-0.9 3.3-1.8 0.8-0.5 1.7-0.9 1.3-0.7 2.7-1.4 1.4-0.7 2.9-1.4 0.7-0.3 1.5-0.6 1.4-0.7 3-1.4 0.7-0.3 1.5-0.7 1.9-0.8 3.9-1.7 0.7-0.3 1.5-0.6 1.2-0.5 2.4-1 1.1-0.4 2.1-0.9 0.9-0.3 1.9-0.7 0.4-0.2 0.7-0.3 0.4-0.2 0.8-0.3 0.9-0.4 1.9-0.8 2.5-0.9 5.1-1.9 2.6-0.9 5.3-1.9 1.3-0.5 2.7-0.9 0.9-0.4 1.9-0.7 1.2-0.4 2.4-0.8 2.5-0.9 5-1.7 1.3-0.5 2.6-0.9 1.5-0.4 2.9-0.9 3-1 6-1.9 3.1-1 6.2-1.9 3.2-1 6.4-1.9 1.6-0.5 3.3-1 1.4-0.4 2.9-0.8 1.6-0.5 3.2-0.9 1.4-0.4 2.8-0.8 1.7-0.5 3.4-1 1.4-0.3 2.7-0.7 1.8-0.5 3.7-1 2.5-0.7 5.1-1.3 5.1-1.4 10.4-2.7 1.7-0.5 3.3-0.9 7-1.7 14.2-3.4 5.6-1.4 11.3-2.7 6.7-1.6 13.6-3.1 0.8-0.2 1.8-0.4 0.9-0.2 1.8-0.4 1.1-0.3 2.3-0.5 1.2-0.3 2.3-0.6 5-1 10.1-2.1 0.3-0.1 0.6-0.1 3.6-0.8 7.4-1.6 2.2-0.5 4.4-0.9 10-2.1 20.4-4.1 1-0.2 2.1-0.5 1-0.1 2.1-0.4 6.2-1.2 12.7-2.4 2.1-0.4 4.3-0.8 2.1-0.4 4.3-0.8 2.2-0.4 4.4-0.8 13.7-2.6 28.1-5.1 4.8-0.8 9.7-1.6 3.7-0.7 7.5-1.3 2.3-0.4 4.7-0.8c1.6-0.3 3.1-0.6 4.7-0.8q2.4-0.4 4.8-0.8 4-0.6 8.1-1.3 2.6-0.4 5.3-0.9 2.7-0.4 5.4-0.8 2.7-0.4 5.4-0.9 2.5-0.4 4.9-0.8 2.5-0.3 5-0.7 5-0.8 10-1.6 5.1-0.7 10.2-1.5 3.8-0.6 7.6-1.1 3.9-0.6 7.8-1.1 6-0.9 12-1.8 4.1-0.5 8.3-1.1 5-0.7 10-1.4 6.2-0.9 12.5-1.7 3.1-0.4 6.2-0.9 6.3-0.8 12.6-1.6 3.2-0.4 6.4-0.8 9.6-1.3 19.3-2.5 6.5-0.8 13-1.6 3.2-0.4 6.3-0.8 3.1-0.4 6.3-0.7 3.1-0.4 6.3-0.8 3.2-0.4 6.4-0.7 1.6-0.2 3.2-0.4 1.6-0.2 3.3-0.4 4.3-0.5 8.7-1 4.4-0.5 8.8-1 21.4-2.4 43.5-4.7 4.6-0.5 9.1-1 2.2-0.2 4.3-0.4 2.2-0.2 4.3-0.5 1.7-0.1 3.4-0.3 1.7-0.2 3.4-0.4 6.8-0.6 13.6-1.3 3.1-0.3 6.2-0.6 0.1 0 0.3 0 0.2-0.1 0.3-0.1 2.2-0.2 4.5-0.4 2.2-0.2 4.4-0.4 16.2-1.6 32.8-3.1 5.3-0.5 10.7-0.9 6.6-0.6 13.3-1.2 6.8-0.6 13.5-1.2 6.1-0.5 12.3-1 10.8-0.9 21.7-1.8 3.6-0.2 7.3-0.5 3.6-0.3 7.3-0.6 8.8-0.7 17.6-1.3 3.3-0.3 6.7-0.5 1.7-0.2 3.4-0.3 1.7-0.1 3.4-0.2 14.1-1.1 28.3-2 5.4-0.4 10.9-0.8 2.1-0.1 4.3-0.3 2.1-0.1 4.2-0.2 3.5-0.3 6.9-0.5 3.5-0.2 7-0.4 6.8-0.5 13.8-0.9 0 0 0 0 6.9-0.4 13.9-0.9 10.6-0.6 21.2-1.2 7.1-0.4 14.2-0.8 1.8-0.1 3.7-0.2 5.6-0.3 11.2-0.6 9.9-0.5 19.9-1 0.4-0.1 0.9-0.1 14.4-0.7 28.9-1.4 10.8-0.5 21.8-1 10.9-0.4 21.9-0.9 6.4-0.3 12.9-0.5 8.3-0.3 16.6-0.6 1.9-0.1 3.8-0.2 1.8-0.1 3.7-0.1 1-0.1 2-0.1 6.4-0.2 12.8-0.4 11.2-0.4 22.5-0.8 3.7-0.1 7.5-0.2 9.5-0.3 19-0.6 6.9-0.2 13.8-0.3 2.4-0.1 4.7-0.2h0.2q1 0 2 0 5.1-0.1 10.1-0.3 6.6-0.1 13.2-0.3 11.7-0.2 23.4-0.4 15.3-0.3 30.7-0.6 7.7-0.1 15.5-0.2 7.7-0.1 15.5-0.2 5 0 10-0.1 1.2 0 2.4 0 6.2-0.1 12.5-0.1 6.2-0.1 12.4-0.1 12.1-0.1 24.3-0.1 12.9-0.1 26-0.1c50 0 99.3 0.5 147.9 1.4q15.6 0.3 31.1 0.7 5.2 0.1 10.3 0.2 5.2 0.2 10.3 0.3 5.2 0.1 10.3 0.3 10.3 0.2 20.5 0.5 2.2 0.1 4.5 0.2 2.4 0 4.8 0.1 0.8 0 1.6 0.1 4.1 0.1 8.1 0.2 0.7 0 1.4 0.1 10.1 0.3 20.2 0.6 2.3 0.1 4.7 0.2 2.7 0.1 5.4 0.2 5 0.2 10 0.4 2.8 0.1 5.5 0.2 0.2 0 0.4 0 2.8 0.1 5.6 0.2 4.3 0.2 8.6 0.3 2.4 0.1 4.8 0.2 2.6 0.1 5.2 0.2 2.2 0.1 4.4 0.2 2.8 0.2 5.5 0.3 5.8 0.2 11.5 0.5 4.2 0.1 8.3 0.3 2.5 0.2 5 0.3 2.1 0.1 4.3 0.2 4.3 0.2 8.6 0.4 5.8 0.2 11.6 0.5 4.9 0.3 9.7 0.5 2.6 0.1 5.2 0.3 2.3 0.1 4.6 0.2 0.4 0 0.9 0.1 6.7 0.3 13.4 0.7 2.5 0.1 5 0.2 4.2 0.3 8.3 0.5 0.7 0 1.4 0.1 0.2 0 0.3 0 3 0.2 5.9 0.3 2.9 0.2 5.7 0.3 3 0.2 5.9 0.4 2.1 0.1 4.2 0.2 1.6 0.1 3.1 0.2 1.8 0.1 3.6 0.2 4.6 0.3 9.1 0.6 9.3 0.5 18.5 1.1 0.4 0 0.8 0.1 4.2 0.2 8.4 0.5 0.7 0.1 1.3 0.1 4.5 0.3 9.1 0.6 4.6 0.3 9.3 0.6 3 0.2 6.1 0.4 0.8 0.1 1.7 0.1 0.8 0.1 1.5 0.1 4.6 0.4 9.2 0.7 3.1 0.2 6.2 0.4 1.5 0.1 3.1 0.2 4.6 0.4 9.2 0.7 1.9 0.2 3.9 0.3 1.2 0.1 2.5 0.2 1.1 0.1 2.3 0.1 4.8 0.4 9.5 0.8 0.4 0 0.8 0 0.9 0.1 1.9 0.2 3.2 0.2 6.4 0.4 3.6 0.3 7.2 0.6 3.7 0.3 7.4 0.6 1.1 0.1 2.1 0.2 0.6 0 1.2 0 0 0.1 0.1 0.1 5.5 0.4 11 0.8 3.5 0.3 6.9 0.6 4.5 0.4 8.9 0.7 4.5 0.4 8.9 0.8c85.6 22.3 133.6 45 133.6 64.9z"/>
		<path id="Layer" class="s0" d="m1061.8 2145.2c0 36.4-78.4 69.3-204 92.5-116.5 21.5-273.5 34.7-446.3 34.7-39.2 0-77.6-0.7-114.8-2-64.1-2.2-125-6.3-181.1-11.9q1-1 2.1-1.9 0.9-0.8 1.9-1.7 0.5-0.3 0.9-0.6 0.9-0.7 1.8-1.4 2.4-1.6 5.1-3.3 0.7-0.5 1.4-0.9 0.7-0.5 1.5-0.9 0.8-0.5 1.6-0.9 0.4-0.3 0.8-0.5 0.4-0.2 0.8-0.4 1.6-0.9 3.3-1.8 0.8-0.5 1.7-0.9 1.3-0.7 2.7-1.4 1.4-0.7 2.9-1.4 0.7-0.3 1.5-0.6 1.4-0.7 3-1.4 0.7-0.3 1.5-0.7 1.9-0.8 3.9-1.7 0.7-0.3 1.5-0.6 1.2-0.5 2.4-1 1.1-0.4 2.1-0.9 0.9-0.3 1.9-0.7 0.4-0.2 0.7-0.3 0.4-0.2 0.8-0.3 0.9-0.4 1.9-0.8 2.5-0.9 5.1-1.9 2.6-0.9 5.3-1.9 1.3-0.5 2.6-0.9 1-0.4 2-0.7 1.2-0.4 2.4-0.8 2.5-0.9 5.1-1.7 1.2-0.5 2.5-0.9 1.5-0.4 2.9-0.9 3-1 6-1.9 3.1-1 6.2-1.9 3.2-1 6.4-1.9 1.6-0.5 3.3-1 1.4-0.4 2.9-0.8 1.6-0.5 3.2-0.9 1.4-0.4 2.8-0.8 1.7-0.5 3.4-0.9 1.4-0.4 2.7-0.8 1.8-0.5 3.8-1 2.4-0.7 5-1.3 5.1-1.4 10.4-2.7 1.7-0.5 3.3-0.9 7-1.7 14.2-3.4 5.6-1.4 11.4-2.7 6.6-1.6 13.5-3.1 0.8-0.2 1.8-0.4 0.9-0.2 1.8-0.4 1.2-0.3 2.3-0.5 1.2-0.3 2.3-0.6 5-1 10.1-2.1 0.3-0.1 0.6-0.1 3.6-0.8 7.4-1.6 2.2-0.5 4.4-0.9 10-2.1 20.4-4.1 1-0.2 2.1-0.5 1-0.2 2.1-0.4 6.3-1.2 12.7-2.4 2.1-0.4 4.3-0.8 2.1-0.4 4.3-0.8 2.2-0.4 4.4-0.8 13.7-2.6 28.1-5.1 4.8-0.8 9.7-1.6 3.7-0.7 7.5-1.3 2.3-0.4 4.7-0.8 2.3-0.4 4.7-0.8 2.4-0.4 4.8-0.8 4-0.6 8.1-1.3 2.6-0.4 5.3-0.9 2.7-0.4 5.4-0.8 2.7-0.5 5.4-0.9 2.5-0.4 4.9-0.8 2.5-0.3 5-0.7 5-0.8 10-1.6 5.1-0.7 10.2-1.5 3.8-0.5 7.6-1.1 3.9-0.6 7.8-1.1 6-0.9 12-1.8 4.1-0.5 8.3-1.1 5-0.7 10-1.4 6.2-0.9 12.5-1.7 3.1-0.4 6.2-0.9 6.3-0.8 12.6-1.6 3.2-0.4 6.4-0.9 9.6-1.2 19.3-2.4 6.5-0.8 13-1.6 3.1-0.4 6.3-0.8 3.1-0.4 6.3-0.7 3.1-0.4 6.3-0.8 3.2-0.4 6.4-0.7 1.6-0.2 3.2-0.4 1.6-0.2 3.2-0.4 4.4-0.5 8.8-1 4.4-0.5 8.8-1 21.4-2.4 43.5-4.7 4.6-0.5 9.1-1 2.2-0.2 4.3-0.4 2.2-0.2 4.3-0.5 1.7-0.1 3.4-0.3 1.7-0.2 3.4-0.4 6.8-0.6 13.6-1.3 3.1-0.3 6.2-0.6 0.1 0 0.3 0 0.2-0.1 0.3-0.1 2.2-0.2 4.5-0.4 2.2-0.2 4.4-0.4 16.3-1.6 32.8-3.1 5.3-0.5 10.7-0.9 6.6-0.6 13.3-1.2 6.8-0.6 13.5-1.2 6.1-0.5 12.3-1 10.8-0.9 21.7-1.8 3.6-0.2 7.3-0.5 3.6-0.3 7.3-0.6 8.8-0.7 17.6-1.3 3.3-0.3 6.7-0.5 1.7-0.2 3.4-0.3 1.7-0.1 3.4-0.2 14.1-1.1 28.3-2 5.4-0.4 10.9-0.8 2.1-0.1 4.3-0.3 2.1-0.1 4.2-0.2 3.5-0.3 6.9-0.5 3.5-0.2 7-0.4 6.8-0.5 13.8-0.9 0 0 0 0 6.9-0.4 13.9-0.9 10.6-0.6 21.2-1.2 7.1-0.4 14.2-0.8 1.8-0.1 3.7-0.2 5.6-0.3 11.2-0.6c6.1 5.2 11.1 10.4 14.8 15.5q3.3 4.5 5.4 8.8 3.2 6.8 3.2 13.3z"/>
		<path id="Layer" class="s10" d="m1441.5 2212.2c-125.1 0-244.8 1.4-354.9 3.8-367.2 8.2-627.5 28.7-627.5 52.7 0 19.3 167.6 36.3 423.6 46.5 127.6-21.7 207.2-52.6 207.2-86.8q0-2.7-0.7-5.5 0.7 2.8 0.7 5.5c0 34.2-79.6 65.1-207.2 86.8 158.7 6.3 351.2 10 558.8 10 542.6 0 982.4-25.3 982.4-56.5 0-31.2-439.8-56.5-982.4-56.5z"/>
	</g>
	<g id="Layer">
		<path id="Layer" class="s11" d="m1128.9 1008.3l110 69.9c9.1-1.4 14.5-4 29.7-7.1 7.6-1.6 24.7-7 40.8-13.9 15.7-6.7 30.4-14.9 34.2-22.1 5.5-10.3 2.5-27.8-4.5-37q-6.5-8.4-13-16.7c-3.6-4.8-24.6-17-30.4-15.3-18.7 5.4-38.4-1-57.7-3-5-0.6-10.5-0.7-16.3-0.4-33.5 1.4-77.8 15.8-92.8 45.6z"/>
		<path id="Layer" class="s12" d="m1633.5 1052.8c5.8-4.1 10.9-9 15-14.7l189-256.1c19.8-26 14.8-63.1-11.2-82.9-26-19.7-63.1-14.7-82.9 11.3l-172.3 225c-4.1 5.3-8.9 9.9-14.4 13.7l-175.8 122.5c-27.9 19.5-35.9 57.2-18.3 86.3 19.3 31.9 61.5 40.8 92 19.5z"/>
		<path id="Layer" class="s13" d="m1746.8 467.5c-25.4-39.4-33.3-89.6-21.2-134.9 9.4-6 25.5 3.4 34.4 10.1 10.3 7.6 20 16.1 28.9 25.4 11 11.4 21.3 24.9 23 40.6 2.3 20.3-10 39.3-23.7 54.3-3.9 4.2-8.1 8.3-13.3 10.6-5.3 2.2-25-1.3-28.1-6.1z"/>
		<path id="Layer" class="s12" d="m1745.8 1367.9l92.1 24.5c35.5 9.4 69.8-18.6 67.6-55.3l-38-636.9c-1.5-24.1-19.6-43.9-43.5-47.4-55.2 23.1-102.8 59.4-139.3 104.7-28.4 35.2-50.1 75.9-63.4 120q-1 3.3-1.9 6.6-4.4 15.6-7.4 31.8l-34.3 186.2q-1.9 10.3-2.9 20.4 0 0.8-0.1 1.6c-9.8 110.9 61.5 214.6 171.1 243.8z"/>
		<path id="Layer" class="s14" d="m1447.5 2087.1c-2 2.9 20.7 89.1 20.7 89.1l-139.1-45.4 31.3-31z"/>
		<path id="Layer" class="s14" d="m1603.9 2101.9l-14.3 43.8-34.7-11.4 6.2-10.2-5.9-7 14.3-16.6z"/>
		<path id="Layer" class="s14" d="m1565.2 2197.9c3.7 1.2 6.3 3.4 5.7 5l-7.9 24.3c-0.5 1.6-3.9 1.9-7.6 0.7l-278.2-90.8c-3.6-1.2-6.2-3.5-5.7-5.1l7.9-24.2c0.6-1.6 4-2 7.6-0.8z"/>
		<path id="Layer" class="s15" d="m1478.4 2034.6c32.8 8.3 83.8 54.4 116.9 41.3 1.5-0.6 3.1-0.4 4.7 0.7 4.2 3.4 7.9 11.8 1.4 33l-3.1 9.6-32.6-10.6-5 15.4 32.6 10.6-24.4 74.5-117.9-38.5-11.2-73.2-15.5-5.1 9.6 72.7-18.8-6.1-8.1-46.7-16.6-5.4 7.3 46.4-18.6-6.1-3.3-23.1-14.4-4.7 3.1 23-87-28.4c-0.1 0-13.1-40 25-38.2 0 0 101.2 17.6 175.9-41.1z"/>
		<path id="Layer" class="s16" d="m1448.3 2063.3l152 49.6 15.4-47.2 258.5-791.7-225.2-52.2-174.9 733.3z"/>
		<path id="Layer" class="s17" d="m1649 1221.8c30.5 64.3 69 105.6 102 131.7 40.7 32 37.1 84.7 37.1 84.7l-7.8 251.7c-1.2 39.4 3 78.7 12.5 117l54.9 220.6 19 76.4 181.1-10.8-11.8-47.1-64.1-256c-8-32-10.7-65.1-8-98l35-417.9z"/>
		<path id="Layer" class="s18" d="m1809.4 582.6l122.6-7.4 8.5 140.1-122.7 7.4z"/>
		<path id="Layer" class="s19" d="m2003.5 524.6c-1.1 9.7-7 17.6-15.1 21.6-4.6 2.3-9.8 3.3-15.2 2.7-3.6-0.4-6.9-1.5-9.9-3.1-4.2 22.6-15 42.6-30.2 58.1-16.4 16.9-37.9 28.5-61.7 32.6-10.3 1.8-21 2.2-32 1-11.5-1.3-22.5-4.3-32.6-8.6-44.5-19.3-73.2-65.9-67.6-116.6l6.6-59.1 12.6-114.2 63 7 133.6 14.8 28.8 3.2-6.3 56.9-8.2 74.2c3.1-0.9 6.5-1.1 9.9-0.8q0.4 0.1 0.8 0.2 0.5 0 1 0.1 0.5 0.1 0.9 0.2 0.5 0.1 1 0.2 0.7 0.2 1.3 0.4 0.4 0.1 0.7 0.2 0.4 0.1 0.7 0.2 0.4 0.2 0.9 0.4 0.1 0 0.2 0 1 0.5 2 0.9 2.6 1.4 4.9 3.2 0 0.1 0 0.1 0.5 0.4 1 0.8 0.4 0.4 0.9 0.8 1 1.1 1.9 2.2 0.2 0.1 0.3 0.3 0.1 0.1 0.2 0.3c4.2 5.4 6.4 12.4 5.6 19.8z"/>
		<path id="Layer" class="s20" d="m2003.5 524.6c-1.1 9.7-7 17.6-15.1 21.6-4.6 2.3-9.8 3.3-15.2 2.7-3.6-0.4-6.9-1.5-9.9-3.1-4.2 22.6-15 42.6-30.2 58.1-16.4 16.9-37.9 28.5-61.7 32.6-26.3-10.9-47.3-31.4-59.2-56.7-8.5-18.2-12.4-39-10-60.5l10.2-92.3 9-81 133.6 14.8 28.8 3.2-6.3 56.9-8.2 74.2c3.1-0.9 6.5-1.1 9.9-0.8q0.4 0.1 0.8 0.2 0.5 0 1 0.1 0.5 0.1 0.9 0.2 0.5 0.1 1 0.2 0.7 0.2 1.3 0.4 0.4 0.1 0.7 0.2 0.4 0.1 0.7 0.2 0.4 0.2 0.9 0.4 0.1 0 0.2 0 1 0.5 2 0.9 2.6 1.4 4.9 3.2 0 0.1 0 0.1 0.5 0.4 1 0.8 0.4 0.4 0.9 0.8 1 1.1 1.9 2.2 0.2 0.1 0.3 0.3 0.1 0.1 0.2 0.3c4.2 5.4 6.4 12.4 5.6 19.8z"/>
		<path id="Layer" class="s17" d="m1840.2 601.4c17.9 2 33.7-9.1 35.5-24.7l1.9-17.2-64.8-7.1-1.9 17.1c-1.7 15.6 11.4 29.9 29.3 31.9z"/>
		<path id="Layer" class="s5" d="m1826.3 569.4l35.8 3.9c6.5 0.8 12.3-3.9 13-10.3l0.4-3.4-58.1-6.4-0.5 4.4c-0.6 5.9 3.6 11.1 9.4 11.8z"/>
		<path id="Layer" class="s17" d="m1773.7 497.9c-5.3 0.6-10.1-3.2-10.7-8.5-0.6-5.2 3.1-10 8.4-10.6 5.3-0.7 10 3.1 10.7 8.4 0.6 5.3-3.2 10-8.4 10.7z"/>
		<path id="Layer" class="s17" d="m1861.3 498.1c-0.6 5.3 3.2 10 8.5 10.6 5.3 0.6 10-3.2 10.6-8.5 0.6-5.3-3.2-10-8.5-10.6-5.3-0.6-10 3.2-10.6 8.5zm49.5-11.1c2.6 0 4.7-2 4.9-4.6 0.2-2.8-1.9-5.2-4.6-5.4l-49.1-3.5c-2.8-0.1-5.2 1.9-5.4 4.7-0.2 2.8 1.9 5.2 4.6 5.4l49.2 3.4q0.2 0 0.4 0zm-159.4-13.1q0.2 0 0.5 0l36.9-1.7c2.8-0.1 5-2.5 4.8-5.2-0.1-2.8-2.4-5-5.2-4.8l-37 1.7c-2.8 0.1-4.9 2.4-4.8 5.2 0.1 2.6 2.2 4.7 4.8 4.8z"/>
		<path id="Layer" class="s21" d="m1305.1 1030.7c16 41.2 77.1 45.9 118 36.5 6-1.4 11.6-3.1 16.6-5 19.2-7.6 37.7-19.7 58.3-19.5 6.4 0.1 24.5-18.3 26.9-24.2q4.3-10.5 8.5-20.9c4.7-11.4 2.7-30.2-5.7-39.2-6.1-6.4-23.4-10.6-41.4-13-18.5-2.5-37.6-3.2-45.8-2.7-24.3 1.7-50.1 4.8-73.6 11.2-33.7 9-78 35.3-61.8 76.8z"/>
		<path id="Layer" class="s22" d="m1423.3 1068.2c6.1-1.4 11.7-3.1 16.7-5.1 19.4-7.6 38-19.9 58.8-19.6 6.5 0.1 24.7-18.5 27.1-24.5q4.3-10.5 8.6-21c4.6-11.5 2.7-30.5-5.8-39.5-6.1-6.4-23.6-10.6-41.7-13.1-16.3 7.3-31.1 17.7-42.7 31.2-21.3 24.8-30.6 60.5-21 91.6z"/>
		<path id="Layer" class="s23" d=""/>
		<path id="Layer" class="s5" d="m1599.9 1165.3q2.1 10.3 5 20.7c15.2 53.6 46.6 88.7 98.6 108.1 31.1 11.7 68 16.7 109.8 14.2l207.6-12.4-33.7-563c-2-33.4-20.8-61.6-47.3-75.8-1.9 6.4-4.8 12.5-8.5 18-11.4 17.4-30.5 29.3-52.6 30.6-11.4 0.7-22.4-1.5-32.2-6.1-13.8-6.4-19.5-16.8-29.8-26.6-5.8-5.4-2.5-10.3-10.7-11-4.6-0.4-16.3 10.3-20.2 12.9-24.5 16.8-46.9 36.6-66.6 58.7-47.3 53-75.9 117.7-92.8 185.9-20 80.1-43.3 162.9-26.6 245.8z"/>
		<path id="Layer" class="s24" d="m1690.7 1126.8c50.2 17 105.3-2.7 135.7-50.1l134-227.3-7.4-124.5q-4.5-2.9-9.2-4.8c-9-3.8-18.7-5.4-28.2-4.8-16.1 1-31.8 8-43.4 20.9l-136.9 152.2q-4.4 15.6-7.4 31.8l-34.3 186.2q-1.9 10.2-2.9 20.4z"/>
		<path id="Layer" class="s1" d="m1660.7 1135.6c0.3 5-0.2 10.8-1 18-5.1 48.8 15.4 101.7 43.8 140.5 31.1 11.7 68 16.7 109.8 14.2l173.9-10.4-26.7-448.5-134.1 227.3c-30.4 47.4-85.5 67.1-135.7 50.1q1-10.2 2.9-20.4l34.3-186.2q3-16.2 7.4-31.8l136.9-152.2c11.6-12.9 27.3-19.9 43.4-20.9 9.5-0.6 19.2 1 28.2 4.8q4.7 1.9 9.2 4.8l-0.7-11.6c-0.9-15.7-8.9-29.5-20.9-38.2-11.4 17.4-30.5 29.3-52.6 30.6-11.4 0.7-22.4-1.5-32.2-6.1-29.2 19.8-55.1 43.8-77 71-29.8 37-52.2 80-65.4 126.6q-1.7 6.2-3.2 12.4c-38.4 5.9-32.5-22-56.5-36.2-23.7 51.8-41.4 106.3-52.6 162.1-10.1 50.4 20.1 48.1 51.7 73.4 12.3 9.9 16.4 16.9 17.1 26.7z"/>
		<path id="Layer" class="s9" d="m1958 1396.4l-92.1-24.5c-55.9-14.9-101.9-49.2-132.2-94-17.6-26.1-30-55.7-35.8-87.1-3.9-20.3-5-41.4-3.1-62.7q0.1-0.8 0.1-1.5 1-10.2 2.9-20.4l0.5-3.1 1.8-9.4 32-173.8q1.7-9.2 3.9-18.3 0.4-1.8 0.8-3.5 1.3-5 2.7-10 0.9-3.3 1.9-6.6c13.3-44.1 35-84.7 63.4-120 36.5-45.2 84.1-81.6 139.3-104.7 23.9 3.5 42 23.3 43.5 47.4l38 637c2.2 36.6-32.1 64.7-67.6 55.2z"/>
		<path id="Layer" class="s12" d="m1979.8 845.5l-6.7 18.1-118.7 319.3c-22.3 53.7-68.5 88.3-120.7 95-17.6-26.1-29.9-55.7-35.8-87.1 0.1-32.7 1.1-64.9 2.2-97.1l32-173.8q1.7-9.2 3.9-18.3c5.9-5.8 11.8-11.4 16.8-16.9 28.1-30.8 45.5-69.6 67.7-104.9 19.2-30.6 60-86.2 102-76.8q6.5 1.4 12.9 4 6.4 2.6 12.6 6.4 0.3 0.2 0.6 0.4c19.9 19.2 33.7 51.6 37 82.5 1.9 17.9 0.2 35.3-5.8 49.2z"/>
		<path id="Layer" class="s9" d="m1768.9 1106.6c58.1 8.8 114.3-25.1 133.6-80.6l82.5-237.4c12-32.9-4.9-69.2-37.8-81.2-32.9-12-69.3 5-81.3 37.9l-72.5 199.1c-8 22-30.1 35.4-53.3 32.3l-203.5-27.4c-32.9-4.5-63.3 18.7-67.7 51.6-4.4 32.6 18.1 62.7 50.6 67.6z"/>
		<path id="Layer" class="s18" d="m1974 510.7c-2.1 1.2-3.4 3.4-4.6 5.5-2.3 4-4.4 8.8-2.8 13.1 1.7 4.7 7.1 7 12 7.7 4.9 0.8 11 0 13.2-4.5-0.7 1.3-5.7-4.6-6-5.3-1.9-4.1 0.9-6.3 0.7-10-0.5-5.9-6.4-10.2-12.5-6.5z"/>
		<path id="Layer" class="s25" d="m1847.7 2027.5l19 76.4 181.1-10.8-11.8-47.1c-63.1-0.8-126.2-7-188.3-18.5z"/>
		<path id="Layer" class="s26" d="m1448.3 2063.3l152 49.6 15.4-47.2-141.6-110.6z"/>
		<path id="Layer" class="s19" d="m1977.5 420.9l-27.4 83.2-17.7-49.4c-5.1-14.3-19-23.6-34.2-22.8-33.9 1.9-63-1-85.8-4.9-32.6-5.6-52.1-13.5-53.9-12.7-3.5 1.5-13 41.6-12.7 38.9l12.6-114.2 63 7 133.6 14.8z"/>
		<path id="Layer" class="s12" d="m2020.4 414.9q-0.1 1.6-0.3 3.2 0 0 0 0 0 0.6-0.1 1.2-0.7 6.6-2.2 13.1-0.1 0.5-0.2 1c-2.6 10.9-7.3 20.9-13.5 30-5.7 8.3-12.7 15.8-20.7 22.4-1.5 1.2-13.3 11.3-22.5 17.1-6.6 4.2-11.8 6.2-10.8 1.2 0.5-2.6 0.2-6-0.5-10.2-5.2-28.3-14.2-68.7-14.6-70.7q0-0.1 0-0.1c-0.1-0.3-0.9-0.6-2.4-1-2.1-0.5-5.3-1-9.5-1.6q0 0 0 0c-26-3.6-86.4-8.5-93.4-9.4-23.8-3-54.7-8.2-77.7-21.8-16.8-9.9-29.5-24.3-32.2-45.6q-0.4-3.5-0.5-7c-0.6-21.9 8.9-44.5 25-59.3 23.5-21.5 59.1-27.5 89.6-18.1q4.7 1.4 9.3 3.2c10.1 4.1 19.9 9.3 29.7 14.2 25.1 12.7 51.1 23.8 77.6 33.2 44.6 15.8 72.7 59.2 69.9 105z"/>
		<path id="Layer" class="s13" d="m2020 419.3q-0.7 6.6-2.2 13.1-0.1 0.5-0.2 1c-2.6 10.9-7.3 20.9-13.5 30-5.7 8.3-12.7 15.8-20.7 22.4-1.5 1.2-13.3 11.3-22.5 17.1-6.6 4.2-11.8 6.2-10.8 1.2 0.5-2.6 0.2-6-0.5-10.2-5.2-28.3-14.2-68.7-14.6-70.7 0 0 81.4 13.5 85-3.9z"/>
		<path id="Layer" class="s3" d="m1843.2 262.5c-25 5-49.8 11.2-72.8 22.4-13.2 6.4-39 29.4-51.1 51.8-0.6-21.9 8.9-44.5 25-59.3 23.5-21.5 59.1-27.5 89.7-18.1q4.6 1.4 9.2 3.2z"/>
		<path id="Layer" fill-rule="evenodd" class="s9" d="m1942.3 664.2l-89.5 45.3-1.2-2.4c-12.5-24.8-2.6-55.1 22.2-67.7l61.2-23.7zm-160.5-5.8l25-29.5 9 10.3c21.3 18 23.9 49.8 6 71l-1.7 2-36.8-33.1c-6-5.4-6.6-14.5-1.5-20.7z"/>
		<g id="Layer">
			<path id="Layer" class="s16" d="m1883.7 721.4l-30.8-4.2c-12.9-1.7-21.9-13.6-20.2-26.5l1-7.4c1.7-12.9 13.6-22 26.5-20.2l30.8 4.1z"/>
			<path id="Layer" class="s16" d="m1776.4 707l30.8 4.1c12.9 1.7 24.8-7.3 26.5-20.2l1-7.5c1.7-12.9-7.3-24.7-20.2-26.5l-30.8-4.1z"/>
		</g>
	</g>
	<g id="Layer">
		<path id="Layer" class="s9" d="m934.4 1183h497.1c31.2 0 56.5-25.3 56.5-56.4v-285.3c0-31.2-25.3-56.5-56.5-56.5h-497.1c-31.2 0-56.5 25.3-56.5 56.5v285.3c0 31.1 25.3 56.4 56.5 56.4z"/>
		<path id="Layer" class="s4" d="m912.2 1183h501.2c30.1 0 54.4-24.4 54.4-54.4v-289.3c0-30.1-24.3-54.5-54.4-54.5h-501.2c-30 0-54.4 24.4-54.4 54.5v289.3c0 30 24.4 54.4 54.4 54.4z"/>
		<path id="Layer" class="s4" d="m969.7 1183h361.8c2.3 0 4.3-1.9 4.3-4.3v-179.9c0-35.7-29-64.7-64.8-64.7h-301.3c-2.3 0-4.3 1.9-4.3 4.3v240.3c0 2.4 2 4.3 4.3 4.3z"/>
		<path id="Layer" class="s9" d="m1006.5 1183h305.8c2.4 0 4.3-1.9 4.3-4.3v-183.6c0-33.7-27.3-61-61-61h-249.1c-33.3 0-60.2 26.9-60.2 60.2v128.6c0 33.2 26.9 60.1 60.2 60.1z"/>
		<path id="Layer" class="s9" d="m1061.9 1294.6h108.4v-225.6h-23.6c-46.9 0-84.8 37.9-84.8 84.8z"/>
		<path id="Layer" class="s4" d="m1140.3 1294.6h30v-225.6c-16.6 0-30 13.5-30 30.1z"/>
		<path id="Layer" class="s12" d="m1246.9 1328h411.5c4.6 0 8.3-3.7 8.3-8.3v-4.6c0-4.6-3.7-8.3-8.3-8.3h-411.5c-4.5 0-8.2 3.7-8.2 8.3v4.6c0 4.6 3.7 8.3 8.2 8.3z"/>
		<path id="Layer" class="s12" d="m1621.8 1306.8h25.1v-2.7c0-5.3-4.3-9.6-9.7-9.6h-5.8c-5.3 0-9.6 4.3-9.6 9.6 0 0 0 2.7 0 2.7zm-41.6 0h25.1v-2.7c0-5.3-4.3-9.6-9.6-9.6h-5.9c-5.3 0-9.6 4.3-9.6 9.6z"/>
		<path id="Layer" class="s27" d="m1538.6 1306.8h25.1v-2.7c0-5.3-4.3-9.6-9.6-9.6h-5.8c-5.4 0-9.7 4.3-9.7 9.6z"/>
		<path id="Layer" class="s12" d="m1398.6 1306.8h123.6v-2.7c0-5.3-4.4-9.6-9.7-9.6h-113.9z"/>
		<path id="Layer" class="s12" d="m977.6 1294.5h428.1v33.5h-428.1z"/>
		<path id="Layer" class="s9" d="m928.6 1328h401.8c7.2 0 13.1-5.8 13.1-13.1v-7.3c0-7.3-5.9-13.1-13.1-13.1h-401.8c-7.3 0-13.1 5.8-13.1 13.1v7.3c0 7.3 5.8 13.1 13.1 13.1z"/>
		<g id="Layer">
			<path id="Layer" class="s28" d="m2274.6 1362.6l-144.5 644.3-45.5 202.9c-1 17.2-15.1 30.5-32.3 30.5h-1381.1c-17.5 0-31.8-13.9-32.3-31.4l-19.3-87.4-134.6-611.7-32.7-148.2c-0.5-18.2 14.2-33.3 32.4-33.3h1757.6c18.6 0 33.4 15.7 32.3 34.3z"/>
			<path id="Layer" class="s29" d="m2274.6 1362.6l-144.5 644.3c-55.8-160.3-65.6-336.7-26.3-502 14.5-60.9 35.7-120.1 62.7-176.6h75.8c18.6 0 33.4 15.7 32.3 34.3zm-452.3 99.6l-31.6 161.7c-0.5 3.3-7.7 5.9-16.4 5.9h-824.6c-8.9 0-16.2-2.7-16.5-6l-38.3-161.8c-0.2-3.4 7.2-6.3 16.5-6.3h894.5c9.4 0 17 3 16.4 6.5z"/>
			<path id="Layer" class="s29" d="m1875.8 1328.3h17.2v912h-17.2z"/>
			<path id="Layer" class="s29" d="m1297.3 2240.3h-573.1c-20.6-19.6-40.3-40.2-58.9-61.7-16-18.4-31.2-37.4-45.7-57.1l-134.6-611.7c18.1-65 47-127 85.7-181.5h268.3c2.8 33.1 5.8 66.3 12.6 98.4 30.1 142.1 82.7 279 151.7 406.6 79.9 147.7 180.8 282.8 294 407z"/>
			<path id="Layer" class="s29" d="m824.3 1328.3h17.2v912h-17.2z"/>
			<g id="Layer">
				<path id="Layer" fill-rule="evenodd" class="s5" d="m972 1493.9q0-1.2 0.8-2 0.8-0.8 2-0.8h42.2q6.7 0 12.5 2.5 5.8 2.5 10.3 6.8 4.4 4.2 6.9 10 2.5 5.8 2.5 12.4 0 5.2-1.6 9.7-1.6 4.5-4.5 8.3-2.9 3.8-6.9 6.9-2 1.5-4.3 2.8c-2.4 1.3-3.3 4.3-2 6.8l17.7 32.8q0.7 1.5 0.1 2.9-0.7 1.4-2.6 1.4h-15.5q-1 0-1.6-0.4 0-0.1 0-0.1c-0.4-0.4-0.8-0.9-1.1-1.4l-17.9-35.8c-0.9-1.7-2.6-2.8-4.5-2.8h-8.3c-2.7 0-5 2.3-5 5.1v32.6q0 1.2-0.8 2-0.8 0.8-2 0.8h-13.6q-1.2 0-2-0.8-0.8-0.8-0.8-2c0 0 0-97.7 0-97.7zm43.4 44.2q3 0 5.6-1.1 2.7-1.2 4.7-3.3 2-2 3.2-4.8 1.1-2.7 1.1-5.8 0-3-1.1-5.5-1.2-2.6-3.2-4.6-2-2-4.7-3.1-2.6-1.1-5.6-1.1h-19c-2.8 0-5 2.2-5 5v19.3c0 2.8 2.2 5 5 5zm54-44.2q0-1.2 0.8-2 0.8-0.8 2-0.8h60.1q1.2 0 2 0.8 0.8 0.8 0.8 2v12.1q0 1.1-0.8 2-0.8 0.8-2 0.8h-38.7c-2.8 0-5 2.2-5 5v14.2c0 2.7 2.2 5 5 5h31.5q1.1 0 2 0.8 0.8 0.8 0.8 2v12.2q0 1.2-0.8 2-0.9 0.8-2 0.8h-31.5c-2.8 0-5 2.3-5 5.1v15.8c0 2.7 2.2 5 5 5h38.7q1.2 0 2 0.8 0.8 0.8 0.8 2v12.1q0 1.2-0.8 2-0.8 0.8-2 0.8h-60.1q-1.2 0-2-0.8-0.8-0.8-0.8-2zm77.4 49q0-11.1 4.2-20.8 4.2-9.8 11.3-16.9 7.2-7.2 16.9-11.4 9.8-4.2 20.9-4.2 11.2 0 19.7 3.5 8.4 3.4 16 10.2 2.2 2.1 0.1 4.2l-9 9.3q-1.8 1.9-3.7 0-4.7-4.2-10.6-6.5-5.9-2.2-12.1-2.2-7.1 0-13.1 2.7-6.1 2.7-10.5 7.4-4.3 4.8-6.8 11-2.5 6.3-2.5 13.3 0 6.9 2.5 13.1 2.5 6.2 6.9 10.8 4.4 4.7 10.5 7.4 6.1 2.8 13.1 2.8 6.7 0 12.3-2.3 5.6-2.3 10.3-6.2 0.9-0.7 1.9-0.7 1.1 0 1.8 0.7l9.2 9.5q0.9 0.7 0.7 2-0.1 1.2-0.9 2-7.5 7.4-16.7 10.8-9.3 3.5-19.2 3.5-11 0-20.8-4.1-9.7-4.2-16.9-11.3-7.1-7.2-11.3-16.9-4.2-9.6-4.2-20.7zm107.6-49q0-1.2 0.8-2 0.8-0.8 2-0.8h60.1q1.1 0 2 0.8 0.8 0.8 0.8 2v12.1q0 1.2-0.8 2-0.9 0.8-2 0.8h-38.7c-2.8 0-5 2.2-5 5v14.2c0 2.8 2.2 5 5 5h31.4q1.2 0 2 0.8 0.8 0.8 0.8 2v12.3q0 1.2-0.8 2-0.8 0.8-2 0.8h-31.4c-2.8 0-5 2.2-5 5v15.8c0 2.8 2.2 5 5 5h38.7q1.1 0 2 0.8 0.8 0.8 0.8 2v12.1q0 1.2-0.8 2-0.9 0.8-2 0.8h-60.1q-1.2 0-2-0.8-0.8-0.8-0.8-2zm85 0q0-1.2 0.8-2 0.8-0.8 2-0.8h34.7q6.8 0 12.8 2.6 6.1 2.6 10.6 7 4.5 4.4 7.1 10.4 2.6 6 2.6 12.6 0 7-2.6 13-2.6 5.9-7.1 10.5-4.5 4.6-10.5 7.2-6 2.6-12.8 2.6h-13.4c-2.8 0-5 2.2-5 5v29.6q0 1.2-0.8 2-0.8 0.9-2 0.8h-13.6q-1.2 0.1-2-0.8-0.8-0.8-0.8-2zm36.9 45.1q3.1 0 5.8-1.2 2.6-1.2 4.6-3.3 2-2 3.1-4.8 1.1-2.8 1.1-6.1 0-3.1-1.1-5.7-1.1-2.5-3.1-4.5-2-1.9-4.6-3-2.7-1.1-5.8-1.1h-12.7c-2.8 0-5 2.2-5 5v19.7c0 2.7 2.2 5 5 5 0 0 12.7 0 12.7 0zm66.7-25.1c0-2.8-2.2-5-5-5h-17.6q-1.1 0-1.9-0.9-0.9-0.8-0.9-2v-12.1q0-1.1 0.9-1.9 0.8-0.9 1.9-0.9h64.6q1.1 0 1.9 0.9 0.9 0.8 0.9 1.9v12.1q0 1.2-0.9 2-0.8 0.9-1.9 0.9h-17.6c-2.8 0-5 2.2-5 5v77.8q0 1.2-0.8 2-0.9 0.8-2 0.8h-13.8q-1.1 0-2-0.8-0.8-0.8-0.8-2c0 0 0-77.8 0-77.8zm61.1-20q0-1.1 0.9-1.9 0.8-0.9 2-0.9h13.7q1.2 0 2 0.9 0.8 0.8 0.8 1.9v97.8q0 1.2-0.8 2-0.8 0.8-2 0.8h-13.7q-1.2 0-2-0.8-0.9-0.8-0.9-2zm38.4 49q0-11.1 4.2-20.8 4.1-9.8 11.3-16.9 7.1-7.2 16.8-11.4 9.6-4.2 20.7-4.2 11.1 0 20.8 4.2 9.6 4.2 16.9 11.4 7.2 7.1 11.3 16.9 4.2 9.7 4.2 20.8 0 11.1-4.2 20.7-4.1 9.7-11.3 16.9-7.3 7.1-16.9 11.2-9.7 4.2-20.8 4.2-11.1 0-20.7-4.2-9.7-4.1-16.8-11.2-7.2-7.2-11.3-16.9-4.2-9.6-4.2-20.7zm19.2 0q0 6.9 2.7 13.1 2.6 6.2 7.2 10.8 4.6 4.6 10.8 7.2 6.2 2.7 13.1 2.7 7 0 13.2-2.7 6.2-2.6 10.8-7.2 4.7-4.6 7.3-10.8 2.7-6.2 2.7-13.1 0-7-2.7-13.2-2.6-6.2-7.3-10.8-4.6-4.7-10.8-7.4-6.2-2.7-13.2-2.7-6.9 0-13.1 2.7-6.2 2.7-10.8 7.4-4.6 4.6-7.2 10.8-2.7 6.2-2.7 13.2zm106-50.7q0-1.1 0.8-1.9 0.8-0.7 2-0.7h2.2q1.5 0 2.5 1l60.3 64.2h0.3v-60.9q0-1.2 0.8-2 0.8-0.8 2-0.8h13.6q1.1 0 1.9 0.8 0.9 0.8 0.9 2v99.3q0 1.2-0.9 1.9-0.8 0.8-1.9 0.8h-2.1q-1.5 0-2.5-1.1l-60.6-66.7h-0.2v63.5q0 1.2-0.9 2-0.8 0.8-2 0.8h-13.4q-1.2 0-2-0.8-0.8-0.8-0.8-2c0 0 0-99.4 0-99.4z"/>
			</g>
			<path id="Layer" class="s6" d="m1286.8 1328.3l345.9 912h261.3l-321.9-912z"/>
			<path id="Layer" class="s6" d="m708.8 1328.3l387.3 912h361.4l-354.1-912z"/>
		</g>
		<g id="Layer">
			<path id="Layer" class="s5" d="m1874.3 1328.3h-186.1c0-49.3 38.3-89.6 86.8-92.9q0-0.1 0-0.2v-18.6c0-3.4 2.8-6.2 6.3-6.2 3.5 0 6.3 2.8 6.3 6.2v18.8q6.9 0.5 13.5 2c17.8 3.8 33.6 12.7 46 25.1 16.8 16.8 27.2 40.1 27.2 65.8z"/>
			<path id="Layer" class="s30" d="m1874.3 1328.2h-147.5q7.8-14.6 17.2-28.4c15.9-23.3 35.3-44.5 57.3-62.4 17.7 3.9 33.5 12.8 45.8 25.1 6.8 6.8 12.6 14.6 17 23.3 6.5 12.7 10.2 27.1 10.2 42.4z"/>
			<path id="Layer" class="s31" d="m1874.3 1328.2h-100c15.5-10.9 32.3-20 49.6-27.6 13.2-5.7 26.6-10.6 40.2-14.8 6.5 12.7 10.2 27.1 10.2 42.4z"/>
		</g>
		<g id="Layer">
			<path id="Layer" class="s4" d="m1905.8 1115.5c0 0-49.8-164 63.3-237.5l110.5 57c0 0-112.3 90.4-85.2 178.9 27.1 88.5-88.6 1.6-88.6 1.6z"/>
			<path id="Layer" class="s0" d="m1918.2 1104.7c0 0 0.5-171.4 130.1-208.5l89 86.8c0 0-133.8 53.5-133.8 146.1 0 92.6-85.3-24.4-85.3-24.4z"/>
			<path id="Layer" class="s5" d="m2017.1 1082v205.1c0 22.7-18.4 41.2-41.1 41.2h-45.7c-22.7 0-41.1-18.5-41.1-41.2v-205.1z"/>
			<path id="Layer" class="s0" d="m2017.1 1136.3v150.8c0 22.7-18.4 41.2-41.1 41.2h-45.7c-22.7 0-41.1-18.5-41.1-41.2v-56.8c24-7.5 47.2-17.1 68.1-31.1 24.3-16.1 44.8-37.9 59.8-62.9z"/>
		</g>
		<g id="Layer">
			<path id="Layer" class="s4" d="m2186.8 1127.7v36.9q-3.7 1-7.9 1.6c-23.4 3.5-56.7-1.1-56.7-1.1 0 0-28-26.6-48.7-66.4-2.8-5.4-5.5-10.9-7.9-16.7-15.1-35.5-21.9-78.7-0.9-122l104.9-3.5c0 0-2.7 7.4-5.8 19.5-6.3 24.5-14.2 68-3.8 106q0.9 3.3 2 6.6c4.7 14.1 12.3 27.3 23.7 38.1q0.6 0.5 1.1 1z"/>
			<path id="Layer" class="s0" d="m2100.4 1171c0 0-74.4-129 3.5-211.4l102.3 28c0 0-73.8 96.4-33.4 166 40.3 69.6-72.4 17.4-72.4 17.4z"/>
			<path id="Layer" class="s5" d="m2186.8 1082v205.1c0 22.7-18.4 41.2-41.1 41.2h-45.8c-22.7 0-41.1-18.5-41.1-41.2v-205.1z"/>
			<path id="Layer" class="s4" d="m2186.8 1166.9v120.2c0 22.7-18.4 41.2-41.1 41.2h-45.8c-22.7 0-41.1-18.5-41.1-41.2v-7.1c25.1-14.6 48.7-31.6 70.3-50.8 21.2-18.8 40.5-39.7 57.7-62.3z"/>
		</g>
	</g>
	<g id="Layer">
		<path id="Layer" class="s31" d="m643 319.7c0 23-11.9 45.4-33.3 57.7l-142.3 82.2c-31.8 18.4-72.5 7.5-90.9-24.4q-1.7-2.8-3-5.8c-4-8.8-5.9-18.1-5.9-27.4 0-23 11.9-45.3 33.2-57.7l97.7-56.4 44.7-25.7c31.8-18.4 72.5-7.5 90.9 24.3 6 10.5 8.9 21.9 8.9 33.2z"/>
		<path id="Layer" class="s32" d="m709 329.6q-2.2 1.5-4.5 3.2-2 1.4-4 2.9c-17.1 12.3-35.6 25.1-55.3 38.1-25.4 16.8-52.8 34.1-81.6 51.3-39.4 23.6-77.6 44.8-112.8 63-13.5 7-26.6 13.5-39.1 19.5q-10 4.8-19.6 9.1-0.9 0.5-1.9 0.9c-72.4 33.1-123.2 47.1-130.8 33.1-8.4-15.7 39.6-62.6 118.3-119.5q7.7-5.6 15.8-11.3c14.2-10 29.3-20.3 45.1-30.7 24.7-16.3 51.2-33 79-49.6 25.4-15.3 50.4-29.5 74.3-42.6q8.8-4.8 17.4-9.3 13-6.9 25.4-13.3c101.5-51.9 177.7-77.7 187-60.3 8.3 15.3-37.4 60.3-112.7 115.5z"/>
		<path id="Layer" class="s19" d="m562.7 1683.8l52 545.2 188.3-25.3-22.3-17.7c-46.2-36.8-72-93.3-69.5-152.3l18.4-432.3z"/>
		<path id="Layer" class="s14" d="m611.7 2266.1l63.1-0.3c2.3 0 4.2-3.3 4.2-7.3l-0.1-22.9c-0.1-2-1-3.6-2.1-3.7-25.9-2-50.7-5.9-66.6-17.4-1.4-1-3 0.7-3 3.4l0.2 41c0 4 1.9 7.2 4.3 7.2z"/>
		<path id="Layer" class="s31" d="m606.5 2229c15.1 8.9 45.3 11.1 71.6 12.1q2.9 0.2 5.8 0.3c37.7 1.4 54.7 26.7 103.5 26.5 48.8-0.2 108.5-31.8 108.5-31.8 0-11.8-11.1-20.1-32.5-20q-1 0-2 0.1-4.2 0.1-8.1 0.1c-18.5 0.1-32.6-2-50.3-12.6-18.2-10.9-30.9-36-39.8-36q-1.4 0-2.8 1c-7.5 5.7-10.2 19.7-10.8 23.9h0.2l1.4 14.2-3.2-0.6c-4.9-0.8-103.5-17.6-140.9-45.9-1-0.8-2.6-0.5-3.2 0.7-6.4 12.7-7.1 34.8-7 53.9 0 6 3.6 10.5 9.6 14.1z"/>
		<path id="Layer" class="s20" d="m450.7 1683.8l9.9 103.2 42.2 442 188.3-25.3-22.4-17.7c-46.2-36.8-72-93.3-69.5-152.3l8.3-195.1 7.7-178.2 2.5-59-86.1 42.5z"/>
		<path id="Layer" class="s14" d="m499.7 2266.1l63.1-0.3c2.3 0 4.2-3.3 4.2-7.3l-0.1-22.9c0-2-0.9-3.6-2.1-3.7-25.9-2-50.6-5.9-66.5-17.4-1.5-1-3.1 0.7-3 3.4l0.1 41c0.1 4 2 7.2 4.3 7.2z"/>
		<path id="Layer" class="s32" d="m494.5 2229c15.1 8.9 45.3 11.1 71.6 12.1q3 0.2 5.9 0.3c37.6 1.4 54.7 26.7 103.5 26.5 48.7-0.2 108.5-31.8 108.5-31.8-0.1-11.8-11.1-20.1-32.6-20q-1 0-2 0.1-4.2 0.1-8 0.1c-18.6 0.1-32.6-2-50.4-12.6-18.2-10.9-30.8-36-39.7-36q-1.5 0-2.8 1c-7.6 5.7-10.2 19.7-10.9 23.9h0.2l1.5 14.2-3.3-0.6c-4.8-0.8-103.4-17.6-140.8-45.9-1.1-0.8-2.7-0.5-3.3 0.7-6.4 12.7-7.1 34.8-7 53.9 0 6 3.6 10.5 9.6 14.1z"/>
		<path id="Layer" class="s33" d="m450.7 1683.8l9.9 103.2c24.4 14.6 50.8 26.2 77.8 34.9 22.6 7.3 45.8 12.7 69.2 16.7l7.6-178.2c-12.2-5-24.7-8.8-37.5-11.5-15.2-3.2-30.6-4.8-46.1-5z"/>
		<path id="Layer" class="s19" d="m1169.3 752.3c-0.7 50.5-43.8 78.6-77.4 109-16.6 15-25.1 34.5-39.2 51.8-51.7 63.7-98.3 132.1-160.5 186.6q-5 4.4-10.2 8.7c-36.7 30.4-79.8 40.2-118.4 31.3-31.6-7.3-60.1-27.1-79.8-58.4-43.8-69.7-41.6-189.3-60.5-267.6-8.7-35.8 2.5-48.5 21-71.6 7.4-9.3 18.5-10.2 28.5-14.7 3.3-1.6 7.4-2 11.1-2.2 34.4-2 65.1 13.1 77.6 47.5 5.5 15.1 12.2 38.4 17.4 54.2 1.7 5.1 2.8 7.6 3.8 12.2 1.2 5.6 2.8 11.1 4.7 16.5 5.7 17 13.7 33.6 17.9 51 7.5 30 11.7 61.3 19 91.9-2.5-10.2 45.9-46.8 52.9-54.1q0.8-0.9 1.6-1.7c32.1-33.7 67.1-63.9 99.8-96.6 19.3-20.8 31.1-45.9 41.7-71.9 8.7-21.2 30-37 48.8-49.5 34.6-23 84.1-36.9 98.9 14.8 1.4 4.8 1.4 7.8 1.3 12.8z"/>
		<path id="Layer" class="s18" d="m892.2 1099.7q-5 4.4-10.2 8.7c-36.7 30.4-79.8 40.2-118.4 31.3-23.4-56.2-20.6-120.6-8.7-180.6 7-35.4 17.4-70.7 32.5-103.5 5.7 17 13.7 33.6 17.9 51 7.5 30 11.7 61.3 18.9 91.9-2.4-10.2 46-46.8 53-54.1q0.8-0.9 1.6-1.7c1 52.5 5.5 105.1 13.4 157z"/>
		<path id="Layer" class="s12" d="m702.2 498.1q0 0 0 0c-16.9 11.4-33.5 23.1-50 35.1q-6.5 4.7-12.9 9.4c-19.5 14.2-41.2 28-58.6 44.7-31.1 30-49 46-85.1 34.8-6.2-2-13-4.7-20.4-8.4q-8.5-4.1-16.5-9.2c-25.6-16.5-46.6-40.5-58.6-68.5-2.9-6.6-5.2-13.4-7-20.4q-0.5-1.9-1-3.7-3-13.1-4.3-25.9c-1-10.6-1.2-22.3-0.4-34.2 0.1-1.4 0.8-2.7 1.9-3.5q6.9-5 14.1-10 7.8-5.5 15.8-11.1 14.2-9.7 29.3-19.6c11.5-7.7 23.5-15.4 35.8-23.1 13.9-8.8 28.4-17.7 43.2-26.5 25.4-15.3 50.3-29.5 74.3-42.6q8.8-4.8 17.4-9.4 0.1 0 0.2-0.1c17.6-9.3 38.8-8.2 55.4 2.7q1.3 0.9 2.7 1.8 3.3 2.3 6.3 4.6c6.1 4.7 11.7 10 16.7 15.8q2.5 3.1 4.9 6.3c3.1 4.4 6.2 9.1 9 14 26.1 45.6 36.2 114.4-12.2 147z"/>
		<path id="Layer" class="s24" d="m579.7 802.1c5 15.1 107.4 66 193.5 103-23.7-53.6-42.9-109.1-57.4-165.8l-96-47c0 0-48.6 84.5-40.1 109.8z"/>
		<path id="Layer" class="s31" d="m490.5 689.3c18.9 24.6 48.6 40.4 82 40.4 31.7 0 60-14.2 79-36.6-14.2-13.8-33.9-21.8-55.2-20.5l-36.1 2.2c-24.4 1.6-47.8 6.6-69.7 14.5z"/>
		<path id="Layer" class="s18" d="m515.8 670h114.9v114.8h-114.9z"/>
		<path id="Layer" class="s30" d="m690.9 1706.6h-273.5l18.2-351.6v-0.2l5.6-108.4 8.8-170.1 4.4-86.4 4.3-82 7.6-147.8 1.2-22.7c1-19 9.1-35.9 21.7-48.1q5.3 6.2 11.5 11.6 3 2.5 6.1 4.8c17.1 12.7 38.4 20.2 61.4 20.2 33.4 0 63.1-15.8 82-40.4 94.6 34.5 161.9 124.5 163.4 230l2.6 180 5.3 368.3 0.3 16.4 1.3 92.2c1.1 73.8-58.4 134.2-132.2 134.2z"/>
		<path id="Layer" class="s19" d="m706.6 447.6l-13.9 159.6c-5 57.3-55.6 99.7-112.9 94.6-10-0.8-19.7-3.1-28.6-6.6-39.7-15.4-67-54.2-66.4-98.3-3 0.9-6.2 1.3-9.5 1-13.9-1.2-24.1-13.4-22.9-27.3 1.2-13.9 13.4-24.1 27.3-22.9 3.2 0.3 6.2 1.1 8.9 2.5l10.5-120.7z"/>
		<path id="Layer" class="s13" d="m677.5 310.4c-25.6 8.7-50 21.1-72.4 36.5-19.5 13.3-37.5 28.9-53.3 46.2-30.5 33.4-60.6 77.6-73 121.6q-1.9 6.4-2.8 13.2c-4.2 30.8 5.3 65.5 19.6 94.2-6.2-2-13-4.7-20.4-8.4q-8.5-4.1-16.5-9.2c-25.6-16.5-46.6-40.5-58.6-68.5-2.9-6.6-5.2-13.4-7-20.4q-0.5-1.9-1-3.7-3-13.1-4.3-25.9c-1-10.6-1.2-22.3-0.4-34.2 0.1-1.4 0.8-2.7 1.9-3.5q6.9-5 14.1-10 7.8-5.5 15.8-11.1 14.2-9.7 29.3-19.6c11.5-7.7 23.5-15.4 35.8-23.1 13.9-8.8 28.4-17.7 43.2-26.5 25.4-15.3 50.3-29.5 74.3-42.6q8.8-4.8 17.4-9.4 0.1 0 0.2-0.1c17.6-9.3 38.8-8.2 55.4 2.7q1.3 0.9 2.7 1.8z"/>
		<path id="Layer" class="s20" d="m648.6 442.6l-13.9 159.5c-4.2 47.2-39.2 84.3-83.5 93.1-39.7-15.4-67-54.2-66.4-98.3-3.3 1-6.9 1.4-10.6 0.9-12.6-1.7-22.1-12.7-21.9-25.4 0.3-14.8 12.9-26 27.4-24.7 3.2 0.3 6.2 1.1 8.9 2.5l1.3-14.7c5.1-58.6 56.7-101.9 115.3-96.8z"/>
		<path id="Layer" class="s34" d="m1181.3 690.5l-18.7 24.5-53.4 69.9-20 26.2c-3.1 4-8.8 4.8-12.9 1.7l-26.8-20.5-33-25.2c-3.1-2.3-4.2-6.2-3.3-9.7q0.4-1.7 1.6-3.2l20.1-26.3 25.1-32.9 2.4-3.1 44.4-58.2c3.1-4.1 8.9-4.8 12.9-1.8l35.7 27.3 8.1 6.2 16.1 12.2c4 3.1 4.8 8.9 1.7 12.9z"/>
		<path id="Layer" class="s12" d="m726.3 447.1l-24.1 51q0 0 0 0c-55.6 2-70-41.1-71.6-46.3l-0.1-0.6c-40 102-141.9 98.9-141.9 98.9l-12.6-22.2q0.9-6.8 2.8-13.2c12.4-44 42.5-88.2 73-121.6 15.8-17.3 33.8-32.9 53.3-46.2l78.3 43z"/>
		<path id="Layer" class="s3" d="m488.6 550.1c0 0 101.9 3.2 141.9-98.9l-18.8-32.2c0 0-7.7 95.4-123.1 131.1z"/>
		<path id="Layer" class="s17" d="m607.9 640.4c0 3.8-1.6 7.3-4.1 9.8-2.5 2.5-5.9 4-9.7 4h-9.2c-7.6 0-13.8-6.1-13.8-13.8v-13.8h23c3.9 0 7.5 1.7 10 4.4 2.4 2.4 3.8 5.7 3.8 9.4z"/>
		<path id="Layer" class="s5" d="m604.2 630.1c-0.8 3.2-4.3 5.6-8.5 5.6h-12.2c-4.8 0-8.7-3.2-8.7-7.1v-2h19.4c3.9 0 7.5 1.4 10 3.5z"/>
		<path id="Layer" class="s17" d="m663.5 571.5c-5.6 0-10.2-4.5-10.2-10.1 0-5.7 4.6-10.2 10.2-10.2 5.6 0 10.2 4.5 10.2 10.2 0 5.6-4.6 10.1-10.2 10.1z"/>
		<path id="Layer" class="s17" d="m573.3 571.5c-5.7 0-10.2-4.5-10.2-10.1 0-5.7 4.5-10.2 10.2-10.2 5.6 0 10.1 4.5 10.1 10.2 0 5.6-4.5 10.1-10.1 10.1z"/>
		<path id="Layer" class="s17" d="m544.7 540.7q0.2 0 0.4 0l51.8-4.5c2.3-0.2 4-2.2 3.8-4.4-0.2-2.3-2.2-4-4.5-3.8l-51.9 4.5c-2.2 0.2-3.9 2.2-3.7 4.5 0.2 2.1 2 3.7 4.1 3.7zm142.7 3.4c2 0 3.7-1.4 4.1-3.4 0.4-2.2-1.1-4.4-3.3-4.8l-38.5-7.3c-2.2-0.5-4.4 1-4.8 3.2-0.4 2.3 1 4.4 3.3 4.9l38.4 7.3q0.4 0.1 0.8 0.1zm-16.1 21.9c0.5 0 1-0.3 1.3-0.8 4-8.4 0.1-15.4-0.1-15.7-0.4-0.7-1.2-0.9-1.9-0.5-0.6 0.3-0.8 1.2-0.5 1.8 0.2 0.3 3.3 6.2 0 13.2-0.3 0.7-0.1 1.5 0.6 1.8q0.3 0.2 0.6 0.2z"/>
		<path id="Layer" class="s32" d="m821.8 1480.2c-23.1 13.2-48.5 22.4-74.5 27-74.2 13.1-152.3-9.2-214-52.4-38.5-26.9-71-61.3-97.7-100l5.6-108.4 8.8-170.1 4.4-86.4 129.2-162.2c-6.2 20.3-12.4 40.7-15.4 61.6-18.6 127.3 108.9 222.2 230.3 196.7 6.2 3.4 12.1 6.5 17.7 9.5l5.3 368.3z"/>
		<path id="Layer" class="s17" d="m581.4 564.4c0.7 0 1.2-0.5 1.3-1.2 1.5-9.1-4.2-14.8-4.4-15-0.6-0.6-1.4-0.6-2 0-0.5 0.5-0.5 1.4 0.1 1.9 0.2 0.2 4.9 5 3.6 12.7-0.1 0.7 0.4 1.4 1.2 1.6q0.1 0 0.2 0z"/>
		<path id="Layer" class="s5" d="m804 1094.1l40.3 35.6c38 33.6 41.6 91.7 8 129.7l-91.8 103.9c-33.6 38-91.7 41.6-129.7 8l-40.3-35.6c-3.4-3-6.1-6.4-8.2-10.1-8.1-14.3-6.7-32.6 4.8-45.6l161.2-182.5c10.3-11.6 25.9-15.7 39.9-11.9 5.7 1.5 11.1 4.3 15.8 8.5z"/>
		<path id="Layer" class="s31" d="m788.2 1085.6c24 34 22.5 81.2-6.3 113.7l-91.8 103.9c-27.6 31.3-71.8 39.2-107.8 22.4-8.1-14.3-6.7-32.6 4.8-45.6l161.2-182.5c10.3-11.6 25.9-15.7 39.9-11.9z"/>
		<path id="Layer" class="s15" d="m762.4 1257.4l-12.5 14.2c-7.3 8.2-19.9 9-28.1 1.7l-4.8-4.2c-8.2-7.2-9-19.8-1.7-28.1l12.5-14.1c7.3-8.3 19.9-9.1 28.1-1.8l4.8 4.2c8.2 7.3 9 19.9 1.7 28.1z"/>
		<path id="Layer" class="s20" d="m868.2 1325.6q-0.2 0.1-0.3 0.3c-22.8 21.3-48.6 26.4-74.6 20-11.2-2.8-22.5-7.7-33.6-14.5-12.8-7.7-20-17-34.8-21.5-44.2-13.3-88.2-23.4-131.5-41.7-67.2-28.3-134.6-56.8-134.6-56.8-68.1-28.8-103.1-104.7-80.6-175.2l38.2-115.4 11.1-33.6 26.3-79.5c8.7-26.1 31.3-43.6 56.8-46.9 10.3-1.4 21.1-0.5 31.7 3.1q5.3 1.9 10.1 4.5c29.5 15.7 27.6 46.5 16.5 79.2l-19.5 57.1q-0.7 2-1.4 4-1.5 4.4-2.7 8l-40.7 143.1c-0.9 2.8-1.4 5.7-1.5 8.6-0.2 5.3 1 10.6 3.5 15.2q0 0.1 0 0.1 1 1.9 2.3 3.8c3.1 4.1 7.2 7.6 12.1 9.9q3.8 1.7 7.6 3.4c50.3 23.4 101.8 49.8 152.8 73.8 7.2 3.4 14.5 7.3 21.8 11.4 29.2 16.4 59 36.1 91.5 39.8 38.1 4.4 90.8-14.9 104.8 30.3 8.3 27.1-12.2 51.6-31.3 69.5z"/>
		<path id="Layer" class="s19" d="m868.2 1325.6q-0.2 0.1-0.3 0.3c-22.8 21.3-48.6 26.4-74.6 20-24.3-38.1-49.1-75.8-69.6-116-6.6-13-13.8-28-20.5-43.9 29.2 16.4 59 36.1 91.5 39.8 38.1 4.4 90.8-14.9 104.8 30.3 8.3 27.1-12.2 51.6-31.3 69.5zm-320.2-416.9q-1.5 4.4-2.7 8l-40.7 143.1c-0.9 2.8-1.4 5.7-1.5 8.6-10.8-40.9-31.9-79.6-54.2-115.2-8.2-13.2-18.3-27.3-32.5-32.4l11.1-33.6c8.4-6.9 19.2-11.5 31.3-14.2 25.8-5.9 53.6 3.1 73.8 20 5.7 4.7 10.8 10 15.4 15.7z"/>
		<path id="Layer" class="s31" d="m537.8 954.3l-123.5-39.3c-5-1.6-7.8-7-6.2-12l36.1-113c10.7-33.8 46.8-52.4 80.6-41.6l19.4 6.2c33.8 10.7 52.4 46.8 41.6 80.6l-36 113c-1.6 5-7 7.8-12 6.1z"/>
		<path id="Layer" class="s30" d="m498.5 287.9c-23.3 18.8-45.5 38.7-65.9 60.5-22.8 24.5-43.2 51.7-59.1 81-4-8.8-5.9-18.1-5.9-27.4 0-23 11.9-45.3 33.2-57.7z"/>
		<path id="Layer" class="s35" d="m1163.5 665.4c-14.7 54.6-64.6 94.8-123.9 94.8-9.1 0-17.9-1-26.4-2.8q0.4-1.7 1.6-3.2l20.1-26.3 27.5-36 44.4-58.2c3.1-4.1 8.9-4.8 12.9-1.8z"/>
		<path id="Layer" class="s36" d="m1155.4 659.2c-23.1 22.2-54.5 35.9-89.1 35.9q-3.2 0-6.3-0.1l2.4-3.1 44.4-58.2c3.1-4.1 8.9-4.8 12.9-1.7z"/>
	</g>
	<g id="Layer">
		<path id="Layer" class="s31" d="m2329 1886.5c-21.9-70-16.1-145.5-11.9-218.9 2.3-39.7 4.1-79.4 4.3-119.2 0.2-25.7-0.3-51.8-7.3-76.5-9.6-34.1-30.8-63.5-43.6-96.5-12.8-32.9-15.3-74.8 8.9-100.2 24-25 65.7-23.3 94.8-4.9 29.1 18.4 48.2 49.4 64.6 80.2 13.4 25 26 51.3 29.6 79.6 3.3 25.7-0.9 51.6-4.3 77.2-10.8 79.4-14.2 159.8-10.4 239.8 0.7 16.5 1.6 34-6.3 48.4-11 20.3-35.3 27.6-54.1 40.6-24.8 17.1-41.2 46.3-43.1 76.9z"/>
		<path id="Layer" class="s30" d="m2342 1864.4c-22.2-22-37.1-51.1-42-81.9-2.4-15-2.9-31.5-12.9-42.9-6.1-7-14.9-11-21.4-17.6-10.4-10.4-13.7-26.2-13-41 0.6-14.7 4.8-29.1 7.3-43.6 6.9-40.6 0.3-83.4-18.6-120-17.7-34.3-45.7-63.2-58.2-99.7-9.4-27.5-9.2-58.2 0.6-85.6 2.4-6.9 5.5-13.6 10.3-19 10.7-12.2 28.4-16 44.6-14.9 26.6 1.7 51.6 14.7 71.2 32.8 19.5 18 34.1 40.9 45.8 64.7 12.4 25 22 51.9 22.9 79.7 0.4 13.5-1.2 26.9-2.9 40.3q-5.6 46.5-11.2 93c-1.3 10-2.5 20.1-1.1 30.1 2.5 17.3 12.5 32.6 18 49.2 6.3 19.1 6.5 40.2 0.4 59.4-6.8 21.5-21 40.5-24.4 62.8-4 26.5 8 52.5 19.7 76.6z"/>
		<path id="Layer" class="s32" d="m2362 1683.9c-6.6-45.4-47.9-85.8-39.7-130.7 4.2-22.5 20.3-41.2 26.2-63.3 11.7-43.8-18.6-87.8-25.3-132.8-0.7-4.5-1-9.1-1.2-13.6 13.6 15.6 24.5 33.6 33.7 52.2 12.4 25 22 51.9 22.9 79.7 0.4 13.5-1.2 26.9-2.9 40.3q-5.6 46.5-11.2 93c-1.3 10-2.5 20.1-1.1 30.1 2.5 17.3 12.5 32.6 18 49.2 6.3 19.1 6.5 40.2 0.4 59.4-6.8 21.5-21 40.5-24.4 62.8-1.1 7.1-0.9 14.2 0 21.3-5 11.3-3 24.6 5.3 37.3l-1.5 7.8-19.2-12.2c-5.5-5.5-10.6-11.4-15.2-17.6-0.2-0.8-0.5-1.6-0.8-2.4-8.3-29.8 7.9-53.6 19.4-80"/>
		<path id="Layer" class="s30" d="m2367.4 1864.2c-10.6-21.4-5.7-42.2 16.4-52.5 68.6-32 91.7-67.6 100.9-91.1 10.8-27.2-0.7-77.3-8.8-105.9-11.2-39.9 21.3-81.7 34.3-95.1 42-43.5 46.8-106.1 43.7-128.3-5.9-42.4-30.9-80.3-52.7-118-8.1-14-19.3-28.5-35.6-31.5-17.3-3.3-33.6 8-44.7 20.7-21.5 24.4-33.1 56.6-32.1 88.9 1.3 45.5 26.2 92.8 9.4 134.9-8.5 21.2-26.8 37.9-33.5 59.7-13.5 43.6 22.7 88.7 23.9 134.5 0.7 28.4-12 54.2-26 78-14.6 24.8-33.5 46.6-28.8 77.2 2.7 17 13.1 33.9 29.5 41.3z"/>
		<path id="Layer" class="s5" d="m2483.5 1834.6v285c0 62.9-51 114-114 114-47.6 0-88.4-29.1-105.5-70.6-5.5-13.4-8.6-28.1-8.6-43.4v-285c0-25.6 20.7-46.3 46.3-46.3h135.5c8.4 0 16.4 2.3 23.2 6.2 13.8 8 23.1 23 23.1 40.1z"/>
		<path id="Layer" class="s37" d="m2441.2 2241.3h-143.5v-18.9h143.5z"/>
		<path id="Layer" class="s8" d="m2297.7 2222.4h143.5v18.9h-143.5z"/>
		<path id="Layer" class="s0" d="m2483.5 1834.6v285c0 62.9-51 114-114 114-47.6 0-88.4-29.1-105.5-70.6 55.6-36.9 103.4-83.9 136.2-142 38.9-68.9 53.8-146.9 60.2-226.5 13.8 8 23.1 23 23.1 40.1z"/>
	</g>
</svg>